VotoSerifGX-CondensedLightDisplay.ufo
<glyph name="exclam" format="2">
  <advance width="179"/>
  <unicode hex="0021"/>
  <outline>
    <contour>
      <point x="74" y="187" type="line"/>
      <point x="90" y="187" type="line"/>
      <point x="95" y="714" type="line"/>
      <point x="67" y="714" type="line"/>
    </contour>
    <contour>
      <point x="77" y="-5" type="curve" smooth="yes"/>
      <point x="88" y="-5"/>
      <point x="97" y="4"/>
      <point x="97" y="35" type="curve" smooth="yes"/>
      <point x="97" y="65"/>
      <point x="88" y="73"/>
      <point x="77" y="73" type="curve" smooth="yes"/>
      <point x="67" y="73"/>
      <point x="57" y="65"/>
      <point x="57" y="35" type="curve" smooth="yes"/>
      <point x="57" y="4"/>
      <point x="67" y="-5"/>
    </contour>
  </outline>
</glyph>
<glyph name="quotesingle" format="2">
  <advance width="84"/>
  <unicode hex="0027"/>
  <outline>
    <contour>
      <point x="36" y="479" type="line"/>
      <point x="48" y="479" type="line"/>
      <point x="54" y="714" type="line"/>
      <point x="30" y="714" type="line"/>
    </contour>
  </outline>
</glyph>
<glyph name="parenright" format="2">
  <advance width="183"/>
  <unicode hex="0029"/>
  <outline>
    <contour>
      <point x="0" y="-116" type="line"/>
      <point x="61" y="-79"/>
      <point x="131" y="74"/>
      <point x="131" y="315" type="curve" smooth="yes"/>
      <point x="131" y="550"/>
      <point x="61" y="708"/>
      <point x="0" y="746" type="curve"/>
      <point x="0" y="736" type="line"/>
      <point x="13" y="720"/>
      <point x="103" y="595"/>
      <point x="103" y="315" type="curve" smooth="yes"/>
      <point x="103" y="35"/>
      <point x="15" y="-96"/>
      <point x="0" y="-106" type="curve"/>
    </contour>
  </outline>
</glyph>
<glyph name="seven" format="2">
  <advance width="336"/>
  <unicode hex="0037"/>
  <outline>
    <contour>
      <point x="123" y="0" type="line"/>
      <point x="148" y="0" type="line"/>
      <point x="301" y="690" type="line"/>
      <point x="301" y="712" type="line"/>
      <point x="42" y="712" type="line"/>
      <point x="39" y="568" type="line"/>
      <point x="49" y="568" type="line"/>
      <point x="51" y="626" type="line" smooth="yes"/>
      <point x="54" y="677"/>
      <point x="62" y="684"/>
      <point x="96" y="684" type="curve" smooth="yes"/>
      <point x="292" y="684" type="line"/>
    </contour>
  </outline>
</glyph>
<glyph name="D" format="2">
  <advance width="419"/>
  <unicode hex="0044"/>
  <anchor x="209" y="0" name="bottom"/>
  <anchor x="209" y="357" name="center"/>
  <anchor x="209" y="714" name="top"/>
  <anchor x="399" y="714" name="topright"/>
  <outline>
    <contour>
      <point x="27" y="0" type="line"/>
      <point x="177" y="0" type="line" smooth="yes"/>
      <point x="323" y="0"/>
      <point x="384" y="125"/>
      <point x="384" y="344" type="curve" smooth="yes"/>
      <point x="384" y="581"/>
      <point x="316" y="714"/>
      <point x="182" y="714" type="curve" smooth="yes"/>
      <point x="27" y="714" type="line"/>
      <point x="27" y="704" type="line"/>
      <point x="20" y="704" type="line" smooth="yes"/>
      <point x="75" y="704"/>
      <point x="84" y="698"/>
      <point x="84" y="621" type="curve" smooth="yes"/>
      <point x="84" y="101" type="line" smooth="yes"/>
      <point x="84" y="14"/>
      <point x="75" y="10"/>
      <point x="18" y="10" type="curve" smooth="yes"/>
      <point x="27" y="10" type="line"/>
    </contour>
    <contour>
      <point x="112" y="10" type="line"/>
      <point x="112" y="704" type="line"/>
      <point x="188" y="704" type="line" smooth="yes"/>
      <point x="295" y="704"/>
      <point x="356" y="575"/>
      <point x="356" y="344" type="curve" smooth="yes"/>
      <point x="356" y="110"/>
      <point x="293" y="10"/>
      <point x="187" y="10" type="curve" smooth="yes"/>
    </contour>
  </outline>
</glyph>
<glyph name="K" format="2">
  <advance width="400"/>
  <unicode hex="004B"/>
  <anchor x="201" y="0" name="bottom"/>
  <anchor x="201" y="714" name="top"/>
  <anchor x="380" y="714" name="topright"/>
  <outline>
    <contour>
      <point x="27" y="0" type="line"/>
      <point x="180" y="0" type="line"/>
      <point x="180" y="10" type="line"/>
      <point x="168" y="10" type="line" smooth="yes"/>
      <point x="116" y="10"/>
      <point x="112" y="21"/>
      <point x="112" y="105" type="curve" smooth="yes"/>
      <point x="112" y="244" type="line"/>
      <point x="196" y="392" type="line"/>
      <point x="325" y="79" type="line" smooth="yes"/>
      <point x="352" y="8"/>
      <point x="372" y="0"/>
      <point x="415" y="0" type="curve" smooth="yes"/>
      <point x="409" y="0" type="line"/>
      <point x="409" y="10" type="line"/>
      <point x="409" y="10" type="line" smooth="yes"/>
      <point x="397" y="10"/>
      <point x="376" y="17"/>
      <point x="384" y="31" type="curve" smooth="yes"/>
      <point x="211" y="421" type="line"/>
      <point x="300" y="590" type="line" smooth="yes"/>
      <point x="354" y="683"/>
      <point x="347" y="705"/>
      <point x="387" y="704" type="curve"/>
      <point x="387" y="714" type="line"/>
      <point x="293" y="714" type="line"/>
      <point x="293" y="704" type="line"/>
      <point x="333" y="704"/>
      <point x="343" y="697"/>
      <point x="343" y="690" type="curve" smooth="yes"/>
      <point x="343" y="678"/>
      <point x="329" y="658"/>
      <point x="292" y="593" type="curve" smooth="yes"/>
      <point x="112" y="263" type="line"/>
      <point x="112" y="618" type="line" smooth="yes"/>
      <point x="112" y="693"/>
      <point x="118" y="704"/>
      <point x="168" y="704" type="curve" smooth="yes"/>
      <point x="181" y="704" type="line"/>
      <point x="181" y="714" type="line"/>
      <point x="27" y="714" type="line"/>
      <point x="27" y="704" type="line"/>
      <point x="28" y="704" type="line" smooth="yes"/>
      <point x="78" y="704"/>
      <point x="84" y="693"/>
      <point x="84" y="618" type="curve" smooth="yes"/>
      <point x="84" y="98" type="line" smooth="yes"/>
      <point x="84" y="21"/>
      <point x="78" y="10"/>
      <point x="28" y="10" type="curve" smooth="yes"/>
      <point x="27" y="10" type="line"/>
    </contour>
  </outline>
</glyph>
<glyph name="L" format="2">
  <advance width="358"/>
  <unicode hex="004C"/>
  <anchor x="179" y="0" name="bottom"/>
  <anchor x="179" y="357" name="center"/>
  <anchor x="179" y="714" name="top"/>
  <anchor x="338" y="714" name="topright"/>
  <outline>
    <contour>
      <point x="27" y="0" type="line"/>
      <point x="327" y="0" type="line"/>
      <point x="329" y="205" type="line"/>
      <point x="319" y="205" type="line"/>
      <point x="318" y="79" type="line" smooth="yes"/>
      <point x="317" y="24"/>
      <point x="311" y="10"/>
      <point x="259" y="10" type="curve" smooth="yes"/>
      <point x="112" y="10" type="line"/>
      <point x="112" y="616" type="line" smooth="yes"/>
      <point x="112" y="693"/>
      <point x="118" y="704"/>
      <point x="168" y="704" type="curve" smooth="yes"/>
      <point x="178" y="704" type="line"/>
      <point x="178" y="714" type="line"/>
      <point x="27" y="714" type="line"/>
      <point x="27" y="704" type="line"/>
      <point x="28" y="704" type="line" smooth="yes"/>
      <point x="78" y="704"/>
      <point x="84" y="693"/>
      <point x="84" y="616" type="curve" smooth="yes"/>
      <point x="84" y="98" type="line" smooth="yes"/>
      <point x="84" y="21"/>
      <point x="78" y="10"/>
      <point x="28" y="10" type="curve" smooth="yes"/>
      <point x="27" y="10" type="line"/>
    </contour>
  </outline>
</glyph>
<glyph name="P" format="2">
  <advance width="347"/>
  <unicode hex="0050"/>
  <anchor x="96" y="0" name="bottom"/>
  <anchor x="174" y="714" name="top"/>
  <anchor x="335" y="714" name="topright"/>
  <outline>
    <contour>
      <point x="27" y="0" type="line"/>
      <point x="175" y="0" type="line"/>
      <point x="175" y="10" type="line"/>
      <point x="166" y="10" type="line" smooth="yes"/>
      <point x="116" y="10"/>
      <point x="110" y="21"/>
      <point x="110" y="98" type="curve" smooth="yes"/>
      <point x="110" y="279" type="line"/>
      <point x="160" y="279" type="line" smooth="yes"/>
      <point x="280" y="279"/>
      <point x="314" y="410"/>
      <point x="314" y="509" type="curve" smooth="yes"/>
      <point x="314" y="652"/>
      <point x="266" y="714"/>
      <point x="162" y="714" type="curve" smooth="yes"/>
      <point x="27" y="714" type="line"/>
      <point x="27" y="704" type="line"/>
      <point x="26" y="704" type="line" smooth="yes"/>
      <point x="76" y="704"/>
      <point x="82" y="693"/>
      <point x="82" y="616" type="curve" smooth="yes"/>
      <point x="82" y="100" type="line" smooth="yes"/>
      <point x="82" y="21"/>
      <point x="76" y="10"/>
      <point x="26" y="10" type="curve" smooth="yes"/>
      <point x="27" y="10" type="line"/>
    </contour>
    <contour>
      <point x="110" y="289" type="line"/>
      <point x="110" y="704" type="line"/>
      <point x="162" y="704" type="line" smooth="yes"/>
      <point x="255" y="704"/>
      <point x="286" y="647"/>
      <point x="286" y="509" type="curve" smooth="yes"/>
      <point x="286" y="408"/>
      <point x="263" y="289"/>
      <point x="166" y="289" type="curve" smooth="yes"/>
    </contour>
  </outline>
</glyph>
<glyph name="U" format="2">
  <advance width="414"/>
  <unicode hex="0055"/>
  <anchor x="207" y="0" name="bottom"/>
  <anchor x="207" y="714" name="top"/>
  <anchor x="422" y="714" name="topright"/>
  <outline>
    <contour>
      <point x="206" y="-10" type="curve" smooth="yes"/>
      <point x="316" y="-10"/>
      <point x="340" y="79"/>
      <point x="340" y="201" type="curve" smooth="yes"/>
      <point x="340" y="618" type="line" smooth="yes"/>
      <point x="340" y="693"/>
      <point x="346" y="704"/>
      <point x="396" y="704" type="curve" smooth="yes"/>
      <point x="412" y="704" type="line"/>
      <point x="412" y="714" type="line"/>
      <point x="245" y="714" type="line"/>
      <point x="245" y="704" type="line"/>
      <point x="274" y="704" type="line" smooth="yes"/>
      <point x="324" y="704"/>
      <point x="330" y="693"/>
      <point x="330" y="618" type="curve" smooth="yes"/>
      <point x="330" y="207" type="line" smooth="yes"/>
      <point x="330" y="110"/>
      <point x="334" y="5"/>
      <point x="207" y="5" type="curve" smooth="yes"/>
      <point x="139" y="5"/>
      <point x="93" y="58"/>
      <point x="93" y="210" type="curve" smooth="yes"/>
      <point x="93" y="616" type="line" smooth="yes"/>
      <point x="93" y="695"/>
      <point x="101" y="704"/>
      <point x="149" y="704" type="curve" smooth="yes"/>
      <point x="159" y="704" type="line"/>
      <point x="159" y="714" type="line"/>
      <point x="8" y="714" type="line"/>
      <point x="8" y="704" type="line"/>
      <point x="9" y="704" type="line" smooth="yes"/>
      <point x="59" y="704"/>
      <point x="65" y="693"/>
      <point x="65" y="621" type="curve" smooth="yes"/>
      <point x="65" y="214" type="line" smooth="yes"/>
      <point x="65" y="53"/>
      <point x="120" y="-10"/>
    </contour>
  </outline>
</glyph>
<glyph name="V" format="2">
  <advance width="393"/>
  <unicode hex="0056"/>
  <anchor x="196" y="0" name="bottom"/>
  <anchor x="196" y="714" name="top"/>
  <anchor x="427" y="714" name="topright"/>
  <outline>
    <contour>
      <point x="199" y="0" type="line"/>
      <point x="210" y="0" type="line"/>
      <point x="329" y="656" type="line" smooth="yes"/>
      <point x="337" y="702"/>
      <point x="348" y="704"/>
      <point x="386" y="704" type="curve" smooth="yes"/>
      <point x="406" y="704" type="line"/>
      <point x="406" y="714" type="line"/>
      <point x="246" y="714" type="line"/>
      <point x="246" y="704" type="line"/>
      <point x="262" y="704" type="line" smooth="yes"/>
      <point x="311" y="704"/>
      <point x="316" y="695"/>
      <point x="316" y="676" type="curve" smooth="yes"/>
      <point x="316" y="653"/>
      <point x="320" y="641"/>
      <point x="304" y="574" type="curve" smooth="yes"/>
      <point x="246" y="251" type="line" smooth="yes"/>
      <point x="229" y="157"/>
      <point x="223" y="130"/>
      <point x="212" y="61" type="curve"/>
      <point x="198" y="126"/>
      <point x="200" y="125"/>
      <point x="179" y="219" type="curve" smooth="yes"/>
      <point x="99" y="577" type="line" smooth="yes"/>
      <point x="86" y="628"/>
      <point x="85" y="656"/>
      <point x="85" y="679" type="curve" smooth="yes"/>
      <point x="85" y="698"/>
      <point x="90" y="704"/>
      <point x="140" y="704" type="curve" smooth="yes"/>
      <point x="137" y="704" type="line"/>
      <point x="137" y="714" type="line"/>
      <point x="0" y="714" type="line"/>
      <point x="0" y="704" type="line"/>
      <point x="-1" y="704" type="line" smooth="yes"/>
      <point x="35" y="704"/>
      <point x="44" y="700"/>
      <point x="54" y="656" type="curve" smooth="yes"/>
    </contour>
  </outline>
</glyph>
<glyph name="e" format="2">
  <advance width="306"/>
  <unicode hex="0065"/>
  <anchor x="163" y="0" name="bottom"/>
  <anchor x="163" y="536" name="top"/>
  <anchor x="286" y="536" name="topright"/>
  <outline>
    <contour>
      <point x="166" y="-10" type="curve" smooth="yes"/>
      <point x="222" y="-10"/>
      <point x="255" y="43"/>
      <point x="255" y="75" type="curve" smooth="yes"/>
      <point x="255" y="86"/>
      <point x="250" y="94"/>
      <point x="238" y="96" type="curve"/>
      <point x="235" y="44"/>
      <point x="210" y="0"/>
      <point x="164" y="0" type="curve" smooth="yes"/>
      <point x="100" y="0"/>
      <point x="66" y="78"/>
      <point x="65" y="278" type="curve"/>
      <point x="270" y="278" type="line"/>
      <point x="270" y="292" type="line" smooth="yes"/>
      <point x="270" y="443"/>
      <point x="237" y="542"/>
      <point x="157" y="542" type="curve" smooth="yes"/>
      <point x="81" y="542"/>
      <point x="37" y="449"/>
      <point x="37" y="262" type="curve" smooth="yes"/>
      <point x="37" y="90"/>
      <point x="85" y="-10"/>
    </contour>
    <contour>
      <point x="64" y="288" type="line"/>
      <point x="66" y="455"/>
      <point x="102" y="532"/>
      <point x="158" y="532" type="curve" smooth="yes"/>
      <point x="224" y="532"/>
      <point x="239" y="450"/>
      <point x="242" y="288" type="curve"/>
    </contour>
  </outline>
</glyph>
<glyph name="h" format="2">
  <advance width="365"/>
  <unicode hex="0068"/>
  <anchor x="183" y="0" name="bottom"/>
  <anchor x="183" y="268" name="center"/>
  <anchor x="183" y="760" name="top"/>
  <anchor x="305" y="760" name="topright"/>
  <outline>
    <contour>
      <point x="9" y="0" type="line"/>
      <point x="150" y="0" type="line"/>
      <point x="150" y="10" type="line"/>
      <point x="155" y="10" type="line" smooth="yes"/>
      <point x="103" y="10"/>
      <point x="96" y="17"/>
      <point x="96" y="87" type="curve" smooth="yes"/>
      <point x="96" y="332" type="line" smooth="yes"/>
      <point x="96" y="474"/>
      <point x="120" y="527"/>
      <point x="179" y="527" type="curve" smooth="yes"/>
      <point x="247" y="527"/>
      <point x="265" y="468"/>
      <point x="265" y="367" type="curve" smooth="yes"/>
      <point x="265" y="0" type="line"/>
      <point x="346" y="0" type="line"/>
      <point x="346" y="10" type="line"/>
      <point x="344" y="10" type="line" smooth="yes"/>
      <point x="299" y="10"/>
      <point x="293" y="22"/>
      <point x="293" y="84" type="curve" smooth="yes"/>
      <point x="293" y="365" type="line" smooth="yes"/>
      <point x="293" y="477"/>
      <point x="251" y="542"/>
      <point x="189" y="542" type="curve" smooth="yes"/>
      <point x="139" y="542"/>
      <point x="104" y="504"/>
      <point x="97" y="449" type="curve"/>
      <point x="95" y="449" type="line"/>
      <point x="96" y="506"/>
      <point x="96" y="495"/>
      <point x="96" y="504" type="curve" smooth="yes"/>
      <point x="96" y="760" type="line"/>
      <point x="8" y="760" type="line"/>
      <point x="8" y="750" type="line"/>
      <point x="18" y="750" type="line" smooth="yes"/>
      <point x="61" y="750"/>
      <point x="68" y="738"/>
      <point x="68" y="675" type="curve" smooth="yes"/>
      <point x="68" y="87" type="line" smooth="yes"/>
      <point x="68" y="17"/>
      <point x="61" y="10"/>
      <point x="8" y="10" type="curve" smooth="yes"/>
      <point x="9" y="10" type="line"/>
    </contour>
  </outline>
</glyph>
<glyph name="l" format="2">
  <advance width="168"/>
  <unicode hex="006C"/>
  <anchor x="85" y="0" name="bottom"/>
  <anchor x="85" y="268" name="center"/>
  <anchor x="85" y="760" name="top"/>
  <anchor x="164" y="760" name="topright"/>
  <outline>
    <contour>
      <point x="7" y="0" type="line"/>
      <point x="161" y="0" type="line"/>
      <point x="161" y="10" type="line"/>
      <point x="173" y="10" type="line" smooth="yes"/>
      <point x="101" y="10"/>
      <point x="97" y="14"/>
      <point x="97" y="84" type="curve" smooth="yes"/>
      <point x="97" y="760" type="line"/>
      <point x="7" y="760" type="line"/>
      <point x="7" y="750" type="line"/>
      <point x="2" y="750" type="line" smooth="yes"/>
      <point x="62" y="750"/>
      <point x="69" y="746"/>
      <point x="69" y="672" type="curve" smooth="yes"/>
      <point x="69" y="84" type="line" smooth="yes"/>
      <point x="69" y="14"/>
      <point x="65" y="10"/>
      <point x="-8" y="10" type="curve" smooth="yes"/>
      <point x="7" y="10" type="line"/>
    </contour>
  </outline>
</glyph>
<glyph name="w" format="2">
  <advance width="517"/>
  <unicode hex="0077"/>
  <anchor x="258" y="0" name="bottom"/>
  <anchor x="258" y="536" name="top"/>
  <anchor x="507" y="536" name="topright"/>
  <outline>
    <contour>
      <point x="139" y="0" type="line"/>
      <point x="161" y="0" type="line"/>
      <point x="256" y="516" type="line"/>
      <point x="373" y="0" type="line"/>
      <point x="394" y="0" type="line"/>
      <point x="458" y="477" type="line" smooth="yes"/>
      <point x="465" y="525"/>
      <point x="475" y="526"/>
      <point x="516" y="526" type="curve" smooth="yes"/>
      <point x="535" y="526" type="line"/>
      <point x="535" y="536" type="line"/>
      <point x="404" y="536" type="line"/>
      <point x="404" y="526" type="line"/>
      <point x="416" y="526" type="line" smooth="yes"/>
      <point x="445" y="526"/>
      <point x="449" y="519"/>
      <point x="449" y="506" type="curve" smooth="yes"/>
      <point x="449" y="496"/>
      <point x="448" y="473"/>
      <point x="442" y="438" type="curve" smooth="yes"/>
      <point x="412" y="210" type="line" smooth="yes"/>
      <point x="401" y="124"/>
      <point x="396" y="76"/>
      <point x="391" y="36" type="curve"/>
      <point x="389" y="36" type="line"/>
      <point x="383" y="78"/>
      <point x="369" y="168"/>
      <point x="357" y="220" type="curve" smooth="yes"/>
      <point x="281" y="536" type="line"/>
      <point x="249" y="536" type="line"/>
      <point x="192" y="208" type="line" smooth="yes"/>
      <point x="183" y="159"/>
      <point x="164" y="64"/>
      <point x="158" y="30" type="curve"/>
      <point x="156" y="30" type="line"/>
      <point x="153" y="65"/>
      <point x="138" y="149"/>
      <point x="129" y="195" type="curve" smooth="yes"/>
      <point x="79" y="435" type="line" smooth="yes"/>
      <point x="75" y="460"/>
      <point x="69" y="498"/>
      <point x="69" y="506" type="curve" smooth="yes"/>
      <point x="69" y="519"/>
      <point x="73" y="526"/>
      <point x="107" y="526" type="curve" smooth="yes"/>
      <point x="124" y="526" type="line"/>
      <point x="124" y="536" type="line"/>
      <point x="4" y="536" type="line"/>
      <point x="4" y="526" type="line"/>
      <point x="-8" y="526" type="line" smooth="yes"/>
      <point x="28" y="526"/>
      <point x="36" y="522"/>
      <point x="46" y="473" type="curve" smooth="yes"/>
    </contour>
  </outline>
</glyph>
<glyph name="braceright" format="2">
  <advance width="250"/>
  <unicode hex="007D"/>
  <outline>
    <contour>
      <point x="38" y="-132" type="line"/>
      <point x="53" y="-132" type="line" smooth="yes"/>
      <point x="113" y="-132"/>
      <point x="136" y="-76"/>
      <point x="136" y="8" type="curve" smooth="yes"/>
      <point x="136" y="186" type="line" smooth="yes"/>
      <point x="136" y="247"/>
      <point x="163" y="306"/>
      <point x="211" y="310" type="curve"/>
      <point x="211" y="320" type="line"/>
      <point x="193" y="321"/>
      <point x="136" y="358"/>
      <point x="136" y="445" type="curve" smooth="yes"/>
      <point x="136" y="621" type="line" smooth="yes"/>
      <point x="136" y="710"/>
      <point x="113" y="760"/>
      <point x="56" y="760" type="curve" smooth="yes"/>
      <point x="38" y="760" type="line"/>
      <point x="38" y="750" type="line"/>
      <point x="48" y="750" type="line" smooth="yes"/>
      <point x="93" y="750"/>
      <point x="108" y="707"/>
      <point x="108" y="610" type="curve" smooth="yes"/>
      <point x="108" y="443" type="line" smooth="yes"/>
      <point x="108" y="373"/>
      <point x="122" y="336"/>
      <point x="186" y="318" type="curve"/>
      <point x="186" y="316" type="line"/>
      <point x="130" y="301"/>
      <point x="108" y="256"/>
      <point x="108" y="189" type="curve" smooth="yes"/>
      <point x="108" y="18" type="line" smooth="yes"/>
      <point x="108" y="-86"/>
      <point x="88" y="-122"/>
      <point x="44" y="-122" type="curve" smooth="yes"/>
      <point x="38" y="-122" type="line"/>
    </contour>
  </outline>
</glyph>
<glyph name="section" format="2">
  <advance width="316"/>
  <unicode hex="00A7"/>
  <outline>
    <contour>
      <point x="178" y="-116" type="curve" smooth="yes"/>
      <point x="249" y="-116"/>
      <point x="278" y="-63"/>
      <point x="278" y="39" type="curve" smooth="yes"/>
      <point x="278" y="80"/>
      <point x="271" y="113"/>
      <point x="249" y="146" type="curve"/>
      <point x="259" y="172"/>
      <point x="286" y="212"/>
      <point x="291" y="272" type="curve" smooth="yes"/>
      <point x="299" y="345"/>
      <point x="249" y="392"/>
      <point x="200" y="441" type="curve" smooth="yes"/>
      <point x="134" y="499"/>
      <point x="90" y="518"/>
      <point x="90" y="625" type="curve" smooth="yes"/>
      <point x="90" y="710"/>
      <point x="117" y="750"/>
      <point x="175" y="750" type="curve" smooth="yes"/>
      <point x="246" y="750"/>
      <point x="230" y="700"/>
      <point x="230" y="621" type="curve"/>
      <point x="242" y="621"/>
      <point x="260" y="630"/>
      <point x="260" y="669" type="curve" smooth="yes"/>
      <point x="260" y="728"/>
      <point x="228" y="760"/>
      <point x="174" y="760" type="curve" smooth="yes"/>
      <point x="93" y="760"/>
      <point x="62" y="696"/>
      <point x="62" y="626" type="curve" smooth="yes"/>
      <point x="62" y="566"/>
      <point x="83" y="521"/>
      <point x="93" y="504" type="curve"/>
      <point x="67" y="480"/>
      <point x="47" y="452"/>
      <point x="47" y="398" type="curve" smooth="yes"/>
      <point x="47" y="313"/>
      <point x="99" y="266"/>
      <point x="169" y="205" type="curve" smooth="yes"/>
      <point x="252" y="130"/>
      <point x="250" y="110"/>
      <point x="250" y="34" type="curve" smooth="yes"/>
      <point x="250" y="-44"/>
      <point x="240" y="-106"/>
      <point x="173" y="-106" type="curve" smooth="yes"/>
      <point x="123" y="-106"/>
      <point x="100" y="-48"/>
      <point x="100" y="40" type="curve"/>
      <point x="89" y="40"/>
      <point x="76" y="23"/>
      <point x="76" y="-13" type="curve" smooth="yes"/>
      <point x="76" y="-82"/>
      <point x="133" y="-116"/>
    </contour>
    <contour>
      <point x="245" y="154" type="curve"/>
      <point x="221" y="189"/>
      <point x="249" y="174"/>
      <point x="183" y="231" type="curve" smooth="yes"/>
      <point x="77" y="322"/>
      <point x="68" y="341"/>
      <point x="68" y="396" type="curve" smooth="yes"/>
      <point x="68" y="436"/>
      <point x="83" y="478"/>
      <point x="100" y="495" type="curve"/>
      <point x="127" y="455"/>
      <point x="163" y="436"/>
      <point x="178" y="419" type="curve" smooth="yes"/>
      <point x="245" y="362"/>
      <point x="269" y="308"/>
      <point x="269" y="264" type="curve" smooth="yes"/>
      <point x="269" y="220"/>
      <point x="252" y="161"/>
    </contour>
  </outline>
</glyph>
<glyph name="guillemotleft" format="2">
  <advance width="289"/>
  <unicode hex="00AB"/>
  <outline>
    <contour>
      <point x="244" y="90" type="line"/>
      <point x="253" y="90" type="line"/>
      <point x="175" y="270" type="line"/>
      <point x="253" y="450" type="line"/>
      <point x="244" y="450" type="line"/>
      <point x="141" y="274" type="line"/>
      <point x="141" y="266" type="line"/>
    </contour>
    <contour>
      <point x="156" y="90" type="line"/>
      <point x="167" y="90" type="line"/>
      <point x="89" y="270" type="line"/>
      <point x="167" y="450" type="line"/>
      <point x="156" y="450" type="line"/>
      <point x="55" y="274" type="line"/>
      <point x="55" y="266" type="line"/>
    </contour>
  </outline>
</glyph>
<glyph name="degree" format="2">
  <advance width="238"/>
  <unicode hex="00B0"/>
  <outline>
    <contour>
      <point x="121" y="454" type="curve" smooth="yes"/>
      <point x="176" y="454"/>
      <point x="206" y="503"/>
      <point x="206" y="589" type="curve" smooth="yes"/>
      <point x="206" y="676"/>
      <point x="176" y="724"/>
      <point x="121" y="724" type="curve" smooth="yes"/>
      <point x="65" y="724"/>
      <point x="36" y="676"/>
      <point x="36" y="589" type="curve" smooth="yes"/>
      <point x="36" y="503"/>
      <point x="65" y="454"/>
    </contour>
    <contour>
      <point x="123" y="474" type="curve" smooth="yes"/>
      <point x="79" y="474"/>
      <point x="56" y="515"/>
      <point x="56" y="591" type="curve" smooth="yes"/>
      <point x="56" y="663"/>
      <point x="78" y="704"/>
      <point x="123" y="704" type="curve" smooth="yes"/>
      <point x="165" y="704"/>
      <point x="186" y="663"/>
      <point x="186" y="591" type="curve" smooth="yes"/>
      <point x="186" y="515"/>
      <point x="164" y="474"/>
    </contour>
  </outline>
</glyph>
<glyph name="twosuperior" format="2">
  <advance width="238"/>
  <unicode hex="00B2"/>
  <outline>
    <contour>
      <point x="36" y="385" type="line"/>
      <point x="207" y="385" type="line"/>
      <point x="207" y="485" type="line"/>
      <point x="197" y="485" type="line"/>
      <point x="196" y="472" type="line" smooth="yes"/>
      <point x="193" y="435"/>
      <point x="187" y="416"/>
      <point x="181" y="416" type="curve" smooth="yes"/>
      <point x="52" y="416" type="line"/>
      <point x="119" y="533" type="line" smooth="yes"/>
      <point x="136" y="571"/>
      <point x="192" y="631"/>
      <point x="192" y="716" type="curve" smooth="yes"/>
      <point x="192" y="792"/>
      <point x="151" y="822"/>
      <point x="119" y="822" type="curve" smooth="yes"/>
      <point x="78" y="822"/>
      <point x="41" y="792"/>
      <point x="41" y="742" type="curve" smooth="yes"/>
      <point x="41" y="716"/>
      <point x="57" y="705"/>
      <point x="66" y="705" type="curve"/>
      <point x="66" y="786"/>
      <point x="82" y="812"/>
      <point x="117" y="812" type="curve" smooth="yes"/>
      <point x="153" y="812"/>
      <point x="164" y="780"/>
      <point x="164" y="725" type="curve" smooth="yes"/>
      <point x="164" y="646"/>
      <point x="125" y="588"/>
      <point x="106" y="541" type="curve" smooth="yes"/>
      <point x="36" y="398" type="line"/>
    </contour>
  </outline>
</glyph>
<glyph name="paragraph" format="2">
  <advance width="348"/>
  <unicode hex="00B6"/>
  <outline>
    <contour>
      <point x="98" y="-111" type="line"/>
      <point x="183" y="-111" type="line"/>
      <point x="183" y="750" type="line"/>
      <point x="225" y="750" type="line"/>
      <point x="225" y="-111" type="line"/>
      <point x="309" y="-111" type="line"/>
      <point x="309" y="-101" type="line"/>
      <point x="315" y="-101" type="line" smooth="yes"/>
      <point x="250" y="-101"/>
      <point x="253" y="-98"/>
      <point x="253" y="-20" type="curve" smooth="yes"/>
      <point x="253" y="671" type="line" smooth="yes"/>
      <point x="253" y="746"/>
      <point x="238" y="750"/>
      <point x="308" y="750" type="curve" smooth="yes"/>
      <point x="309" y="750" type="line"/>
      <point x="309" y="760" type="line"/>
      <point x="151" y="760" type="line" smooth="yes"/>
      <point x="44" y="760"/>
      <point x="21" y="689"/>
      <point x="21" y="582" type="curve" smooth="yes"/>
      <point x="21" y="478"/>
      <point x="42" y="386"/>
      <point x="149" y="386" type="curve" smooth="yes"/>
      <point x="155" y="386" type="line"/>
      <point x="155" y="-12" type="line" smooth="yes"/>
      <point x="155" y="-100"/>
      <point x="161" y="-101"/>
      <point x="88" y="-101" type="curve" smooth="yes"/>
      <point x="98" y="-101" type="line"/>
    </contour>
  </outline>
</glyph>
<glyph name="cedilla" format="2">
  <advance width="198"/>
  <unicode hex="00B8"/>
  <outline>
    <contour>
      <point x="78" y="-221" type="curve" smooth="yes"/>
      <point x="132" y="-221"/>
      <point x="155" y="-178"/>
      <point x="155" y="-135" type="curve" smooth="yes"/>
      <point x="155" y="-92"/>
      <point x="141" y="-58"/>
      <point x="90" y="-53" type="curve"/>
      <point x="102" y="7" type="line"/>
      <point x="92" y="7" type="line"/>
      <point x="80" y="-56" type="line"/>
      <point x="111" y="-57"/>
      <point x="124" y="-82"/>
      <point x="124" y="-134" type="curve" smooth="yes"/>
      <point x="124" y="-183"/>
      <point x="106" y="-211"/>
      <point x="75" y="-211" type="curve" smooth="yes"/>
      <point x="68" y="-211"/>
      <point x="53" y="-207"/>
      <point x="40" y="-201" type="curve"/>
      <point x="40" y="-211" type="line"/>
      <point x="53" y="-218"/>
      <point x="64" y="-221"/>
    </contour>
  </outline>
</glyph>
<glyph name="ordmasculine" format="2">
  <advance width="219"/>
  <unicode hex="00BA"/>
  <outline>
    <contour>
      <point x="109" y="380" type="curve" smooth="yes"/>
      <point x="169" y="380"/>
      <point x="187" y="436"/>
      <point x="187" y="550" type="curve" smooth="yes"/>
      <point x="187" y="661"/>
      <point x="170" y="718"/>
      <point x="111" y="718" type="curve" smooth="yes"/>
      <point x="52" y="718"/>
      <point x="33" y="664"/>
      <point x="33" y="550" type="curve" smooth="yes"/>
      <point x="33" y="438"/>
      <point x="47" y="380"/>
    </contour>
    <contour>
      <point x="111" y="390" type="curve" smooth="yes"/>
      <point x="70" y="390"/>
      <point x="63" y="431"/>
      <point x="63" y="550" type="curve" smooth="yes"/>
      <point x="63" y="670"/>
      <point x="70" y="708"/>
      <point x="110" y="708" type="curve" smooth="yes"/>
      <point x="148" y="708"/>
      <point x="157" y="670"/>
      <point x="157" y="550" type="curve" smooth="yes"/>
      <point x="157" y="431"/>
      <point x="149" y="390"/>
    </contour>
  </outline>
</glyph>
<glyph name="AE" format="2">
  <advance width="562"/>
  <unicode hex="00C6"/>
  <anchor x="287" y="0" name="bottom"/>
  <anchor x="287" y="714" name="top"/>
  <outline>
    <contour>
      <point x="-1" y="0" type="line"/>
      <point x="159" y="0" type="line"/>
      <point x="159" y="10" type="line"/>
      <point x="137" y="10" type="line" smooth="yes"/>
      <point x="100" y="10"/>
      <point x="89" y="21"/>
      <point x="89" y="36" type="curve" smooth="yes"/>
      <point x="89" y="57"/>
      <point x="96" y="79"/>
      <point x="113" y="128" type="curve" smooth="yes"/>
      <point x="147" y="249" type="line"/>
      <point x="286" y="249" type="line"/>
      <point x="286" y="86" type="line" smooth="yes"/>
      <point x="286" y="21"/>
      <point x="278" y="10"/>
      <point x="232" y="10" type="curve" smooth="yes"/>
      <point x="230" y="10" type="line"/>
      <point x="230" y="0" type="line"/>
      <point x="531" y="0" type="line"/>
      <point x="533" y="165" type="line"/>
      <point x="523" y="165" type="line"/>
      <point x="520" y="89" type="line" smooth="yes"/>
      <point x="517" y="30"/>
      <point x="519" y="10"/>
      <point x="465" y="10" type="curve" smooth="yes"/>
      <point x="311" y="10" type="line"/>
      <point x="314" y="382" type="line"/>
      <point x="468" y="382" type="line"/>
      <point x="468" y="392" type="line"/>
      <point x="314" y="392" type="line"/>
      <point x="314" y="704" type="line"/>
      <point x="412" y="704" type="line" smooth="yes"/>
      <point x="500" y="704"/>
      <point x="501" y="698"/>
      <point x="504" y="590" type="curve" smooth="yes"/>
      <point x="504" y="549" type="line"/>
      <point x="514" y="549" type="line"/>
      <point x="510" y="714" type="line"/>
      <point x="203" y="714" type="line"/>
      <point x="203" y="704" type="line"/>
      <point x="283" y="704" type="line"/>
      <point x="106" y="130" type="line" smooth="yes"/>
      <point x="66" y="17"/>
      <point x="71" y="10"/>
      <point x="25" y="10" type="curve" smooth="yes"/>
      <point x="-1" y="10" type="line"/>
    </contour>
    <contour>
      <point x="151" y="259" type="line"/>
      <point x="294" y="704" type="line"/>
      <point x="286" y="704" type="line"/>
      <point x="286" y="259" type="line"/>
    </contour>
  </outline>
</glyph>
<glyph name="multiply" format="2">
  <advance width="336"/>
  <unicode hex="00D7"/>
  <outline>
    <contour>
      <point x="67" y="158" type="line"/>
      <point x="178" y="350" type="line"/>
      <point x="290" y="158" type="line"/>
      <point x="308" y="169" type="line"/>
      <point x="191" y="369" type="line"/>
      <point x="308" y="567" type="line"/>
      <point x="290" y="577" type="line"/>
      <point x="178" y="386" type="line"/>
      <point x="67" y="577" type="line"/>
      <point x="50" y="567" type="line"/>
      <point x="166" y="369" type="line"/>
      <point x="50" y="169" type="line"/>
    </contour>
  </outline>
</glyph>
<glyph name="Thorn" format="2">
  <advance width="349"/>
  <unicode hex="00DE"/>
  <anchor x="174" y="0" name="bottom"/>
  <anchor x="174" y="714" name="top"/>
  <outline>
    <contour>
      <point x="27" y="0" type="line"/>
      <point x="165" y="0" type="line"/>
      <point x="165" y="10" type="line"/>
      <point x="171" y="10" type="line" smooth="yes"/>
      <point x="122" y="10"/>
      <point x="115" y="21"/>
      <point x="115" y="98" type="curve" smooth="yes"/>
      <point x="115" y="163" type="line"/>
      <point x="152" y="163" type="line" smooth="yes"/>
      <point x="254" y="163"/>
      <point x="321" y="182"/>
      <point x="321" y="360" type="curve" smooth="yes"/>
      <point x="321" y="512"/>
      <point x="274" y="562"/>
      <point x="166" y="562" type="curve" smooth="yes"/>
      <point x="115" y="562" type="line"/>
      <point x="115" y="617" type="line" smooth="yes"/>
      <point x="115" y="693"/>
      <point x="122" y="704"/>
      <point x="170" y="704" type="curve" smooth="yes"/>
      <point x="178" y="704" type="line"/>
      <point x="178" y="714" type="line"/>
      <point x="27" y="714" type="line"/>
      <point x="27" y="704" type="line"/>
      <point x="30" y="704" type="line" smooth="yes"/>
      <point x="82" y="704"/>
      <point x="87" y="693"/>
      <point x="87" y="617" type="curve" smooth="yes"/>
      <point x="87" y="98" type="line" smooth="yes"/>
      <point x="87" y="21"/>
      <point x="82" y="10"/>
      <point x="30" y="10" type="curve" smooth="yes"/>
      <point x="27" y="10" type="line"/>
    </contour>
    <contour>
      <point x="115" y="173" type="line"/>
      <point x="115" y="552" type="line"/>
      <point x="162" y="552" type="line" smooth="yes"/>
      <point x="260" y="552"/>
      <point x="293" y="513"/>
      <point x="293" y="354" type="curve" smooth="yes"/>
      <point x="293" y="185"/>
      <point x="241" y="173"/>
      <point x="156" y="173" type="curve" smooth="yes"/>
    </contour>
  </outline>
</glyph>
<glyph name="eth" format="2">
  <advance width="329"/>
  <unicode hex="00F0"/>
  <anchor x="164" y="0" name="bottom"/>
  <anchor x="164" y="763" name="top"/>
  <outline>
    <contour>
      <point x="167" y="-10" type="curve" smooth="yes"/>
      <point x="248" y="-10"/>
      <point x="293" y="50"/>
      <point x="293" y="289" type="curve" smooth="yes"/>
      <point x="293" y="423"/>
      <point x="269" y="557"/>
      <point x="198" y="657" type="curve"/>
      <point x="271" y="741" type="line"/>
      <point x="271" y="753" type="line"/>
      <point x="194" y="666" type="line"/>
      <point x="165" y="702"/>
      <point x="134" y="735"/>
      <point x="93" y="761" type="curve"/>
      <point x="93" y="749" type="line"/>
      <point x="128" y="725"/>
      <point x="160" y="692"/>
      <point x="182" y="654" type="curve"/>
      <point x="117" y="579" type="line"/>
      <point x="117" y="565" type="line"/>
      <point x="189" y="647" type="line"/>
      <point x="225" y="582"/>
      <point x="251" y="499"/>
      <point x="260" y="403" type="curve"/>
      <point x="236" y="474"/>
      <point x="213" y="492"/>
      <point x="157" y="492" type="curve" smooth="yes"/>
      <point x="72" y="492"/>
      <point x="37" y="413"/>
      <point x="37" y="233" type="curve" smooth="yes"/>
      <point x="37" y="60"/>
      <point x="84" y="-10"/>
    </contour>
    <contour>
      <point x="167" y="0" type="curve" smooth="yes"/>
      <point x="94" y="0"/>
      <point x="66" y="69"/>
      <point x="66" y="236" type="curve" smooth="yes"/>
      <point x="66" y="406"/>
      <point x="92" y="482"/>
      <point x="166" y="482" type="curve" smooth="yes"/>
      <point x="237" y="482"/>
      <point x="263" y="423"/>
      <point x="263" y="236" type="curve" smooth="yes"/>
      <point x="263" y="73"/>
      <point x="236" y="0"/>
    </contour>
  </outline>
</glyph>
<glyph name="Eng" format="2">
  <advance width="444"/>
  <unicode hex="014A"/>
  <anchor x="233" y="-240" name="bottom"/>
  <anchor x="233" y="714" name="top"/>
  <outline>
    <contour>
      <point x="277" y="-240" type="line"/>
      <point x="273" y="-240" type="line" smooth="yes"/>
      <point x="356" y="-240"/>
      <point x="375" y="-188"/>
      <point x="375" y="-15" type="curve" smooth="yes"/>
      <point x="375" y="616" type="line" smooth="yes"/>
      <point x="375" y="693"/>
      <point x="382" y="704"/>
      <point x="429" y="704" type="curve" smooth="yes"/>
      <point x="446" y="704" type="line"/>
      <point x="446" y="714" type="line"/>
      <point x="277" y="714" type="line"/>
      <point x="277" y="704" type="line"/>
      <point x="309" y="704" type="line" smooth="yes"/>
      <point x="359" y="704"/>
      <point x="365" y="693"/>
      <point x="365" y="617" type="curve" smooth="yes"/>
      <point x="365" y="70" type="line"/>
      <point x="115" y="714" type="line"/>
      <point x="27" y="714" type="line"/>
      <point x="27" y="704" type="line"/>
      <point x="39" y="704" type="line" smooth="yes"/>
      <point x="92" y="704"/>
      <point x="97" y="693"/>
      <point x="97" y="615" type="curve" smooth="yes"/>
      <point x="97" y="98" type="line" smooth="yes"/>
      <point x="97" y="21"/>
      <point x="92" y="10"/>
      <point x="40" y="10" type="curve" smooth="yes"/>
      <point x="27" y="10" type="line"/>
      <point x="27" y="0" type="line"/>
      <point x="194" y="0" type="line"/>
      <point x="194" y="10" type="line"/>
      <point x="171" y="10" type="line" smooth="yes"/>
      <point x="111" y="10"/>
      <point x="107" y="21"/>
      <point x="107" y="98" type="curve" smooth="yes"/>
      <point x="107" y="658" type="line"/>
      <point x="365" y="-1" type="line"/>
      <point x="365" y="-11" type="line" smooth="yes"/>
      <point x="365" y="-180"/>
      <point x="347" y="-230"/>
      <point x="275" y="-230" type="curve" smooth="yes"/>
      <point x="277" y="-230" type="line"/>
    </contour>
  </outline>
</glyph>
<glyph name="eng" format="2">
  <advance width="359"/>
  <unicode hex="014B"/>
  <anchor x="197" y="-240" name="bottom"/>
  <anchor x="197" y="536" name="top"/>
  <outline>
    <contour>
      <point x="220" y="-240" type="line"/>
      <point x="223" y="-240" type="line" smooth="yes"/>
      <point x="267" y="-240"/>
      <point x="303" y="-217"/>
      <point x="303" y="-28" type="curve" smooth="yes"/>
      <point x="303" y="367" type="line" smooth="yes"/>
      <point x="303" y="489"/>
      <point x="274" y="542"/>
      <point x="200" y="542" type="curve" smooth="yes"/>
      <point x="146" y="542"/>
      <point x="121" y="494"/>
      <point x="109" y="437" type="curve"/>
      <point x="107" y="437" type="line"/>
      <point x="107" y="536" type="line"/>
      <point x="23" y="536" type="line"/>
      <point x="23" y="526" type="line"/>
      <point x="11" y="526" type="line" smooth="yes"/>
      <point x="75" y="526"/>
      <point x="80" y="521"/>
      <point x="80" y="450" type="curve" smooth="yes"/>
      <point x="80" y="87" type="line" smooth="yes"/>
      <point x="80" y="17"/>
      <point x="73" y="10"/>
      <point x="17" y="10" type="curve" smooth="yes"/>
      <point x="21" y="10" type="line"/>
      <point x="21" y="0" type="line"/>
      <point x="166" y="0" type="line"/>
      <point x="166" y="10" type="line"/>
      <point x="167" y="10" type="line" smooth="yes"/>
      <point x="115" y="10"/>
      <point x="108" y="17"/>
      <point x="108" y="87" type="curve" smooth="yes"/>
      <point x="108" y="332" type="line" smooth="yes"/>
      <point x="108" y="506"/>
      <point x="175" y="527"/>
      <point x="200" y="527" type="curve" smooth="yes"/>
      <point x="254" y="527"/>
      <point x="275" y="469"/>
      <point x="275" y="363" type="curve" smooth="yes"/>
      <point x="275" y="-28" type="line" smooth="yes"/>
      <point x="275" y="-190"/>
      <point x="257" y="-230"/>
      <point x="221" y="-230" type="curve" smooth="yes"/>
      <point x="220" y="-230" type="line"/>
    </contour>
  </outline>
</glyph>
<glyph name="oe" format="2">
  <advance width="533"/>
  <unicode hex="0153"/>
  <anchor x="267" y="0" name="bottom"/>
  <anchor x="267" y="536" name="top"/>
  <outline>
    <contour>
      <point x="165" y="-10" type="curve" smooth="yes"/>
      <point x="219" y="-10"/>
      <point x="259" y="25"/>
      <point x="280" y="121" type="curve"/>
      <point x="304" y="34"/>
      <point x="338" y="-10"/>
      <point x="392" y="-10" type="curve" smooth="yes"/>
      <point x="449" y="-10"/>
      <point x="482" y="43"/>
      <point x="482" y="73" type="curve" smooth="yes"/>
      <point x="482" y="86"/>
      <point x="476" y="92"/>
      <point x="470" y="95" type="curve"/>
      <point x="459" y="36"/>
      <point x="429" y="0"/>
      <point x="391" y="0" type="curve" smooth="yes"/>
      <point x="335" y="0"/>
      <point x="290" y="71"/>
      <point x="290" y="273" type="curve"/>
      <point x="497" y="273" type="line"/>
      <point x="497" y="297" type="line" smooth="yes"/>
      <point x="497" y="465"/>
      <point x="453" y="542"/>
      <point x="384" y="542" type="curve" smooth="yes"/>
      <point x="340" y="542"/>
      <point x="299" y="508"/>
      <point x="278" y="406" type="curve"/>
      <point x="259" y="506"/>
      <point x="216" y="542"/>
      <point x="165" y="542" type="curve" smooth="yes"/>
      <point x="77" y="542"/>
      <point x="37" y="457"/>
      <point x="37" y="267" type="curve" smooth="yes"/>
      <point x="37" y="81"/>
      <point x="78" y="-10"/>
    </contour>
    <contour>
      <point x="167" y="0" type="curve" smooth="yes"/>
      <point x="89" y="0"/>
      <point x="64" y="83"/>
      <point x="65" y="267" type="curve" smooth="yes"/>
      <point x="65" y="449"/>
      <point x="89" y="532"/>
      <point x="162" y="532" type="curve" smooth="yes"/>
      <point x="241" y="532"/>
      <point x="265" y="446"/>
      <point x="265" y="267" type="curve" smooth="yes"/>
      <point x="265" y="78"/>
      <point x="236" y="0"/>
    </contour>
    <contour>
      <point x="291" y="283" type="line"/>
      <point x="291" y="455"/>
      <point x="336" y="532"/>
      <point x="382" y="532" type="curve" smooth="yes"/>
      <point x="456" y="532"/>
      <point x="467" y="431"/>
      <point x="469" y="283" type="curve"/>
    </contour>
  </outline>
</glyph>
<glyph name="Tbar" format="2">
  <advance width="351"/>
  <unicode hex="0166"/>
  <anchor x="175" y="0" name="bottom"/>
  <anchor x="175" y="714" name="top"/>
  <outline>
    <contour>
      <point x="91" y="0" type="line"/>
      <point x="256" y="0" type="line"/>
      <point x="256" y="10" type="line"/>
      <point x="244" y="10" type="line" smooth="yes"/>
      <point x="194" y="10"/>
      <point x="188" y="21"/>
      <point x="188" y="98" type="curve" smooth="yes"/>
      <point x="188" y="347" type="line"/>
      <point x="299" y="347" type="line"/>
      <point x="299" y="357" type="line"/>
      <point x="188" y="357" type="line"/>
      <point x="188" y="707" type="line"/>
      <point x="263" y="707" type="line" smooth="yes"/>
      <point x="315" y="707"/>
      <point x="321" y="693"/>
      <point x="323" y="638" type="curve" smooth="yes"/>
      <point x="324" y="563" type="line"/>
      <point x="334" y="563" type="line"/>
      <point x="331" y="714" type="line"/>
      <point x="20" y="714" type="line"/>
      <point x="17" y="563" type="line"/>
      <point x="27" y="563" type="line"/>
      <point x="28" y="638" type="line" smooth="yes"/>
      <point x="30" y="693"/>
      <point x="36" y="707"/>
      <point x="88" y="707" type="curve" smooth="yes"/>
      <point x="160" y="707" type="line"/>
      <point x="160" y="357" type="line"/>
      <point x="50" y="357" type="line"/>
      <point x="50" y="347" type="line"/>
      <point x="160" y="347" type="line"/>
      <point x="160" y="98" type="line" smooth="yes"/>
      <point x="160" y="21"/>
      <point x="154" y="10"/>
      <point x="104" y="10" type="curve" smooth="yes"/>
      <point x="91" y="10" type="line"/>
    </contour>
  </outline>
</glyph>
<glyph name="uni0191" format="2">
  <advance width="338"/>
  <unicode hex="0191"/>
  <anchor x="170" y="-240" name="bottom"/>
  <anchor x="170" y="714" name="top"/>
  <outline>
    <contour>
      <point x="5" y="-240" type="line"/>
      <point x="6" y="-240" type="line" smooth="yes"/>
      <point x="85" y="-240"/>
      <point x="110" y="-179"/>
      <point x="110" y="-35" type="curve" smooth="yes"/>
      <point x="110" y="346" type="line"/>
      <point x="265" y="346" type="line"/>
      <point x="265" y="356" type="line"/>
      <point x="110" y="356" type="line"/>
      <point x="110" y="704" type="line"/>
      <point x="236" y="704" type="line" smooth="yes"/>
      <point x="285" y="704"/>
      <point x="295" y="694"/>
      <point x="297" y="644" type="curve" smooth="yes"/>
      <point x="300" y="551" type="line"/>
      <point x="310" y="551" type="line"/>
      <point x="305" y="714" type="line"/>
      <point x="27" y="714" type="line"/>
      <point x="27" y="704" type="line"/>
      <point x="27" y="704" type="line" smooth="yes"/>
      <point x="76" y="704"/>
      <point x="82" y="693"/>
      <point x="82" y="616" type="curve" smooth="yes"/>
      <point x="82" y="-32" type="line" smooth="yes"/>
      <point x="82" y="-201"/>
      <point x="55" y="-230"/>
      <point x="3" y="-230" type="curve" smooth="yes"/>
      <point x="5" y="-230" type="line"/>
    </contour>
  </outline>
</glyph>
<glyph name="uni01A7" format="2">
  <advance width="302"/>
  <unicode hex="01A7"/>
  <anchor x="152" y="0" name="bottom"/>
  <anchor x="152" y="714" name="top"/>
  <outline>
    <contour>
      <point x="168" y="-10" type="curve" smooth="yes"/>
      <point x="240" y="-10"/>
      <point x="277" y="39"/>
      <point x="277" y="81" type="curve" smooth="yes"/>
      <point x="277" y="91"/>
      <point x="275" y="101"/>
      <point x="266" y="107" type="curve"/>
      <point x="247" y="34"/>
      <point x="217" y="0"/>
      <point x="169" y="0" type="curve" smooth="yes"/>
      <point x="105" y="0"/>
      <point x="68" y="43"/>
      <point x="68" y="160" type="curve" smooth="yes"/>
      <point x="68" y="265"/>
      <point x="101" y="292"/>
      <point x="169" y="352" type="curve" smooth="yes"/>
      <point x="208" y="391"/>
      <point x="263" y="437"/>
      <point x="263" y="564" type="curve" smooth="yes"/>
      <point x="263" y="650"/>
      <point x="225" y="724"/>
      <point x="144" y="724" type="curve" smooth="yes"/>
      <point x="78" y="724"/>
      <point x="50" y="668"/>
      <point x="50" y="606" type="curve" smooth="yes"/>
      <point x="50" y="589"/>
      <point x="55" y="572"/>
      <point x="75" y="572" type="curve"/>
      <point x="75" y="659"/>
      <point x="94" y="714"/>
      <point x="147" y="714" type="curve" smooth="yes"/>
      <point x="206" y="714"/>
      <point x="235" y="650"/>
      <point x="235" y="554" type="curve" smooth="yes"/>
      <point x="235" y="459"/>
      <point x="210" y="428"/>
      <point x="148" y="372" type="curve" smooth="yes"/>
      <point x="90" y="319"/>
      <point x="40" y="281"/>
      <point x="40" y="161" type="curve" smooth="yes"/>
      <point x="40" y="45"/>
      <point x="83" y="-10"/>
    </contour>
  </outline>
</glyph>
<glyph name="uni01AD" format="2">
  <advance width="191"/>
  <unicode hex="01AD"/>
  <anchor x="96" y="0" name="bottom"/>
  <anchor x="96" y="757" name="top"/>
  <outline>
    <contour>
      <point x="144" y="-10" type="curve" smooth="yes"/>
      <point x="150" y="-10"/>
      <point x="165" y="-7"/>
      <point x="176" y="-5" type="curve"/>
      <point x="176" y="5" type="line"/>
      <point x="158" y="1"/>
      <point x="151" y="0"/>
      <point x="141" y="0" type="curve" smooth="yes"/>
      <point x="108" y="0"/>
      <point x="86" y="21"/>
      <point x="86" y="120" type="curve" smooth="yes"/>
      <point x="86" y="526" type="line"/>
      <point x="168" y="526" type="line"/>
      <point x="168" y="536" type="line"/>
      <point x="86" y="536" type="line"/>
      <point x="86" y="617" type="line" smooth="yes"/>
      <point x="86" y="711"/>
      <point x="95" y="733"/>
      <point x="117" y="733" type="curve" smooth="yes"/>
      <point x="136" y="733"/>
      <point x="142" y="721"/>
      <point x="135" y="693" type="curve"/>
      <point x="153" y="690"/>
      <point x="164" y="702"/>
      <point x="164" y="722" type="curve" smooth="yes"/>
      <point x="164" y="736"/>
      <point x="163" y="757"/>
      <point x="131" y="757" type="curve" smooth="yes"/>
      <point x="78" y="757"/>
      <point x="76" y="694"/>
      <point x="76" y="615" type="curve" smooth="yes"/>
      <point x="76" y="558"/>
      <point x="63" y="536"/>
      <point x="10" y="536" type="curve"/>
      <point x="10" y="526" type="line"/>
      <point x="58" y="526" type="line"/>
      <point x="58" y="141" type="line" smooth="yes"/>
      <point x="58" y="23"/>
      <point x="82" y="-10"/>
    </contour>
  </outline>
</glyph>
<glyph name="uni01AE" format="2">
  <advance width="351"/>
  <unicode hex="01AE"/>
  <anchor x="175" y="-240" name="bottom"/>
  <anchor x="175" y="714" name="top"/>
  <outline>
    <contour>
      <point x="206" y="-240" type="curve" smooth="yes"/>
      <point x="233" y="-240"/>
      <point x="243" y="-232"/>
      <point x="251" y="-225" type="curve"/>
      <point x="251" y="-215" type="line"/>
      <point x="247" y="-218"/>
      <point x="230" y="-230"/>
      <point x="216" y="-230" type="curve" smooth="yes"/>
      <point x="196" y="-230"/>
      <point x="188" y="-213"/>
      <point x="188" y="-175" type="curve" smooth="yes"/>
      <point x="188" y="707" type="line"/>
      <point x="267" y="707" type="line" smooth="yes"/>
      <point x="319" y="707"/>
      <point x="321" y="689"/>
      <point x="323" y="637" type="curve" smooth="yes"/>
      <point x="324" y="563" type="line"/>
      <point x="334" y="563" type="line"/>
      <point x="331" y="714" type="line"/>
      <point x="20" y="714" type="line"/>
      <point x="17" y="563" type="line"/>
      <point x="27" y="563" type="line"/>
      <point x="28" y="630" type="line" smooth="yes"/>
      <point x="30" y="689"/>
      <point x="30" y="707"/>
      <point x="84" y="707" type="curve" smooth="yes"/>
      <point x="160" y="707" type="line"/>
      <point x="160" y="-148" type="line" smooth="yes"/>
      <point x="160" y="-206"/>
      <point x="176" y="-240"/>
    </contour>
  </outline>
</glyph>
<glyph name="uhorn" format="2">
  <advance width="350"/>
  <unicode hex="01B0"/>
  <anchor x="176" y="0" name="bottom"/>
  <anchor x="166" y="536" name="top"/>
  <outline>
    <contour>
      <point x="171" y="-10" type="curve" smooth="yes"/>
      <point x="213" y="-10"/>
      <point x="248" y="22"/>
      <point x="266" y="100" type="curve"/>
      <point x="268" y="100" type="line"/>
      <point x="268" y="0" type="line"/>
      <point x="349" y="0" type="line"/>
      <point x="349" y="10" type="line"/>
      <point x="367" y="10" type="line" smooth="yes"/>
      <point x="297" y="10"/>
      <point x="294" y="13"/>
      <point x="294" y="96" type="curve" smooth="yes"/>
      <point x="294" y="436" type="line"/>
      <point x="347" y="463"/>
      <point x="381" y="510"/>
      <point x="381" y="572" type="curve" smooth="yes"/>
      <point x="381" y="617"/>
      <point x="368" y="628"/>
      <point x="350" y="628" type="curve" smooth="yes"/>
      <point x="332" y="628"/>
      <point x="321" y="613"/>
      <point x="321" y="588" type="curve" smooth="yes"/>
      <point x="321" y="552"/>
      <point x="341" y="571"/>
      <point x="341" y="520" type="curve" smooth="yes"/>
      <point x="341" y="493"/>
      <point x="333" y="468"/>
      <point x="294" y="448" type="curve"/>
      <point x="294" y="536" type="line"/>
      <point x="207" y="536" type="line"/>
      <point x="207" y="526" type="line"/>
      <point x="200" y="526" type="line" smooth="yes"/>
      <point x="268" y="526"/>
      <point x="266" y="519"/>
      <point x="266" y="425" type="curve" smooth="yes"/>
      <point x="266" y="204" type="line" smooth="yes"/>
      <point x="266" y="86"/>
      <point x="240" y="5"/>
      <point x="174" y="5" type="curve" smooth="yes"/>
      <point x="130" y="5"/>
      <point x="94" y="49"/>
      <point x="94" y="184" type="curve" smooth="yes"/>
      <point x="94" y="536" type="line"/>
      <point x="10" y="536" type="line"/>
      <point x="10" y="526" type="line"/>
      <point x="-1" y="526" type="line" smooth="yes"/>
      <point x="59" y="526"/>
      <point x="66" y="520"/>
      <point x="66" y="454" type="curve" smooth="yes"/>
      <point x="66" y="184" type="line" smooth="yes"/>
      <point x="66" y="39"/>
      <point x="111" y="-10"/>
    </contour>
  </outline>
</glyph>
<glyph name="uni01B4" format="2">
  <advance width="358"/>
  <unicode hex="01B4"/>
  <anchor x="179" y="-240" name="bottom"/>
  <anchor x="179" y="536" name="top"/>
  <outline>
    <contour>
      <point x="29" y="-240" type="line"/>
      <point x="30" y="-240" type="line" smooth="yes"/>
      <point x="91" y="-240"/>
      <point x="160" y="-188"/>
      <point x="182" y="-61" type="curve" smooth="yes"/>
      <point x="280" y="391" type="line" smooth="yes"/>
      <point x="303" y="492"/>
      <point x="316" y="520"/>
      <point x="332" y="520" type="curve" smooth="yes"/>
      <point x="344" y="520"/>
      <point x="351" y="509"/>
      <point x="348" y="479" type="curve"/>
      <point x="359" y="477"/>
      <point x="366" y="488"/>
      <point x="366" y="508" type="curve" smooth="yes"/>
      <point x="366" y="532"/>
      <point x="359" y="548"/>
      <point x="334" y="548" type="curve" smooth="yes"/>
      <point x="318" y="548"/>
      <point x="304" y="529"/>
      <point x="298" y="487" type="curve" smooth="yes"/>
      <point x="240" y="219" type="line" smooth="yes"/>
      <point x="222" y="143"/>
      <point x="200" y="50"/>
      <point x="192" y="9" type="curve"/>
      <point x="187" y="44"/>
      <point x="186" y="67"/>
      <point x="138" y="234" type="curve" smooth="yes"/>
      <point x="86" y="444" type="line" smooth="yes"/>
      <point x="82" y="466"/>
      <point x="75" y="495"/>
      <point x="75" y="505" type="curve" smooth="yes"/>
      <point x="75" y="524"/>
      <point x="87" y="526"/>
      <point x="141" y="526" type="curve" smooth="yes"/>
      <point x="127" y="526" type="line"/>
      <point x="127" y="536" type="line"/>
      <point x="5" y="536" type="line"/>
      <point x="5" y="526" type="line"/>
      <point x="5" y="526" type="line" smooth="yes"/>
      <point x="39" y="526"/>
      <point x="41" y="518"/>
      <point x="59" y="453" type="curve" smooth="yes"/>
      <point x="180" y="-38" type="line"/>
      <point x="156" y="-172"/>
      <point x="103" y="-230"/>
      <point x="29" y="-230" type="curve"/>
    </contour>
  </outline>
</glyph>
<glyph name="uni01B5" format="2">
  <advance width="320"/>
  <unicode hex="01B5"/>
  <anchor x="161" y="0" name="bottom"/>
  <anchor x="161" y="714" name="top"/>
  <outline>
    <contour>
      <point x="18" y="0" type="line"/>
      <point x="291" y="0" type="line"/>
      <point x="296" y="142" type="line"/>
      <point x="286" y="142" type="line"/>
      <point x="282" y="83" type="line" smooth="yes"/>
      <point x="277" y="29"/>
      <point x="276" y="15"/>
      <point x="224" y="15" type="curve" smooth="yes"/>
      <point x="44" y="15" type="line"/>
      <point x="172" y="371" type="line"/>
      <point x="273" y="371" type="line"/>
      <point x="273" y="381" type="line"/>
      <point x="175" y="381" type="line"/>
      <point x="290" y="698" type="line"/>
      <point x="290" y="714" type="line"/>
      <point x="35" y="714" type="line"/>
      <point x="30" y="574" type="line"/>
      <point x="40" y="574" type="line"/>
      <point x="42" y="630" type="line" smooth="yes"/>
      <point x="43" y="685"/>
      <point x="51" y="699"/>
      <point x="103" y="699" type="curve" smooth="yes"/>
      <point x="261" y="699" type="line"/>
      <point x="146" y="381" type="line"/>
      <point x="45" y="381" type="line"/>
      <point x="45" y="371" type="line"/>
      <point x="144" y="371" type="line"/>
      <point x="18" y="22" type="line"/>
    </contour>
  </outline>
</glyph>
<glyph name="uni01BB" format="2">
  <advance width="327"/>
  <unicode hex="01BB"/>
  <anchor x="171" y="0" name="bottom"/>
  <anchor x="171" y="761" name="top"/>
  <outline>
    <contour>
      <point x="42" y="0" type="line"/>
      <point x="285" y="0" type="line"/>
      <point x="285" y="134" type="line"/>
      <point x="275" y="134" type="line"/>
      <point x="275" y="97" type="line" smooth="yes"/>
      <point x="275" y="49"/>
      <point x="269" y="30"/>
      <point x="216" y="30" type="curve" smooth="yes"/>
      <point x="62" y="30" type="line"/>
      <point x="166" y="277" type="line" smooth="yes"/>
      <point x="209" y="352"/>
      <point x="209" y="358"/>
      <point x="228" y="404" type="curve"/>
      <point x="282" y="404" type="line"/>
      <point x="282" y="414" type="line"/>
      <point x="232" y="414" type="line"/>
      <point x="249" y="476"/>
      <point x="261" y="536"/>
      <point x="261" y="592" type="curve" smooth="yes"/>
      <point x="261" y="700"/>
      <point x="225" y="761"/>
      <point x="162" y="761" type="curve" smooth="yes"/>
      <point x="88" y="761"/>
      <point x="61" y="677"/>
      <point x="61" y="626" type="curve" smooth="yes"/>
      <point x="61" y="592"/>
      <point x="78" y="583"/>
      <point x="87" y="583" type="curve"/>
      <point x="87" y="675"/>
      <point x="96" y="751"/>
      <point x="162" y="751" type="curve" smooth="yes"/>
      <point x="222" y="751"/>
      <point x="233" y="689"/>
      <point x="233" y="585" type="curve" smooth="yes"/>
      <point x="233" y="538"/>
      <point x="224" y="482"/>
      <point x="202" y="414" type="curve"/>
      <point x="55" y="414" type="line"/>
      <point x="55" y="404" type="line"/>
      <point x="202" y="404" type="line"/>
      <point x="183" y="356"/>
      <point x="167" y="322"/>
      <point x="144" y="274" type="curve" smooth="yes"/>
      <point x="42" y="10" type="line"/>
    </contour>
  </outline>
</glyph>
<glyph name="uni01C1" format="2">
  <advance width="331"/>
  <unicode hex="01C1"/>
  <anchor x="166" y="0" name="bottom"/>
  <anchor x="166" y="760" name="top"/>
  <outline>
    <contour>
      <point x="182" y="0" type="line"/>
      <point x="202" y="0" type="line"/>
      <point x="202" y="760" type="line"/>
      <point x="182" y="760" type="line"/>
    </contour>
    <contour>
      <point x="129" y="0" type="line"/>
      <point x="149" y="0" type="line"/>
      <point x="149" y="760" type="line"/>
      <point x="129" y="760" type="line"/>
    </contour>
  </outline>
</glyph>
<glyph name="uni01E4" format="2">
  <advance width="402"/>
  <unicode hex="01E4"/>
  <anchor x="202" y="0" name="bottom"/>
  <anchor x="202" y="714" name="top"/>
  <outline>
    <contour>
      <point x="231" y="-10" type="curve" smooth="yes"/>
      <point x="281" y="-10"/>
      <point x="316" y="1"/>
      <point x="352" y="28" type="curve"/>
      <point x="352" y="166" type="line"/>
      <point x="402" y="166" type="line"/>
      <point x="402" y="176" type="line"/>
      <point x="352" y="176" type="line"/>
      <point x="352" y="242" type="line" smooth="yes"/>
      <point x="352" y="308"/>
      <point x="361" y="314"/>
      <point x="403" y="314" type="curve" smooth="yes"/>
      <point x="397" y="314" type="line"/>
      <point x="397" y="324" type="line"/>
      <point x="262" y="324" type="line"/>
      <point x="262" y="314" type="line"/>
      <point x="258" y="314" type="line" smooth="yes"/>
      <point x="315" y="314"/>
      <point x="324" y="318"/>
      <point x="324" y="254" type="curve" smooth="yes"/>
      <point x="324" y="176" type="line"/>
      <point x="238" y="176" type="line"/>
      <point x="238" y="166" type="line"/>
      <point x="324" y="166" type="line"/>
      <point x="324" y="28" type="line"/>
      <point x="306" y="11"/>
      <point x="272" y="0"/>
      <point x="225" y="0" type="curve" smooth="yes"/>
      <point x="105" y="0"/>
      <point x="62" y="113"/>
      <point x="62" y="358" type="curve" smooth="yes"/>
      <point x="62" y="603"/>
      <point x="116" y="714"/>
      <point x="238" y="714" type="curve" smooth="yes"/>
      <point x="307" y="714"/>
      <point x="328" y="644"/>
      <point x="328" y="564" type="curve"/>
      <point x="346" y="564"/>
      <point x="354" y="577"/>
      <point x="354" y="613" type="curve" smooth="yes"/>
      <point x="354" y="657"/>
      <point x="310" y="724"/>
      <point x="236" y="724" type="curve" smooth="yes"/>
      <point x="106" y="724"/>
      <point x="34" y="621"/>
      <point x="34" y="358" type="curve" smooth="yes"/>
      <point x="34" y="110"/>
      <point x="93" y="-10"/>
    </contour>
  </outline>
</glyph>
<glyph name="uni021D" format="2">
  <advance width="285"/>
  <unicode hex="021D"/>
  <anchor x="129" y="-174" name="bottom"/>
  <anchor x="129" y="536" name="top"/>
  <outline>
    <contour>
      <point x="23" y="-240" type="line"/>
      <point x="169" y="-195"/>
      <point x="245" y="-127"/>
      <point x="245" y="48" type="curve" smooth="yes"/>
      <point x="245" y="152"/>
      <point x="221" y="201"/>
      <point x="157" y="237" type="curve"/>
      <point x="221" y="283"/>
      <point x="231" y="321"/>
      <point x="231" y="391" type="curve" smooth="yes"/>
      <point x="231" y="487"/>
      <point x="191" y="541"/>
      <point x="134" y="541" type="curve" smooth="yes"/>
      <point x="75" y="541"/>
      <point x="31" y="485"/>
      <point x="31" y="433" type="curve" smooth="yes"/>
      <point x="31" y="411"/>
      <point x="42" y="395"/>
      <point x="53" y="395" type="curve"/>
      <point x="53" y="484"/>
      <point x="69" y="531"/>
      <point x="130" y="531" type="curve" smooth="yes"/>
      <point x="181" y="531"/>
      <point x="202" y="492"/>
      <point x="202" y="393" type="curve" smooth="yes"/>
      <point x="202" y="297"/>
      <point x="190" y="256"/>
      <point x="81" y="204" type="curve"/>
      <point x="85" y="194" type="line"/>
      <point x="147" y="229" type="line"/>
      <point x="203" y="196"/>
      <point x="217" y="149"/>
      <point x="217" y="47" type="curve" smooth="yes"/>
      <point x="217" y="-143"/>
      <point x="137" y="-191"/>
      <point x="23" y="-227" type="curve"/>
    </contour>
  </outline>
</glyph>
<glyph name="uni0220" format="2">
  <advance width="447"/>
  <unicode hex="0220"/>
  <anchor x="224" y="-240" name="bottom"/>
  <anchor x="224" y="714" name="top"/>
  <outline>
    <contour>
      <point x="293" y="-240" type="line"/>
      <point x="441" y="-240" type="line"/>
      <point x="441" y="-230" type="line"/>
      <point x="451" y="-230" type="line" smooth="yes"/>
      <point x="397" y="-230"/>
      <point x="391" y="-218"/>
      <point x="391" y="-135" type="curve" smooth="yes"/>
      <point x="391" y="472" type="line" smooth="yes"/>
      <point x="391" y="643"/>
      <point x="349" y="722"/>
      <point x="243" y="722" type="curve" smooth="yes"/>
      <point x="159" y="722"/>
      <point x="131" y="649"/>
      <point x="113" y="556" type="curve"/>
      <point x="111" y="556" type="line"/>
      <point x="111" y="714" type="line"/>
      <point x="30" y="714" type="line"/>
      <point x="30" y="704" type="line"/>
      <point x="30" y="704" type="line" smooth="yes"/>
      <point x="76" y="704"/>
      <point x="82" y="693"/>
      <point x="82" y="617" type="curve" smooth="yes"/>
      <point x="82" y="98" type="line" smooth="yes"/>
      <point x="82" y="21"/>
      <point x="76" y="10"/>
      <point x="27" y="10" type="curve" smooth="yes"/>
      <point x="27" y="10" type="line"/>
      <point x="27" y="0" type="line"/>
      <point x="175" y="0" type="line"/>
      <point x="175" y="10" type="line"/>
      <point x="166" y="10" type="line" smooth="yes"/>
      <point x="116" y="10"/>
      <point x="110" y="21"/>
      <point x="110" y="98" type="curve" smooth="yes"/>
      <point x="110" y="401" type="line" smooth="yes"/>
      <point x="110" y="666"/>
      <point x="201" y="709"/>
      <point x="248" y="709" type="curve" smooth="yes"/>
      <point x="327" y="709"/>
      <point x="363" y="629"/>
      <point x="363" y="479" type="curve" smooth="yes"/>
      <point x="363" y="-135" type="line" smooth="yes"/>
      <point x="363" y="-218"/>
      <point x="356" y="-230"/>
      <point x="304" y="-230" type="curve" smooth="yes"/>
      <point x="293" y="-230" type="line"/>
    </contour>
  </outline>
</glyph>
<glyph name="uni0238" format="2">
  <advance width="546"/>
  <unicode hex="0238"/>
  <anchor x="273" y="0" name="bottom"/>
  <anchor x="273" y="760" name="top"/>
  <outline>
    <contour>
      <point x="161" y="-10" type="curve" smooth="yes"/>
      <point x="269" y="-10"/>
      <point x="256" y="84"/>
      <point x="273" y="148" type="curve"/>
      <point x="288" y="95"/>
      <point x="288" y="-10"/>
      <point x="387" y="-10" type="curve" smooth="yes"/>
      <point x="460" y="-10"/>
      <point x="507" y="46"/>
      <point x="507" y="265" type="curve" smooth="yes"/>
      <point x="507" y="490"/>
      <point x="439" y="541"/>
      <point x="379" y="541" type="curve" smooth="yes"/>
      <point x="322" y="541"/>
      <point x="298" y="501"/>
      <point x="289" y="436" type="curve"/>
      <point x="287" y="436" type="line"/>
      <point x="288" y="502"/>
      <point x="287" y="515"/>
      <point x="287" y="562" type="curve" smooth="yes"/>
      <point x="287" y="760" type="line"/>
      <point x="208" y="760" type="line"/>
      <point x="208" y="750" type="line"/>
      <point x="199" y="750" type="line" smooth="yes"/>
      <point x="254" y="750"/>
      <point x="259" y="744"/>
      <point x="259" y="675" type="curve" smooth="yes"/>
      <point x="259" y="564" type="line" smooth="yes"/>
      <point x="259" y="532"/>
      <point x="258" y="504"/>
      <point x="261" y="427" type="curve"/>
      <point x="259" y="427" type="line"/>
      <point x="248" y="502"/>
      <point x="224" y="541"/>
      <point x="172" y="541" type="curve" smooth="yes"/>
      <point x="87" y="541"/>
      <point x="37" y="458"/>
      <point x="37" y="267" type="curve" smooth="yes"/>
      <point x="37" y="60"/>
      <point x="82" y="-10"/>
    </contour>
    <contour>
      <point x="165" y="-1" type="curve" smooth="yes"/>
      <point x="105" y="-1"/>
      <point x="65" y="57"/>
      <point x="65" y="265" type="curve" smooth="yes"/>
      <point x="65" y="446"/>
      <point x="90" y="534"/>
      <point x="166" y="534" type="curve" smooth="yes"/>
      <point x="244" y="534"/>
      <point x="258" y="448"/>
      <point x="258" y="262" type="curve" smooth="yes"/>
      <point x="258" y="72"/>
      <point x="230" y="-1"/>
    </contour>
    <contour>
      <point x="383" y="-1" type="curve" smooth="yes"/>
      <point x="329" y="-1"/>
      <point x="288" y="68"/>
      <point x="288" y="262" type="curve" smooth="yes"/>
      <point x="288" y="444"/>
      <point x="301" y="534"/>
      <point x="379" y="534" type="curve" smooth="yes"/>
      <point x="442" y="534"/>
      <point x="479" y="473"/>
      <point x="479" y="263" type="curve" smooth="yes"/>
      <point x="479" y="45"/>
      <point x="446" y="-1"/>
    </contour>
  </outline>
</glyph>
<glyph name="uni023E" format="2">
  <advance width="351"/>
  <unicode hex="023E"/>
  <anchor x="172" y="0" name="bottom"/>
  <anchor x="172" y="714" name="top"/>
  <anchor x="355" y="714" name="topright"/>
  <anchor x="172" y="357" name="center"/>
  <outline>
    <contour>
      <point x="28" y="-43" type="line"/>
      <point x="38" y="-43" type="line"/>
      <point x="312" y="760" type="line"/>
      <point x="302" y="760" type="line"/>
    </contour>
    <component base="T" xOffset="-3"/>
  </outline>
</glyph>
<glyph name="uni0240" format="2">
  <advance width="290"/>
  <unicode hex="0240"/>
  <anchor x="142" y="-243" name="bottom"/>
  <anchor x="142" y="536" name="top"/>
  <outline>
    <contour>
      <point x="225" y="-243" type="curve" smooth="yes"/>
      <point x="277" y="-243"/>
      <point x="286" y="-199"/>
      <point x="286" y="-164" type="curve" smooth="yes"/>
      <point x="286" y="-133"/>
      <point x="277" y="-127"/>
      <point x="262" y="-125" type="curve"/>
      <point x="262" y="-196"/>
      <point x="254" y="-218"/>
      <point x="228" y="-218" type="curve" smooth="yes"/>
      <point x="192" y="-218"/>
      <point x="178" y="-155"/>
      <point x="161" y="-101" type="curve" smooth="yes"/>
      <point x="138" y="-34"/>
      <point x="117" y="10"/>
      <point x="60" y="15" type="curve"/>
      <point x="235" y="507" type="line"/>
      <point x="235" y="536" type="line"/>
      <point x="42" y="536" type="line"/>
      <point x="34" y="420" type="line"/>
      <point x="44" y="420" type="line"/>
      <point x="46" y="452" type="line" smooth="yes"/>
      <point x="49" y="507"/>
      <point x="57" y="521"/>
      <point x="109" y="521" type="curve" smooth="yes"/>
      <point x="213" y="521" type="line"/>
      <point x="37" y="29" type="line"/>
      <point x="37" y="0" type="line"/>
      <point x="46" y="0" type="line" smooth="yes"/>
      <point x="96" y="0"/>
      <point x="113" y="-34"/>
      <point x="152" y="-146" type="curve" smooth="yes"/>
      <point x="175" y="-214"/>
      <point x="189" y="-243"/>
    </contour>
  </outline>
</glyph>
<glyph name="uni0249" format="2">
  <advance width="162"/>
  <unicode hex="0249"/>
  <anchor x="65" y="-240" name="bottom"/>
  <anchor x="84" y="738" name="top"/>
  <anchor x="137" y="738" name="topright"/>
  <outline>
    <contour>
      <point x="11" y="293" type="line"/>
      <point x="155" y="293" type="line"/>
      <point x="155" y="303" type="line"/>
      <point x="11" y="303" type="line"/>
    </contour>
    <component base="j"/>
  </outline>
</glyph>
<glyph name="uni024E" format="2">
  <advance width="344"/>
  <unicode hex="024E"/>
  <anchor x="171" y="0" name="bottom"/>
  <anchor x="171" y="714" name="top"/>
  <anchor x="320" y="714" name="topright"/>
  <outline>
    <contour>
      <point x="1" y="553" type="line"/>
      <point x="343" y="553" type="line"/>
      <point x="343" y="563" type="line"/>
      <point x="1" y="563" type="line"/>
    </contour>
    <component base="Y"/>
  </outline>
</glyph>
<glyph name="uni0254" format="2">
  <advance width="295"/>
  <unicode hex="0254"/>
  <anchor x="147" y="0" name="bottom"/>
  <anchor x="147" y="536" name="top"/>
  <outline>
    <contour>
      <point x="129" y="-10" type="curve" smooth="yes"/>
      <point x="195" y="-10"/>
      <point x="257" y="50"/>
      <point x="257" y="267" type="curve" smooth="yes"/>
      <point x="257" y="477"/>
      <point x="207" y="542"/>
      <point x="135" y="542" type="curve" smooth="yes"/>
      <point x="65" y="542"/>
      <point x="37" y="483"/>
      <point x="37" y="451" type="curve" smooth="yes"/>
      <point x="37" y="447"/>
      <point x="36" y="441"/>
      <point x="39" y="433" type="curve"/>
      <point x="57" y="489"/>
      <point x="86" y="532"/>
      <point x="134" y="532" type="curve" smooth="yes"/>
      <point x="204" y="532"/>
      <point x="229" y="455"/>
      <point x="229" y="268" type="curve" smooth="yes"/>
      <point x="229" y="43"/>
      <point x="173" y="0"/>
      <point x="127" y="0" type="curve" smooth="yes"/>
      <point x="80" y="0"/>
      <point x="69" y="28"/>
      <point x="69" y="126" type="curve"/>
      <point x="47" y="126"/>
      <point x="36" y="120"/>
      <point x="36" y="89" type="curve" smooth="yes"/>
      <point x="36" y="37"/>
      <point x="71" y="-10"/>
    </contour>
  </outline>
</glyph>
<glyph name="uni0255" format="2">
  <advance width="278"/>
  <unicode hex="0255"/>
  <anchor x="140" y="0" name="bottom"/>
  <anchor x="140" y="536" name="top"/>
  <outline>
    <contour>
      <point x="82" y="-21" type="line"/>
      <point x="82" y="6"/>
      <point x="83" y="26"/>
      <point x="84" y="45" type="curve"/>
      <point x="104" y="12"/>
      <point x="131" y="-10"/>
      <point x="174" y="-10" type="curve" smooth="yes"/>
      <point x="229" y="-10"/>
      <point x="267" y="43"/>
      <point x="267" y="131" type="curve" smooth="yes"/>
      <point x="267" y="197"/>
      <point x="239" y="237"/>
      <point x="196" y="237" type="curve" smooth="yes"/>
      <point x="144" y="237"/>
      <point x="100" y="177"/>
      <point x="83" y="92" type="curve"/>
      <point x="68" y="140"/>
      <point x="65" y="198"/>
      <point x="65" y="264" type="curve" smooth="yes"/>
      <point x="65" y="484"/>
      <point x="102" y="532"/>
      <point x="161" y="532" type="curve" smooth="yes"/>
      <point x="215" y="532"/>
      <point x="219" y="507"/>
      <point x="219" y="406" type="curve"/>
      <point x="241" y="405"/>
      <point x="252" y="412"/>
      <point x="252" y="446" type="curve" smooth="yes"/>
      <point x="252" y="495"/>
      <point x="224" y="542"/>
      <point x="159" y="542" type="curve" smooth="yes"/>
      <point x="81" y="542"/>
      <point x="37" y="482"/>
      <point x="37" y="263" type="curve" smooth="yes"/>
      <point x="37" y="192"/>
      <point x="46" y="114"/>
      <point x="77" y="58" type="curve"/>
      <point x="73" y="37"/>
      <point x="72" y="12"/>
      <point x="71" y="-18" type="curve"/>
    </contour>
    <contour>
      <point x="179" y="0" type="curve" smooth="yes"/>
      <point x="128" y="0"/>
      <point x="102" y="29"/>
      <point x="89" y="73" type="curve"/>
      <point x="102" y="163"/>
      <point x="148" y="227"/>
      <point x="196" y="227" type="curve" smooth="yes"/>
      <point x="234" y="227"/>
      <point x="257" y="191"/>
      <point x="257" y="131" type="curve" smooth="yes"/>
      <point x="257" y="49"/>
      <point x="225" y="0"/>
    </contour>
  </outline>
</glyph>
<glyph name="uni0258" format="2">
  <advance width="306"/>
  <unicode hex="0258"/>
  <anchor x="160" y="0" name="bottom"/>
  <anchor x="160" y="536" name="top"/>
  <outline>
    <contour>
      <point x="141" y="-10" type="curve" smooth="yes"/>
      <point x="219" y="-10"/>
      <point x="268" y="89"/>
      <point x="268" y="262" type="curve" smooth="yes"/>
      <point x="268" y="449"/>
      <point x="224" y="542"/>
      <point x="149" y="542" type="curve" smooth="yes"/>
      <point x="69" y="542"/>
      <point x="36" y="443"/>
      <point x="36" y="305" type="curve" smooth="yes"/>
      <point x="36" y="279" type="line"/>
      <point x="241" y="279" type="line"/>
      <point x="240" y="78"/>
      <point x="206" y="0"/>
      <point x="142" y="0" type="curve" smooth="yes"/>
      <point x="96" y="0"/>
      <point x="71" y="44"/>
      <point x="70" y="96" type="curve"/>
      <point x="55" y="96"/>
      <point x="51" y="86"/>
      <point x="51" y="75" type="curve" smooth="yes"/>
      <point x="51" y="41"/>
      <point x="84" y="-10"/>
    </contour>
    <contour>
      <point x="64" y="289" type="line"/>
      <point x="66" y="425"/>
      <point x="82" y="532"/>
      <point x="148" y="532" type="curve" smooth="yes"/>
      <point x="203" y="532"/>
      <point x="240" y="430"/>
      <point x="242" y="289" type="curve"/>
    </contour>
  </outline>
</glyph>
<glyph name="uni0266" format="2">
  <advance width="365"/>
  <unicode hex="0266"/>
  <anchor x="183" y="0" name="bottom"/>
  <anchor x="183" y="763" name="top"/>
  <outline>
    <contour>
      <point x="9" y="0" type="line"/>
      <point x="150" y="0" type="line"/>
      <point x="150" y="10" type="line"/>
      <point x="155" y="10" type="line" smooth="yes"/>
      <point x="103" y="10"/>
      <point x="96" y="17"/>
      <point x="96" y="87" type="curve" smooth="yes"/>
      <point x="96" y="332" type="line" smooth="yes"/>
      <point x="96" y="474"/>
      <point x="120" y="527"/>
      <point x="179" y="527" type="curve" smooth="yes"/>
      <point x="247" y="527"/>
      <point x="265" y="468"/>
      <point x="265" y="367" type="curve" smooth="yes"/>
      <point x="265" y="0" type="line"/>
      <point x="346" y="0" type="line"/>
      <point x="346" y="10" type="line"/>
      <point x="344" y="10" type="line" smooth="yes"/>
      <point x="299" y="10"/>
      <point x="293" y="22"/>
      <point x="293" y="84" type="curve" smooth="yes"/>
      <point x="293" y="365" type="line" smooth="yes"/>
      <point x="293" y="477"/>
      <point x="251" y="542"/>
      <point x="189" y="542" type="curve" smooth="yes"/>
      <point x="129" y="542"/>
      <point x="108" y="499"/>
      <point x="97" y="451" type="curve"/>
      <point x="95" y="451" type="line"/>
      <point x="96" y="459"/>
      <point x="96" y="495"/>
      <point x="96" y="504" type="curve" smooth="yes"/>
      <point x="96" y="605" type="line" smooth="yes"/>
      <point x="96" y="707"/>
      <point x="102" y="753"/>
      <point x="145" y="753" type="curve" smooth="yes"/>
      <point x="193" y="753"/>
      <point x="182" y="703"/>
      <point x="174" y="665" type="curve"/>
      <point x="198" y="664"/>
      <point x="208" y="683"/>
      <point x="208" y="703" type="curve" smooth="yes"/>
      <point x="208" y="739"/>
      <point x="184" y="763"/>
      <point x="144" y="763" type="curve" smooth="yes"/>
      <point x="96" y="763"/>
      <point x="68" y="721"/>
      <point x="68" y="599" type="curve" smooth="yes"/>
      <point x="68" y="87" type="line" smooth="yes"/>
      <point x="68" y="17"/>
      <point x="61" y="10"/>
      <point x="8" y="10" type="curve" smooth="yes"/>
      <point x="9" y="10" type="line"/>
    </contour>
  </outline>
</glyph>
<glyph name="uni026A" format="2">
  <advance width="189"/>
  <unicode hex="026A"/>
  <anchor x="95" y="0" name="bottom"/>
  <anchor x="95" y="536" name="top"/>
  <outline>
    <contour>
      <point x="21" y="0" type="line"/>
      <point x="169" y="0" type="line"/>
      <point x="169" y="10" type="line"/>
      <point x="153" y="10" type="line" smooth="yes"/>
      <point x="113" y="10"/>
      <point x="107" y="26"/>
      <point x="107" y="107" type="curve" smooth="yes"/>
      <point x="107" y="429" type="line" smooth="yes"/>
      <point x="107" y="511"/>
      <point x="113" y="526"/>
      <point x="157" y="526" type="curve" smooth="yes"/>
      <point x="169" y="526" type="line"/>
      <point x="169" y="536" type="line"/>
      <point x="21" y="536" type="line"/>
      <point x="21" y="526" type="line"/>
      <point x="29" y="526" type="line" smooth="yes"/>
      <point x="73" y="526"/>
      <point x="79" y="511"/>
      <point x="79" y="429" type="curve" smooth="yes"/>
      <point x="79" y="107" type="line" smooth="yes"/>
      <point x="79" y="26"/>
      <point x="73" y="10"/>
      <point x="33" y="10" type="curve" smooth="yes"/>
      <point x="21" y="10" type="line"/>
    </contour>
  </outline>
</glyph>
<glyph name="uni0272" format="2">
  <advance width="377"/>
  <unicode hex="0272"/>
  <anchor x="190" y="-243" name="bottom"/>
  <anchor x="190" y="536" name="top"/>
  <outline>
    <contour>
      <point x="31" y="-243" type="curve" smooth="yes"/>
      <point x="93" y="-243"/>
      <point x="109" y="-193"/>
      <point x="109" y="-24" type="curve" smooth="yes"/>
      <point x="109" y="326" type="line" smooth="yes"/>
      <point x="109" y="506"/>
      <point x="177" y="527"/>
      <point x="201" y="527" type="curve" smooth="yes"/>
      <point x="255" y="527"/>
      <point x="276" y="469"/>
      <point x="276" y="357" type="curve" smooth="yes"/>
      <point x="276" y="0" type="line"/>
      <point x="356" y="0" type="line"/>
      <point x="356" y="10" type="line"/>
      <point x="360" y="10" type="line" smooth="yes"/>
      <point x="312" y="10"/>
      <point x="304" y="17"/>
      <point x="304" y="87" type="curve" smooth="yes"/>
      <point x="304" y="367" type="line" smooth="yes"/>
      <point x="304" y="489"/>
      <point x="274" y="542"/>
      <point x="201" y="542" type="curve" smooth="yes"/>
      <point x="146" y="542"/>
      <point x="123" y="495"/>
      <point x="109" y="434" type="curve"/>
      <point x="107" y="434" type="line"/>
      <point x="107" y="536" type="line"/>
      <point x="24" y="536" type="line"/>
      <point x="24" y="526" type="line"/>
      <point x="14" y="526" type="line" smooth="yes"/>
      <point x="76" y="526"/>
      <point x="81" y="521"/>
      <point x="81" y="450" type="curve" smooth="yes"/>
      <point x="81" y="-40" type="line" smooth="yes"/>
      <point x="81" y="-169"/>
      <point x="88" y="-233"/>
      <point x="34" y="-233" type="curve" smooth="yes"/>
      <point x="-14" y="-233"/>
      <point x="-2" y="-187"/>
      <point x="5" y="-142" type="curve"/>
      <point x="-23" y="-141"/>
      <point x="-28" y="-168"/>
      <point x="-28" y="-183" type="curve" smooth="yes"/>
      <point x="-28" y="-209"/>
      <point x="-13" y="-243"/>
    </contour>
  </outline>
</glyph>
<glyph name="rfishhookreversed" format="2">
  <advance width="243"/>
  <unicode hex="027F"/>
  <anchor x="122" y="-240" name="bottom"/>
  <anchor x="122" y="536" name="top"/>
  <outline>
    <contour>
      <point x="85" y="-240" type="line"/>
      <point x="215" y="-240" type="line"/>
      <point x="215" y="-230" type="line"/>
      <point x="237" y="-230" type="line" smooth="yes"/>
      <point x="176" y="-230"/>
      <point x="167" y="-224"/>
      <point x="167" y="-155" type="curve" smooth="yes"/>
      <point x="167" y="378" type="line" smooth="yes"/>
      <point x="167" y="483"/>
      <point x="153" y="543"/>
      <point x="85" y="543" type="curve" smooth="yes"/>
      <point x="47" y="543"/>
      <point x="6" y="517"/>
      <point x="6" y="478" type="curve" smooth="yes"/>
      <point x="6" y="466"/>
      <point x="10" y="450"/>
      <point x="30" y="450" type="curve"/>
      <point x="30" y="503"/>
      <point x="41" y="533"/>
      <point x="85" y="533" type="curve" smooth="yes"/>
      <point x="140" y="533"/>
      <point x="139" y="473"/>
      <point x="139" y="376" type="curve" smooth="yes"/>
      <point x="139" y="-155" type="line" smooth="yes"/>
      <point x="139" y="-224"/>
      <point x="132" y="-230"/>
      <point x="66" y="-230" type="curve" smooth="yes"/>
      <point x="85" y="-230" type="line"/>
    </contour>
  </outline>
</glyph>
<glyph name="uni0280" format="2">
  <advance width="300"/>
  <unicode hex="0280"/>
  <anchor x="150" y="0" name="bottom"/>
  <anchor x="150" y="536" name="top"/>
  <outline>
    <contour>
      <point x="16" y="0" type="line"/>
      <point x="172" y="0" type="line"/>
      <point x="172" y="10" type="line"/>
      <point x="167" y="10" type="line" smooth="yes"/>
      <point x="112" y="10"/>
      <point x="105" y="17"/>
      <point x="105" y="87" type="curve" smooth="yes"/>
      <point x="105" y="258" type="line"/>
      <point x="172" y="258" type="line"/>
      <point x="232" y="77" type="line" smooth="yes"/>
      <point x="246" y="31"/>
      <point x="257" y="0"/>
      <point x="307" y="0" type="curve" smooth="yes"/>
      <point x="315" y="0" type="line"/>
      <point x="315" y="10" type="line"/>
      <point x="316" y="10" type="line" smooth="yes"/>
      <point x="296" y="10"/>
      <point x="282" y="29"/>
      <point x="258" y="91" type="curve" smooth="yes"/>
      <point x="199" y="259" type="line"/>
      <point x="252" y="280"/>
      <point x="285" y="329"/>
      <point x="285" y="409" type="curve" smooth="yes"/>
      <point x="285" y="481"/>
      <point x="247" y="536"/>
      <point x="176" y="536" type="curve" smooth="yes"/>
      <point x="23" y="536" type="line"/>
      <point x="23" y="526" type="line"/>
      <point x="13" y="526" type="line" smooth="yes"/>
      <point x="71" y="526"/>
      <point x="77" y="521"/>
      <point x="77" y="449" type="curve" smooth="yes"/>
      <point x="77" y="87" type="line" smooth="yes"/>
      <point x="77" y="17"/>
      <point x="71" y="10"/>
      <point x="13" y="10" type="curve" smooth="yes"/>
      <point x="16" y="10" type="line"/>
    </contour>
    <contour>
      <point x="105" y="268" type="line"/>
      <point x="105" y="526" type="line"/>
      <point x="175" y="526" type="line" smooth="yes"/>
      <point x="242" y="526"/>
      <point x="257" y="476"/>
      <point x="257" y="408" type="curve" smooth="yes"/>
      <point x="257" y="356"/>
      <point x="243" y="268"/>
      <point x="176" y="268" type="curve" smooth="yes"/>
    </contour>
  </outline>
</glyph>
<glyph name="eshsquatreversed" format="2">
  <advance width="151"/>
  <unicode hex="0285"/>
  <anchor x="75" y="-243" name="bottom"/>
  <anchor x="75" y="536" name="top"/>
  <outline>
    <contour>
      <point x="133" y="-243" type="curve" smooth="yes"/>
      <point x="168" y="-243"/>
      <point x="189" y="-215"/>
      <point x="189" y="-188" type="curve" smooth="yes"/>
      <point x="189" y="-177"/>
      <point x="184" y="-163"/>
      <point x="172" y="-163" type="curve"/>
      <point x="172" y="-215"/>
      <point x="155" y="-233"/>
      <point x="133" y="-233" type="curve" smooth="yes"/>
      <point x="118" y="-233"/>
      <point x="90" y="-223"/>
      <point x="90" y="-142" type="curve" smooth="yes"/>
      <point x="90" y="441" type="line" smooth="yes"/>
      <point x="90" y="506"/>
      <point x="76" y="544"/>
      <point x="31" y="544" type="curve" smooth="yes"/>
      <point x="-3" y="544"/>
      <point x="-37" y="530"/>
      <point x="-37" y="495" type="curve" smooth="yes"/>
      <point x="-37" y="482"/>
      <point x="-31" y="468"/>
      <point x="-19" y="468" type="curve"/>
      <point x="-19" y="494"/>
      <point x="-14" y="534"/>
      <point x="25" y="534" type="curve" smooth="yes"/>
      <point x="40" y="534"/>
      <point x="62" y="528"/>
      <point x="62" y="455" type="curve" smooth="yes"/>
      <point x="62" y="-118" type="line" smooth="yes"/>
      <point x="62" y="-196"/>
      <point x="77" y="-243"/>
    </contour>
  </outline>
</glyph>
<glyph name="eshcurl" format="2">
  <advance width="161"/>
  <unicode hex="0286"/>
  <anchor x="80" y="-240" name="bottom"/>
  <anchor x="80" y="763" name="top"/>
  <outline>
    <contour>
      <point x="32" y="-240" type="curve" smooth="yes"/>
      <point x="97" y="-240"/>
      <point x="99" y="-188"/>
      <point x="99" y="-54" type="curve"/>
      <point x="114" y="-77"/>
      <point x="132" y="-125"/>
      <point x="142" y="-173" type="curve"/>
      <point x="152" y="-170" type="line"/>
      <point x="140" y="-116"/>
      <point x="119" y="-61"/>
      <point x="99" y="-41" type="curve"/>
      <point x="99" y="-32"/>
      <point x="99" y="-22"/>
      <point x="99" y="-14" type="curve" smooth="yes"/>
      <point x="99" y="591" type="line" smooth="yes"/>
      <point x="99" y="715"/>
      <point x="116" y="753"/>
      <point x="148" y="753" type="curve" smooth="yes"/>
      <point x="175" y="753"/>
      <point x="180" y="714"/>
      <point x="180" y="687" type="curve"/>
      <point x="192" y="687"/>
      <point x="197" y="701"/>
      <point x="197" y="712" type="curve" smooth="yes"/>
      <point x="197" y="745"/>
      <point x="169" y="763"/>
      <point x="146" y="763" type="curve" smooth="yes"/>
      <point x="78" y="763"/>
      <point x="71" y="690"/>
      <point x="71" y="573" type="curve" smooth="yes"/>
      <point x="71" y="-20" type="line"/>
      <point x="63" y="-15"/>
      <point x="48" y="-10"/>
      <point x="37" y="-10" type="curve" smooth="yes"/>
      <point x="-12" y="-10"/>
      <point x="-41" y="-54"/>
      <point x="-41" y="-123" type="curve" smooth="yes"/>
      <point x="-41" y="-195"/>
      <point x="-14" y="-240"/>
    </contour>
    <contour>
      <point x="27" y="-222" type="curve" smooth="yes"/>
      <point x="-10" y="-222"/>
      <point x="-31" y="-184"/>
      <point x="-31" y="-124" type="curve" smooth="yes"/>
      <point x="-31" y="-59"/>
      <point x="-4" y="-20"/>
      <point x="40" y="-20" type="curve" smooth="yes"/>
      <point x="49" y="-20"/>
      <point x="62" y="-24"/>
      <point x="71" y="-31" type="curve"/>
      <point x="71" y="-61" type="line" smooth="yes"/>
      <point x="71" y="-177"/>
      <point x="71" y="-222"/>
    </contour>
  </outline>
</glyph>
<glyph name="cstretched" format="2">
  <advance width="288"/>
  <unicode hex="0297"/>
  <anchor x="144" y="-236" name="bottom"/>
  <anchor x="144" y="536" name="top"/>
  <outline>
    <contour>
      <point x="171" y="-236" type="curve" smooth="yes"/>
      <point x="242" y="-236"/>
      <point x="259" y="-183"/>
      <point x="259" y="-145" type="curve" smooth="yes"/>
      <point x="259" y="-127"/>
      <point x="252" y="-110"/>
      <point x="244" y="-110" type="curve"/>
      <point x="247" y="-185"/>
      <point x="227" y="-227"/>
      <point x="174" y="-226" type="curve" smooth="yes"/>
      <point x="90" y="-226"/>
      <point x="65" y="-133"/>
      <point x="65" y="150" type="curve" smooth="yes"/>
      <point x="65" y="462"/>
      <point x="114" y="532"/>
      <point x="177" y="532" type="curve" smooth="yes"/>
      <point x="217" y="532"/>
      <point x="229" y="510"/>
      <point x="229" y="414" type="curve"/>
      <point x="236" y="413"/>
      <point x="251" y="424"/>
      <point x="251" y="460" type="curve" smooth="yes"/>
      <point x="251" y="495"/>
      <point x="233" y="542"/>
      <point x="175" y="542" type="curve" smooth="yes"/>
      <point x="94" y="542"/>
      <point x="37" y="457"/>
      <point x="37" y="149" type="curve" smooth="yes"/>
      <point x="37" y="-152"/>
      <point x="89" y="-236"/>
    </contour>
  </outline>
</glyph>
<glyph name="uni029F" format="2">
  <advance width="288"/>
  <unicode hex="029F"/>
  <anchor x="145" y="0" name="bottom"/>
  <anchor x="145" y="536" name="top"/>
  <outline>
    <contour>
      <point x="19" y="0" type="line"/>
      <point x="268" y="0" type="line"/>
      <point x="270" y="105" type="line"/>
      <point x="260" y="105" type="line"/>
      <point x="263" y="100" type="line" smooth="yes"/>
      <point x="261" y="19"/>
      <point x="253" y="10"/>
      <point x="189" y="10" type="curve" smooth="yes"/>
      <point x="108" y="10" type="line"/>
      <point x="108" y="449" type="line" smooth="yes"/>
      <point x="108" y="523"/>
      <point x="113" y="526"/>
      <point x="186" y="526" type="curve" smooth="yes"/>
      <point x="166" y="526" type="line"/>
      <point x="166" y="536" type="line"/>
      <point x="24" y="536" type="line"/>
      <point x="24" y="526" type="line"/>
      <point x="10" y="526" type="line" smooth="yes"/>
      <point x="76" y="526"/>
      <point x="80" y="519"/>
      <point x="80" y="449" type="curve" smooth="yes"/>
      <point x="80" y="87" type="line" smooth="yes"/>
      <point x="80" y="17"/>
      <point x="73" y="10"/>
      <point x="18" y="10" type="curve" smooth="yes"/>
      <point x="19" y="10" type="line"/>
    </contour>
  </outline>
</glyph>
<glyph name="uni02A4" format="2">
  <advance width="547"/>
  <unicode hex="02A4"/>
  <anchor x="273" y="-241" name="bottom"/>
  <anchor x="273" y="760" name="top"/>
  <outline>
    <contour>
      <point x="366" y="-241" type="curve" smooth="yes"/>
      <point x="456" y="-241"/>
      <point x="512" y="-185"/>
      <point x="512" y="-2" type="curve" smooth="yes"/>
      <point x="512" y="159"/>
      <point x="458" y="217"/>
      <point x="340" y="221" type="curve"/>
      <point x="496" y="511" type="line"/>
      <point x="496" y="536" type="line"/>
      <point x="280" y="536" type="line"/>
      <point x="280" y="760" type="line"/>
      <point x="202" y="760" type="line"/>
      <point x="202" y="750" type="line"/>
      <point x="193" y="750" type="line" smooth="yes"/>
      <point x="247" y="750"/>
      <point x="252" y="744"/>
      <point x="252" y="662" type="curve" smooth="yes"/>
      <point x="252" y="545" type="line" smooth="yes"/>
      <point x="252" y="505"/>
      <point x="252" y="505"/>
      <point x="254" y="429" type="curve"/>
      <point x="252" y="429" type="line"/>
      <point x="237" y="510"/>
      <point x="213" y="545"/>
      <point x="166" y="545" type="curve" smooth="yes"/>
      <point x="103" y="545"/>
      <point x="38" y="498"/>
      <point x="38" y="267" type="curve" smooth="yes"/>
      <point x="38" y="41"/>
      <point x="83" y="-10"/>
      <point x="156" y="-10" type="curve" smooth="yes"/>
      <point x="206" y="-10"/>
      <point x="231" y="22"/>
      <point x="250" y="107" type="curve"/>
      <point x="252" y="107" type="line"/>
      <point x="252" y="0" type="line"/>
      <point x="340" y="0" type="line"/>
      <point x="340" y="10" type="line"/>
      <point x="334" y="10" type="line" smooth="yes"/>
      <point x="292" y="10"/>
      <point x="280" y="19"/>
      <point x="280" y="71" type="curve" smooth="yes"/>
      <point x="280" y="506" type="line"/>
      <point x="482" y="506" type="line"/>
      <point x="334" y="227" type="line"/>
      <point x="334" y="222" type="line"/>
      <point x="328" y="222" type="line" smooth="yes"/>
      <point x="454" y="222"/>
      <point x="484" y="155"/>
      <point x="484" y="-5" type="curve" smooth="yes"/>
      <point x="484" y="-201"/>
      <point x="437" y="-231"/>
      <point x="371" y="-231" type="curve" smooth="yes"/>
      <point x="295" y="-231"/>
      <point x="281" y="-177"/>
      <point x="282" y="-104" type="curve"/>
      <point x="269" y="-104"/>
      <point x="264" y="-126"/>
      <point x="264" y="-144" type="curve" smooth="yes"/>
      <point x="264" y="-188"/>
      <point x="291" y="-241"/>
    </contour>
    <contour>
      <point x="158" y="-3" type="curve" smooth="yes"/>
      <point x="93" y="-2"/>
      <point x="66" y="58"/>
      <point x="66" y="266" type="curve" smooth="yes"/>
      <point x="66" y="488"/>
      <point x="116" y="538"/>
      <point x="169" y="538" type="curve" smooth="yes"/>
      <point x="229" y="538"/>
      <point x="253" y="445"/>
      <point x="253" y="265" type="curve" smooth="yes"/>
      <point x="253" y="79"/>
      <point x="218" y="-5"/>
    </contour>
  </outline>
</glyph>
<glyph name="uni02A7" format="2">
  <advance width="270"/>
  <unicode hex="02A7"/>
  <anchor x="136" y="-243" name="bottom"/>
  <anchor x="136" y="763" name="top"/>
  <outline>
    <contour>
      <point x="139" y="-243" type="curve" smooth="yes"/>
      <point x="190" y="-243"/>
      <point x="207" y="-182"/>
      <point x="207" y="-103" type="curve" smooth="yes"/>
      <point x="207" y="661" type="line" smooth="yes"/>
      <point x="207" y="696"/>
      <point x="215" y="753"/>
      <point x="251" y="753" type="curve" smooth="yes"/>
      <point x="284" y="753"/>
      <point x="288" y="717"/>
      <point x="288" y="687" type="curve"/>
      <point x="300" y="687"/>
      <point x="305" y="701"/>
      <point x="305" y="714" type="curve" smooth="yes"/>
      <point x="305" y="736"/>
      <point x="287" y="763"/>
      <point x="251" y="763" type="curve" smooth="yes"/>
      <point x="194" y="763"/>
      <point x="179" y="700"/>
      <point x="179" y="646" type="curve" smooth="yes"/>
      <point x="179" y="536" type="line"/>
      <point x="86" y="536" type="line"/>
      <point x="86" y="657" type="line"/>
      <point x="76" y="657" type="line"/>
      <point x="75" y="625"/>
      <point x="77" y="588"/>
      <point x="61" y="563" type="curve"/>
      <point x="55" y="550"/>
      <point x="44" y="539"/>
      <point x="10" y="536" type="curve"/>
      <point x="10" y="526" type="line"/>
      <point x="58" y="526" type="line"/>
      <point x="58" y="141" type="line" smooth="yes"/>
      <point x="58" y="23"/>
      <point x="82" y="-10"/>
      <point x="144" y="-10" type="curve" smooth="yes"/>
      <point x="152" y="-10"/>
      <point x="167" y="-7"/>
      <point x="179" y="-4" type="curve"/>
      <point x="179" y="-126" type="line" smooth="yes"/>
      <point x="179" y="-235"/>
      <point x="154" y="-233"/>
      <point x="141" y="-233" type="curve" smooth="yes"/>
      <point x="112" y="-233"/>
      <point x="97" y="-215"/>
      <point x="97" y="-163" type="curve"/>
      <point x="84" y="-163"/>
      <point x="79" y="-175"/>
      <point x="79" y="-188" type="curve" smooth="yes"/>
      <point x="79" y="-225"/>
      <point x="111" y="-243"/>
    </contour>
    <contour>
      <point x="141" y="0" type="curve" smooth="yes"/>
      <point x="108" y="0"/>
      <point x="86" y="21"/>
      <point x="86" y="120" type="curve" smooth="yes"/>
      <point x="86" y="526" type="line"/>
      <point x="179" y="526" type="line"/>
      <point x="179" y="6" type="line"/>
      <point x="160" y="1"/>
      <point x="152" y="0"/>
    </contour>
  </outline>
</glyph>
<glyph name="uni02AB" format="2">
  <advance width="368"/>
  <unicode hex="02AB"/>
  <anchor x="184" y="0" name="bottom"/>
  <anchor x="184" y="760" name="top"/>
  <outline>
    <contour>
      <point x="7" y="0" type="line"/>
      <point x="307" y="0" type="line"/>
      <point x="312" y="138" type="line"/>
      <point x="302" y="138" type="line"/>
      <point x="300" y="85" type="line" smooth="yes"/>
      <point x="298" y="29"/>
      <point x="291" y="15"/>
      <point x="239" y="15" type="curve" smooth="yes"/>
      <point x="133" y="15" type="line"/>
      <point x="307" y="507" type="line"/>
      <point x="307" y="536" type="line"/>
      <point x="97" y="536" type="line"/>
      <point x="97" y="760" type="line"/>
      <point x="7" y="760" type="line"/>
      <point x="7" y="750" type="line"/>
      <point x="2" y="750" type="line" smooth="yes"/>
      <point x="62" y="750"/>
      <point x="69" y="746"/>
      <point x="69" y="672" type="curve" smooth="yes"/>
      <point x="69" y="84" type="line" smooth="yes"/>
      <point x="69" y="14"/>
      <point x="65" y="10"/>
      <point x="-8" y="10" type="curve" smooth="yes"/>
      <point x="7" y="10" type="line"/>
    </contour>
    <contour>
      <point x="97" y="3" type="line"/>
      <point x="97" y="521" type="line"/>
      <point x="286" y="521" type="line"/>
    </contour>
  </outline>
</glyph>
<glyph name="uni02AF" format="2">
  <advance width="423"/>
  <unicode hex="02AF"/>
  <anchor x="212" y="-240" name="bottom"/>
  <anchor x="212" y="536" name="top"/>
  <outline>
    <contour>
      <point x="412" y="-240" type="curve" smooth="yes"/>
      <point x="419" y="-240"/>
      <point x="436" y="-234"/>
      <point x="442" y="-226" type="curve"/>
      <point x="442" y="-218" type="line"/>
      <point x="431" y="-226"/>
      <point x="418" y="-230"/>
      <point x="409" y="-230" type="curve" smooth="yes"/>
      <point x="361" y="-230"/>
      <point x="353" y="-175"/>
      <point x="353" y="-93" type="curve" smooth="yes"/>
      <point x="353" y="449" type="line" smooth="yes"/>
      <point x="353" y="519"/>
      <point x="361" y="526"/>
      <point x="414" y="526" type="curve" smooth="yes"/>
      <point x="412" y="526" type="line"/>
      <point x="412" y="536" type="line"/>
      <point x="271" y="536" type="line"/>
      <point x="271" y="526" type="line"/>
      <point x="267" y="526" type="line" smooth="yes"/>
      <point x="318" y="526"/>
      <point x="325" y="519"/>
      <point x="325" y="449" type="curve" smooth="yes"/>
      <point x="325" y="204" type="line" smooth="yes"/>
      <point x="325" y="62"/>
      <point x="302" y="9"/>
      <point x="242" y="9" type="curve" smooth="yes"/>
      <point x="174" y="9"/>
      <point x="156" y="68"/>
      <point x="156" y="169" type="curve" smooth="yes"/>
      <point x="156" y="383" type="line" smooth="yes"/>
      <point x="156" y="499"/>
      <point x="128" y="544"/>
      <point x="80" y="544" type="curve" smooth="yes"/>
      <point x="41" y="544"/>
      <point x="22" y="513"/>
      <point x="22" y="486" type="curve" smooth="yes"/>
      <point x="22" y="467"/>
      <point x="30" y="448"/>
      <point x="52" y="449" type="curve"/>
      <point x="48" y="501"/>
      <point x="42" y="534"/>
      <point x="81" y="534" type="curve" smooth="yes"/>
      <point x="123" y="534"/>
      <point x="128" y="483"/>
      <point x="128" y="375" type="curve" smooth="yes"/>
      <point x="128" y="171" type="line" smooth="yes"/>
      <point x="128" y="59"/>
      <point x="170" y="-6"/>
      <point x="232" y="-6" type="curve" smooth="yes"/>
      <point x="282" y="-6"/>
      <point x="317" y="32"/>
      <point x="324" y="87" type="curve"/>
      <point x="326" y="87" type="line"/>
      <point x="325" y="30"/>
      <point x="325" y="41"/>
      <point x="325" y="32" type="curve" smooth="yes"/>
      <point x="325" y="-97" type="line" smooth="yes"/>
      <point x="325" y="-201"/>
      <point x="359" y="-240"/>
    </contour>
  </outline>
</glyph>
<glyph name="uni02BA" format="2">
  <advance width="204"/>
  <unicode hex="02BA"/>
  <outline>
    <contour>
      <point x="18" y="498" type="curve"/>
      <point x="36" y="498" type="line"/>
      <point x="55" y="591"/>
      <point x="62" y="641"/>
      <point x="68" y="703" type="curve"/>
      <point x="65" y="714" type="line"/>
      <point x="39" y="714" type="line"/>
      <point x="39" y="634"/>
      <point x="33" y="587"/>
    </contour>
    <contour>
      <point x="102" y="498" type="curve"/>
      <point x="120" y="498" type="line"/>
      <point x="139" y="591"/>
      <point x="146" y="641"/>
      <point x="152" y="703" type="curve"/>
      <point x="149" y="714" type="line"/>
      <point x="123" y="714" type="line"/>
      <point x="123" y="634"/>
      <point x="117" y="587"/>
    </contour>
  </outline>
</glyph>
<glyph name="uni02C4" format="2">
  <advance width="162"/>
  <unicode hex="02C4"/>
  <outline>
    <contour>
      <point x="-1" y="574" type="line"/>
      <point x="13" y="574" type="line"/>
      <point x="50" y="649"/>
      <point x="57" y="675"/>
      <point x="82" y="743" type="curve"/>
      <point x="105" y="675"/>
      <point x="114" y="649"/>
      <point x="151" y="574" type="curve"/>
      <point x="165" y="574" type="line"/>
      <point x="165" y="576" type="line"/>
      <point x="145" y="624"/>
      <point x="124" y="689"/>
      <point x="98" y="786" type="curve"/>
      <point x="65" y="786" type="line"/>
      <point x="52" y="724"/>
      <point x="32" y="655"/>
      <point x="-1" y="576" type="curve"/>
    </contour>
  </outline>
</glyph>
<glyph name="circumflex" format="2">
  <advance width="235"/>
  <unicode hex="02C6"/>
  <outline>
    <contour>
      <point x="40" y="606" type="line"/>
      <point x="42" y="606" type="line"/>
      <point x="70" y="656"/>
      <point x="95" y="699"/>
      <point x="119" y="741" type="curve"/>
      <point x="139" y="699"/>
      <point x="164" y="656"/>
      <point x="193" y="606" type="curve"/>
      <point x="195" y="606" type="line"/>
      <point x="195" y="615" type="line"/>
      <point x="177" y="652"/>
      <point x="151" y="721"/>
      <point x="135" y="766" type="curve"/>
      <point x="102" y="766" type="line"/>
      <point x="82" y="721"/>
      <point x="57" y="652"/>
      <point x="40" y="615" type="curve"/>
    </contour>
  </outline>
</glyph>
<glyph name="caron" format="2">
  <advance width="235"/>
  <unicode hex="02C7"/>
  <outline>
    <contour>
      <point x="102" y="606" type="curve"/>
      <point x="135" y="606" type="line"/>
      <point x="151" y="651"/>
      <point x="177" y="720"/>
      <point x="195" y="757" type="curve"/>
      <point x="195" y="766" type="line"/>
      <point x="193" y="766" type="line"/>
      <point x="164" y="716"/>
      <point x="139" y="673"/>
      <point x="119" y="631" type="curve"/>
      <point x="95" y="673"/>
      <point x="70" y="716"/>
      <point x="42" y="766" type="curve"/>
      <point x="40" y="766" type="line"/>
      <point x="40" y="757" type="line"/>
      <point x="57" y="720"/>
      <point x="82" y="651"/>
    </contour>
  </outline>
</glyph>
<glyph name="ring" format="2">
  <advance width="198"/>
  <unicode hex="02DA"/>
  <outline>
    <contour>
      <point x="98" y="596" type="curve" smooth="yes"/>
      <point x="146" y="596"/>
      <point x="169" y="639"/>
      <point x="169" y="705" type="curve" smooth="yes"/>
      <point x="169" y="771"/>
      <point x="146" y="814"/>
      <point x="98" y="814" type="curve" smooth="yes"/>
      <point x="49" y="814"/>
      <point x="26" y="771"/>
      <point x="26" y="705" type="curve" smooth="yes"/>
      <point x="26" y="639"/>
      <point x="49" y="596"/>
    </contour>
    <contour>
      <point x="99" y="606" type="curve" smooth="yes"/>
      <point x="59" y="606"/>
      <point x="38" y="647"/>
      <point x="38" y="705" type="curve" smooth="yes"/>
      <point x="38" y="763"/>
      <point x="59" y="804"/>
      <point x="99" y="804" type="curve" smooth="yes"/>
      <point x="137" y="804"/>
      <point x="157" y="763"/>
      <point x="157" y="705" type="curve" smooth="yes"/>
      <point x="157" y="647"/>
      <point x="137" y="606"/>
    </contour>
  </outline>
</glyph>
<glyph name="ogonek" format="2">
  <advance width="185"/>
  <unicode hex="02DB"/>
  <outline>
    <contour>
      <point x="109" y="-232" type="curve" smooth="yes"/>
      <point x="123" y="-232"/>
      <point x="131" y="-229"/>
      <point x="145" y="-220" type="curve"/>
      <point x="145" y="-209" type="line"/>
      <point x="133" y="-220"/>
      <point x="117" y="-223"/>
      <point x="112" y="-223" type="curve" smooth="yes"/>
      <point x="86" y="-223"/>
      <point x="69" y="-197"/>
      <point x="69" y="-135" type="curve" smooth="yes"/>
      <point x="69" y="-47"/>
      <point x="100" y="-15"/>
      <point x="116" y="0" type="curve"/>
      <point x="101" y="0" type="line"/>
      <point x="95" y="-11"/>
      <point x="40" y="-42"/>
      <point x="40" y="-134" type="curve" smooth="yes"/>
      <point x="40" y="-199"/>
      <point x="74" y="-232"/>
    </contour>
  </outline>
</glyph>
<glyph name="tilde" format="2">
  <advance width="278"/>
  <unicode hex="02DC"/>
  <outline>
    <contour>
      <point x="184" y="597" type="curve" smooth="yes"/>
      <point x="227" y="597"/>
      <point x="234" y="646"/>
      <point x="238" y="685" type="curve"/>
      <point x="228" y="685" type="line"/>
      <point x="225" y="654"/>
      <point x="220" y="623"/>
      <point x="194" y="623" type="curve" smooth="yes"/>
      <point x="140" y="623"/>
      <point x="133" y="700"/>
      <point x="86" y="700" type="curve" smooth="yes"/>
      <point x="46" y="700"/>
      <point x="44" y="654"/>
      <point x="40" y="616" type="curve"/>
      <point x="50" y="616" type="line"/>
      <point x="51" y="650"/>
      <point x="59" y="674"/>
      <point x="76" y="674" type="curve" smooth="yes"/>
      <point x="124" y="674"/>
      <point x="130" y="597"/>
    </contour>
  </outline>
</glyph>
<glyph name="uni02EC" format="2">
  <advance width="230"/>
  <unicode hex="02EC"/>
  <outline>
    <contour>
      <point x="97" y="-230" type="curve"/>
      <point x="131" y="-230" type="line"/>
      <point x="147" y="-184"/>
      <point x="170" y="-126"/>
      <point x="190" y="-85" type="curve"/>
      <point x="190" y="-73" type="line"/>
      <point x="180" y="-73" type="line"/>
      <point x="157" y="-121"/>
      <point x="136" y="-152"/>
      <point x="114" y="-192" type="curve"/>
      <point x="91" y="-152"/>
      <point x="73" y="-121"/>
      <point x="46" y="-73" type="curve"/>
      <point x="40" y="-73" type="line"/>
      <point x="40" y="-85" type="line"/>
      <point x="58" y="-128"/>
      <point x="79" y="-184"/>
    </contour>
  </outline>
</glyph>
<glyph name="uni02F3" format="2">
  <advance width="196"/>
  <unicode hex="02F3"/>
  <outline>
    <contour>
      <point x="98" y="-215" type="curve" smooth="yes"/>
      <point x="137" y="-215"/>
      <point x="162" y="-179"/>
      <point x="162" y="-120" type="curve" smooth="yes"/>
      <point x="162" y="-61"/>
      <point x="137" y="-25"/>
      <point x="98" y="-25" type="curve" smooth="yes"/>
      <point x="60" y="-25"/>
      <point x="37" y="-61"/>
      <point x="37" y="-120" type="curve" smooth="yes"/>
      <point x="37" y="-179"/>
      <point x="60" y="-215"/>
    </contour>
    <contour>
      <point x="98" y="-205" type="curve" smooth="yes"/>
      <point x="67" y="-205"/>
      <point x="49" y="-171"/>
      <point x="49" y="-120" type="curve" smooth="yes"/>
      <point x="49" y="-67"/>
      <point x="67" y="-35"/>
      <point x="98" y="-35" type="curve" smooth="yes"/>
      <point x="130" y="-35"/>
      <point x="150" y="-67"/>
      <point x="150" y="-120" type="curve" smooth="yes"/>
      <point x="150" y="-171"/>
      <point x="130" y="-205"/>
    </contour>
  </outline>
</glyph>
<glyph name="uni02F7" format="2">
  <advance width="278"/>
  <unicode hex="02F7"/>
  <outline>
    <contour>
      <point x="186" y="-182" type="curve" smooth="yes"/>
      <point x="227" y="-182"/>
      <point x="234" y="-132"/>
      <point x="238" y="-95" type="curve"/>
      <point x="228" y="-95" type="line"/>
      <point x="225" y="-103"/>
      <point x="235" y="-158"/>
      <point x="196" y="-158" type="curve" smooth="yes"/>
      <point x="139" y="-158"/>
      <point x="131" y="-83"/>
      <point x="86" y="-83" type="curve" smooth="yes"/>
      <point x="43" y="-83"/>
      <point x="42" y="-141"/>
      <point x="40" y="-167" type="curve"/>
      <point x="50" y="-167" type="line"/>
      <point x="51" y="-145"/>
      <point x="52" y="-108"/>
      <point x="76" y="-108" type="curve" smooth="yes"/>
      <point x="124" y="-108"/>
      <point x="132" y="-182"/>
    </contour>
  </outline>
</glyph>
<glyph name="cedillacomb" format="2">
  <unicode hex="0327"/>
  <anchor x="0" y="0" name="_bottom"/>
  <anchor x="0" y="-223" name="bottom"/>
  <outline>
    <contour>
      <point x="-19" y="-221" type="curve" smooth="yes"/>
      <point x="35" y="-221"/>
      <point x="58" y="-178"/>
      <point x="58" y="-135" type="curve" smooth="yes"/>
      <point x="58" y="-92"/>
      <point x="44" y="-58"/>
      <point x="-7" y="-53" type="curve"/>
      <point x="1" y="3" type="line"/>
      <point x="-7" y="3" type="line"/>
      <point x="-17" y="-56" type="line"/>
      <point x="14" y="-57"/>
      <point x="27" y="-82"/>
      <point x="27" y="-134" type="curve" smooth="yes"/>
      <point x="27" y="-183"/>
      <point x="8" y="-211"/>
      <point x="-22" y="-211" type="curve" smooth="yes"/>
      <point x="-29" y="-211"/>
      <point x="-45" y="-207"/>
      <point x="-57" y="-201" type="curve"/>
      <point x="-57" y="-211" type="line"/>
      <point x="-45" y="-218"/>
      <point x="-33" y="-221"/>
    </contour>
  </outline>
</glyph>
<glyph name="ogonekcomb" format="2">
  <unicode hex="0328"/>
  <anchor x="-8" y="0" name="_bottom"/>
  <outline>
    <contour>
      <point x="8" y="-232" type="curve" smooth="yes"/>
      <point x="22" y="-232"/>
      <point x="30" y="-229"/>
      <point x="44" y="-220" type="curve"/>
      <point x="44" y="-209" type="line"/>
      <point x="32" y="-220"/>
      <point x="16" y="-223"/>
      <point x="11" y="-223" type="curve" smooth="yes"/>
      <point x="-15" y="-223"/>
      <point x="-32" y="-197"/>
      <point x="-32" y="-135" type="curve" smooth="yes"/>
      <point x="-32" y="-47"/>
      <point x="-4" y="-17"/>
      <point x="15" y="0" type="curve"/>
      <point x="0" y="0" type="line"/>
      <point x="-9" y="-13"/>
      <point x="-61" y="-42"/>
      <point x="-61" y="-134" type="curve" smooth="yes"/>
      <point x="-61" y="-204"/>
      <point x="-32" y="-232"/>
    </contour>
  </outline>
</glyph>
<glyph name="tildebelowcomb" format="2">
  <unicode hex="0330"/>
  <anchor x="-15" y="0" name="_bottom"/>
  <anchor x="-15" y="-160" name="bottom"/>
  <outline>
    <contour>
      <point x="29" y="-160" type="curve" smooth="yes"/>
      <point x="76" y="-160"/>
      <point x="81" y="-109"/>
      <point x="85" y="-72" type="curve"/>
      <point x="75" y="-72" type="line"/>
      <point x="74" y="-99"/>
      <point x="63" y="-130"/>
      <point x="36" y="-130" type="curve" smooth="yes"/>
      <point x="-19" y="-130"/>
      <point x="-18" y="-62"/>
      <point x="-65" y="-62" type="curve" smooth="yes"/>
      <point x="-107" y="-62"/>
      <point x="-109" y="-108"/>
      <point x="-113" y="-146" type="curve"/>
      <point x="-103" y="-146" type="line"/>
      <point x="-104" y="-114"/>
      <point x="-89" y="-92"/>
      <point x="-71" y="-92" type="curve" smooth="yes"/>
      <point x="-23" y="-92"/>
      <point x="-26" y="-160"/>
    </contour>
  </outline>
</glyph>
<glyph name="slashlongoverlaycomb" format="2">
  <unicode hex="0338"/>
  <anchor x="-34" y="343" name="_center"/>
  <outline>
    <contour>
      <point x="-133" y="-60" type="line"/>
      <point x="79" y="755" type="line"/>
      <point x="68" y="756" type="line"/>
      <point x="-144" y="-58" type="line"/>
    </contour>
  </outline>
</glyph>
<glyph name="righthalfringabovecomb" format="2">
  <unicode hex="0357"/>
  <anchor x="2" y="536" name="_top"/>
  <anchor x="2" y="813" name="top"/>
  <outline>
    <contour>
      <point x="-42" y="583" type="line"/>
      <point x="2" y="583"/>
      <point x="44" y="622"/>
      <point x="44" y="698" type="curve" smooth="yes"/>
      <point x="44" y="775"/>
      <point x="2" y="813"/>
      <point x="-42" y="813" type="curve"/>
      <point x="-42" y="803" type="line"/>
      <point x="-12" y="798"/>
      <point x="15" y="780"/>
      <point x="15" y="698" type="curve" smooth="yes"/>
      <point x="15" y="615"/>
      <point x="-12" y="598"/>
      <point x="-42" y="593" type="curve"/>
    </contour>
  </outline>
</glyph>
<glyph name="doublebrevecomb" format="2">
  <unicode hex="035D"/>
  <anchor x="0" y="536" name="_top"/>
  <anchor x="0" y="758" name="top"/>
  <outline>
    <contour>
      <point x="0" y="595" type="curve" smooth="yes"/>
      <point x="120" y="595"/>
      <point x="180" y="631"/>
      <point x="228" y="758" type="curve"/>
      <point x="217" y="758" type="line"/>
      <point x="195" y="689"/>
      <point x="140" y="628"/>
      <point x="0" y="628" type="curve" smooth="yes"/>
      <point x="-141" y="628"/>
      <point x="-194" y="689"/>
      <point x="-216" y="758" type="curve"/>
      <point x="-227" y="758" type="line"/>
      <point x="-180" y="630"/>
      <point x="-121" y="595"/>
    </contour>
  </outline>
</glyph>
<glyph name="uni0374" format="2">
  <advance width="105"/>
  <unicode hex="0374"/>
  <outline>
    <contour>
      <point x="32" y="559" type="line"/>
      <point x="34" y="559" type="line"/>
      <point x="59" y="612"/>
      <point x="77" y="657"/>
      <point x="90" y="706" type="curve"/>
      <point x="90" y="714" type="line"/>
      <point x="58" y="714" type="line"/>
      <point x="50" y="649"/>
      <point x="47" y="629"/>
      <point x="32" y="572" type="curve"/>
    </contour>
  </outline>
</glyph>
<glyph name="uni0375" format="2">
  <advance width="105"/>
  <unicode hex="0375"/>
  <outline>
    <contour>
      <point x="24" y="-240" type="line"/>
      <point x="55" y="-240" type="line"/>
      <point x="63" y="-175"/>
      <point x="67" y="-155"/>
      <point x="81" y="-98" type="curve"/>
      <point x="81" y="-85" type="line"/>
      <point x="79" y="-85" type="line"/>
      <point x="54" y="-138"/>
      <point x="36" y="-183"/>
      <point x="24" y="-232" type="curve"/>
    </contour>
  </outline>
</glyph>
<glyph name="Gamma" format="2">
  <advance width="303"/>
  <unicode hex="0393"/>
  <anchor x="152" y="0" name="bottom"/>
  <anchor x="152" y="714" name="top"/>
  <outline>
    <contour>
      <point x="27" y="0" type="line"/>
      <point x="181" y="0" type="line"/>
      <point x="181" y="10" type="line"/>
      <point x="166" y="10" type="line" smooth="yes"/>
      <point x="116" y="10"/>
      <point x="110" y="21"/>
      <point x="110" y="98" type="curve" smooth="yes"/>
      <point x="110" y="704" type="line"/>
      <point x="238" y="704" type="line" smooth="yes"/>
      <point x="291" y="704"/>
      <point x="294" y="684"/>
      <point x="295" y="634" type="curve" smooth="yes"/>
      <point x="296" y="573" type="line"/>
      <point x="306" y="573" type="line"/>
      <point x="303" y="714" type="line"/>
      <point x="27" y="714" type="line"/>
      <point x="27" y="704" type="line"/>
      <point x="26" y="704" type="line" smooth="yes"/>
      <point x="76" y="704"/>
      <point x="82" y="693"/>
      <point x="82" y="617" type="curve" smooth="yes"/>
      <point x="82" y="98" type="line" smooth="yes"/>
      <point x="82" y="21"/>
      <point x="76" y="10"/>
      <point x="28" y="10" type="curve" smooth="yes"/>
      <point x="27" y="10" type="line"/>
    </contour>
  </outline>
</glyph>
<glyph name="Lambda" format="2">
  <advance width="397"/>
  <unicode hex="039B"/>
  <anchor x="207" y="0" name="bottom"/>
  <anchor x="202" y="714" name="top"/>
  <outline>
    <contour>
      <point x="3" y="0" type="line"/>
      <point x="162" y="0" type="line"/>
      <point x="162" y="10" type="line"/>
      <point x="141" y="10" type="line" smooth="yes"/>
      <point x="94" y="10"/>
      <point x="93" y="24"/>
      <point x="93" y="39" type="curve" smooth="yes"/>
      <point x="93" y="66"/>
      <point x="95" y="86"/>
      <point x="111" y="163" type="curve" smooth="yes"/>
      <point x="157" y="466" type="line" smooth="yes"/>
      <point x="172" y="559"/>
      <point x="180" y="608"/>
      <point x="195" y="680" type="curve"/>
      <point x="208" y="600"/>
      <point x="214" y="561"/>
      <point x="229" y="470" type="curve" smooth="yes"/>
      <point x="278" y="160" type="line" smooth="yes"/>
      <point x="282" y="138"/>
      <point x="299" y="67"/>
      <point x="299" y="39" type="curve" smooth="yes"/>
      <point x="299" y="26"/>
      <point x="308" y="10"/>
      <point x="259" y="10" type="curve" smooth="yes"/>
      <point x="243" y="10" type="line"/>
      <point x="243" y="0" type="line"/>
      <point x="381" y="0" type="line"/>
      <point x="381" y="10" type="line"/>
      <point x="390" y="10" type="line" smooth="yes"/>
      <point x="344" y="10"/>
      <point x="335" y="15"/>
      <point x="328" y="57" type="curve" smooth="yes"/>
      <point x="212" y="714" type="line"/>
      <point x="189" y="714" type="line"/>
      <point x="70" y="37" type="line" smooth="yes"/>
      <point x="69" y="8"/>
      <point x="54" y="10"/>
      <point x="-8" y="10" type="curve" smooth="yes"/>
      <point x="3" y="10" type="line"/>
    </contour>
  </outline>
</glyph>
<glyph name="Pi" format="2">
  <advance width="438"/>
  <unicode hex="03A0"/>
  <anchor x="220" y="0" name="bottom"/>
  <anchor x="220" y="714" name="top"/>
  <outline>
    <contour>
      <point x="28" y="0" type="line"/>
      <point x="180" y="0" type="line"/>
      <point x="180" y="10" type="line"/>
      <point x="170" y="10" type="line" smooth="yes"/>
      <point x="117" y="10"/>
      <point x="112" y="21"/>
      <point x="112" y="98" type="curve" smooth="yes"/>
      <point x="112" y="704" type="line"/>
      <point x="323" y="704" type="line"/>
      <point x="323" y="98" type="line" smooth="yes"/>
      <point x="323" y="21"/>
      <point x="316" y="10"/>
      <point x="268" y="10" type="curve" smooth="yes"/>
      <point x="257" y="10" type="line"/>
      <point x="257" y="0" type="line"/>
      <point x="411" y="0" type="line"/>
      <point x="411" y="10" type="line"/>
      <point x="407" y="10" type="line" smooth="yes"/>
      <point x="357" y="10"/>
      <point x="351" y="21"/>
      <point x="351" y="98" type="curve" smooth="yes"/>
      <point x="351" y="617" type="line" smooth="yes"/>
      <point x="351" y="693"/>
      <point x="358" y="704"/>
      <point x="406" y="704" type="curve" smooth="yes"/>
      <point x="411" y="704" type="line"/>
      <point x="411" y="714" type="line"/>
      <point x="28" y="714" type="line"/>
      <point x="28" y="704" type="line"/>
      <point x="29" y="704" type="line" smooth="yes"/>
      <point x="77" y="704"/>
      <point x="84" y="693"/>
      <point x="84" y="617" type="curve" smooth="yes"/>
      <point x="84" y="98" type="line" smooth="yes"/>
      <point x="84" y="21"/>
      <point x="79" y="10"/>
      <point x="26" y="10" type="curve" smooth="yes"/>
      <point x="28" y="10" type="line"/>
    </contour>
  </outline>
</glyph>
<glyph name="Psi" format="2">
  <advance width="432"/>
  <unicode hex="03A8"/>
  <anchor x="216" y="0" name="bottom"/>
  <anchor x="216" y="714" name="top"/>
  <outline>
    <contour>
      <point x="142" y="0" type="line"/>
      <point x="292" y="0" type="line"/>
      <point x="292" y="10" type="line"/>
      <point x="295" y="10" type="line" smooth="yes"/>
      <point x="233" y="10"/>
      <point x="229" y="21"/>
      <point x="229" y="98" type="curve" smooth="yes"/>
      <point x="229" y="261" type="line"/>
      <point x="235" y="261" type="line" smooth="yes"/>
      <point x="327" y="261"/>
      <point x="382" y="322"/>
      <point x="382" y="494" type="curve" smooth="yes"/>
      <point x="382" y="593" type="line" smooth="yes"/>
      <point x="382" y="690"/>
      <point x="387" y="704"/>
      <point x="431" y="704" type="curve"/>
      <point x="431" y="714" type="line"/>
      <point x="354" y="714" type="line"/>
      <point x="354" y="478" type="line" smooth="yes"/>
      <point x="354" y="331"/>
      <point x="324" y="271"/>
      <point x="243" y="271" type="curve" smooth="yes"/>
      <point x="229" y="271" type="line"/>
      <point x="229" y="617" type="line" smooth="yes"/>
      <point x="229" y="693"/>
      <point x="237" y="704"/>
      <point x="292" y="704" type="curve" smooth="yes"/>
      <point x="294" y="704" type="line"/>
      <point x="294" y="714" type="line"/>
      <point x="141" y="714" type="line"/>
      <point x="141" y="704" type="line"/>
      <point x="139" y="704" type="line" smooth="yes"/>
      <point x="196" y="704"/>
      <point x="201" y="693"/>
      <point x="201" y="617" type="curve" smooth="yes"/>
      <point x="201" y="271" type="line"/>
      <point x="204" y="271" type="line" smooth="yes"/>
      <point x="131" y="271"/>
      <point x="80" y="324"/>
      <point x="80" y="478" type="curve" smooth="yes"/>
      <point x="80" y="714" type="line"/>
      <point x="3" y="714" type="line"/>
      <point x="3" y="704" type="line"/>
      <point x="47" y="704"/>
      <point x="52" y="692"/>
      <point x="52" y="593" type="curve" smooth="yes"/>
      <point x="52" y="494" type="line" smooth="yes"/>
      <point x="52" y="305"/>
      <point x="122" y="261"/>
      <point x="202" y="261" type="curve" smooth="yes"/>
      <point x="201" y="261" type="line"/>
      <point x="201" y="98" type="line" smooth="yes"/>
      <point x="201" y="21"/>
      <point x="196" y="10"/>
      <point x="138" y="10" type="curve" smooth="yes"/>
      <point x="142" y="10" type="line"/>
    </contour>
  </outline>
</glyph>
<glyph name="alpha" format="2">
  <advance width="348"/>
  <unicode hex="03B1"/>
  <anchor x="174" y="0" name="bottom"/>
  <anchor x="174" y="536" name="top"/>
  <outline>
    <contour>
      <point x="143" y="-10" type="curve" smooth="yes"/>
      <point x="213" y="-10"/>
      <point x="237" y="65"/>
      <point x="253" y="138" type="curve"/>
      <point x="255" y="138" type="line"/>
      <point x="255" y="42"/>
      <point x="298" y="0"/>
      <point x="326" y="0" type="curve" smooth="yes"/>
      <point x="339" y="0" type="line"/>
      <point x="339" y="10" type="line"/>
      <point x="340" y="10" type="line" smooth="yes"/>
      <point x="303" y="10"/>
      <point x="285" y="50"/>
      <point x="285" y="123" type="curve" smooth="yes"/>
      <point x="285" y="345" type="line"/>
      <point x="285" y="385"/>
      <point x="290" y="498"/>
      <point x="298" y="536" type="curve"/>
      <point x="271" y="536" type="line"/>
      <point x="270" y="521"/>
      <point x="264" y="475"/>
      <point x="261" y="402" type="curve"/>
      <point x="259" y="402" type="line"/>
      <point x="244" y="509"/>
      <point x="211" y="549"/>
      <point x="166" y="549" type="curve" smooth="yes"/>
      <point x="88" y="549"/>
      <point x="37" y="451"/>
      <point x="37" y="267" type="curve" smooth="yes"/>
      <point x="37" y="58"/>
      <point x="64" y="-10"/>
    </contour>
    <contour>
      <point x="143" y="-3" type="curve" smooth="yes"/>
      <point x="86" y="-3"/>
      <point x="65" y="56"/>
      <point x="65" y="264" type="curve" smooth="yes"/>
      <point x="65" y="436"/>
      <point x="95" y="542"/>
      <point x="170" y="542" type="curve" smooth="yes"/>
      <point x="204" y="542"/>
      <point x="250" y="493"/>
      <point x="257" y="330" type="curve"/>
      <point x="257" y="325" type="line" smooth="yes"/>
      <point x="257" y="133"/>
      <point x="222" y="-3"/>
    </contour>
  </outline>
</glyph>
<glyph name="zeta" format="2">
  <advance width="260"/>
  <unicode hex="03B6"/>
  <anchor x="130" y="-203" name="bottom"/>
  <anchor x="130" y="758" name="top"/>
  <outline>
    <contour>
      <point x="166" y="-203" type="line"/>
      <point x="213" y="-169"/>
      <point x="236" y="-106"/>
      <point x="236" y="-64" type="curve" smooth="yes"/>
      <point x="236" y="-6"/>
      <point x="213" y="23"/>
      <point x="151" y="37" type="curve" smooth="yes"/>
      <point x="87" y="51"/>
      <point x="62" y="98"/>
      <point x="62" y="232" type="curve" smooth="yes"/>
      <point x="62" y="356"/>
      <point x="85" y="545"/>
      <point x="179" y="675" type="curve"/>
      <point x="191" y="672"/>
      <point x="205" y="671"/>
      <point x="218" y="671" type="curve" smooth="yes"/>
      <point x="254" y="671"/>
      <point x="262" y="682"/>
      <point x="262" y="694" type="curve" smooth="yes"/>
      <point x="262" y="708"/>
      <point x="254" y="715"/>
      <point x="235" y="715" type="curve" smooth="yes"/>
      <point x="218" y="715"/>
      <point x="198" y="706"/>
      <point x="181" y="689" type="curve"/>
      <point x="156" y="694"/>
      <point x="82" y="742"/>
      <point x="78" y="762" type="curve"/>
      <point x="73" y="752" type="line"/>
      <point x="88" y="727"/>
      <point x="144" y="691"/>
      <point x="172" y="680" type="curve"/>
      <point x="100" y="577"/>
      <point x="34" y="357"/>
      <point x="34" y="205" type="curve" smooth="yes"/>
      <point x="34" y="92"/>
      <point x="64" y="32"/>
      <point x="141" y="12" type="curve" smooth="yes"/>
      <point x="201" y="-4"/>
      <point x="213" y="-34"/>
      <point x="213" y="-76" type="curve" smooth="yes"/>
      <point x="213" y="-134"/>
      <point x="192" y="-166"/>
      <point x="166" y="-191" type="curve"/>
    </contour>
  </outline>
</glyph>
<glyph name="phi" format="2">
  <advance width="394"/>
  <unicode hex="03C6"/>
  <anchor x="198" y="-240" name="bottom"/>
  <anchor x="198" y="544" name="top"/>
  <anchor x="374" y="536" name="topright"/>
  <outline>
    <contour>
      <point x="188" y="-240" type="line"/>
      <point x="213" y="-240" type="line"/>
      <point x="213" y="-9" type="line"/>
      <point x="313" y="4"/>
      <point x="359" y="114"/>
      <point x="359" y="265" type="curve" smooth="yes"/>
      <point x="359" y="402"/>
      <point x="333" y="544"/>
      <point x="253" y="544" type="curve" smooth="yes"/>
      <point x="202" y="544"/>
      <point x="188" y="485"/>
      <point x="188" y="395" type="curve" smooth="yes"/>
      <point x="188" y="0" type="line"/>
      <point x="90" y="18"/>
      <point x="63" y="141"/>
      <point x="63" y="270" type="curve" smooth="yes"/>
      <point x="63" y="390"/>
      <point x="84" y="499"/>
      <point x="140" y="538" type="curve"/>
      <point x="134" y="544" type="line"/>
      <point x="60" y="512"/>
      <point x="35" y="388"/>
      <point x="35" y="270" type="curve" smooth="yes"/>
      <point x="35" y="113"/>
      <point x="85" y="4"/>
      <point x="188" y="-9" type="curve"/>
    </contour>
    <contour>
      <point x="213" y="0" type="curve"/>
      <point x="213" y="388" type="line" smooth="yes"/>
      <point x="213" y="501"/>
      <point x="219" y="534"/>
      <point x="259" y="534" type="curve" smooth="yes"/>
      <point x="303" y="534"/>
      <point x="331" y="413"/>
      <point x="331" y="265" type="curve" smooth="yes"/>
      <point x="331" y="110"/>
      <point x="291" y="11"/>
    </contour>
  </outline>
</glyph>
<glyph name="uni03D2" format="2">
  <advance width="355"/>
  <unicode hex="03D2"/>
  <anchor x="175" y="714" name="top"/>
  <outline>
    <contour>
      <point x="111" y="0" type="line"/>
      <point x="253" y="0" type="line"/>
      <point x="253" y="10" type="line"/>
      <point x="278" y="10" type="line" smooth="yes"/>
      <point x="198" y="10"/>
      <point x="197" y="14"/>
      <point x="197" y="78" type="curve" smooth="yes"/>
      <point x="197" y="220" type="line" smooth="yes"/>
      <point x="197" y="329"/>
      <point x="239" y="494"/>
      <point x="246" y="526" type="curve" smooth="yes"/>
      <point x="291" y="686"/>
      <point x="304" y="688"/>
      <point x="315" y="688" type="curve" smooth="yes"/>
      <point x="333" y="688"/>
      <point x="331" y="663"/>
      <point x="331" y="607" type="curve"/>
      <point x="341" y="605"/>
      <point x="360" y="625"/>
      <point x="360" y="652" type="curve" smooth="yes"/>
      <point x="360" y="691"/>
      <point x="348" y="721"/>
      <point x="316" y="721" type="curve" smooth="yes"/>
      <point x="290" y="721"/>
      <point x="271" y="685"/>
      <point x="260" y="642" type="curve" smooth="yes"/>
      <point x="251" y="609"/>
      <point x="206" y="417"/>
      <point x="191" y="271" type="curve"/>
      <point x="152" y="410"/>
      <point x="113" y="505"/>
      <point x="94" y="578" type="curve" smooth="yes"/>
      <point x="47" y="715"/>
      <point x="32" y="714"/>
      <point x="-20" y="714" type="curve" smooth="yes"/>
      <point x="-6" y="714" type="line"/>
      <point x="-6" y="705" type="line"/>
      <point x="-7" y="705" type="line" smooth="yes"/>
      <point x="16" y="705"/>
      <point x="27" y="703"/>
      <point x="62" y="588" type="curve" smooth="yes"/>
      <point x="100" y="451"/>
      <point x="169" y="336"/>
      <point x="169" y="204" type="curve" smooth="yes"/>
      <point x="169" y="78" type="line" smooth="yes"/>
      <point x="169" y="14"/>
      <point x="163" y="10"/>
      <point x="86" y="10" type="curve" smooth="yes"/>
      <point x="111" y="10" type="line"/>
    </contour>
  </outline>
</glyph>
<glyph name="uni03D8" format="2">
  <advance width="426"/>
  <unicode hex="03D8"/>
  <anchor x="213" y="0" name="bottom"/>
  <anchor x="213" y="714" name="top"/>
  <outline>
    <contour>
      <point x="138" y="0" type="line"/>
      <point x="285" y="0" type="line"/>
      <point x="285" y="10" type="line"/>
      <point x="296" y="10" type="line" smooth="yes"/>
      <point x="236" y="10"/>
      <point x="227" y="21"/>
      <point x="227" y="100" type="curve" smooth="yes"/>
      <point x="227" y="120" type="line"/>
      <point x="324" y="129"/>
      <point x="390" y="208"/>
      <point x="390" y="424" type="curve" smooth="yes"/>
      <point x="390" y="626"/>
      <point x="328" y="725"/>
      <point x="214" y="725" type="curve" smooth="yes"/>
      <point x="91" y="725"/>
      <point x="35" y="628"/>
      <point x="35" y="425" type="curve" smooth="yes"/>
      <point x="35" y="217"/>
      <point x="85" y="128"/>
      <point x="199" y="120" type="curve"/>
      <point x="199" y="100" type="line" smooth="yes"/>
      <point x="199" y="21"/>
      <point x="191" y="10"/>
      <point x="130" y="10" type="curve" smooth="yes"/>
      <point x="138" y="10" type="line"/>
    </contour>
    <contour>
      <point x="211" y="130" type="curve" smooth="yes"/>
      <point x="84" y="130"/>
      <point x="62" y="240"/>
      <point x="62" y="422" type="curve" smooth="yes"/>
      <point x="62" y="612"/>
      <point x="99" y="715"/>
      <point x="211" y="715" type="curve" smooth="yes"/>
      <point x="322" y="715"/>
      <point x="362" y="612"/>
      <point x="362" y="423" type="curve" smooth="yes"/>
      <point x="362" y="237"/>
      <point x="324" y="130"/>
    </contour>
  </outline>
</glyph>
<glyph name="uni03D9" format="2">
  <advance width="329"/>
  <unicode hex="03D9"/>
  <anchor x="164" y="-240" name="bottom"/>
  <anchor x="164" y="536" name="top"/>
  <outline>
    <contour>
      <point x="151" y="-240" type="line"/>
      <point x="179" y="-240" type="line"/>
      <point x="179" y="-8" type="line"/>
      <point x="254" y="-1"/>
      <point x="293" y="80"/>
      <point x="293" y="267" type="curve" smooth="yes"/>
      <point x="293" y="442"/>
      <point x="259" y="542"/>
      <point x="165" y="542" type="curve" smooth="yes"/>
      <point x="72" y="542"/>
      <point x="37" y="449"/>
      <point x="37" y="267" type="curve" smooth="yes"/>
      <point x="37" y="84"/>
      <point x="77" y="-1"/>
      <point x="151" y="-9" type="curve"/>
    </contour>
    <contour>
      <point x="166" y="0" type="curve" smooth="yes"/>
      <point x="97" y="0"/>
      <point x="64" y="83"/>
      <point x="65" y="267" type="curve" smooth="yes"/>
      <point x="65" y="449"/>
      <point x="87" y="532"/>
      <point x="162" y="532" type="curve" smooth="yes"/>
      <point x="244" y="532"/>
      <point x="265" y="446"/>
      <point x="265" y="267" type="curve" smooth="yes"/>
      <point x="265" y="80"/>
      <point x="239" y="0"/>
    </contour>
  </outline>
</glyph>
<glyph name="uni03F0" format="2">
  <advance width="365"/>
  <unicode hex="03F0"/>
  <anchor x="181" y="0" name="bottom"/>
  <anchor x="181" y="536" name="top"/>
  <outline>
    <contour>
      <point x="297" y="-14" type="curve" smooth="yes"/>
      <point x="336" y="-14"/>
      <point x="344" y="13"/>
      <point x="342" y="21" type="curve"/>
      <point x="257" y="23"/>
      <point x="248" y="83"/>
      <point x="248" y="123" type="curve" smooth="yes"/>
      <point x="248" y="265"/>
      <point x="316" y="455"/>
      <point x="347" y="536" type="curve"/>
      <point x="318" y="536" type="line"/>
      <point x="70" y="57" type="line"/>
      <point x="97" y="144"/>
      <point x="145" y="336"/>
      <point x="145" y="449" type="curve" smooth="yes"/>
      <point x="145" y="505"/>
      <point x="133" y="546"/>
      <point x="83" y="546" type="curve" smooth="yes"/>
      <point x="43" y="546"/>
      <point x="35" y="520"/>
      <point x="35" y="509" type="curve"/>
      <point x="113" y="509"/>
      <point x="133" y="498"/>
      <point x="133" y="432" type="curve" smooth="yes"/>
      <point x="133" y="319"/>
      <point x="73" y="101"/>
      <point x="45" y="0" type="curve"/>
      <point x="72" y="0" type="line"/>
      <point x="310" y="462" type="line"/>
      <point x="275" y="366"/>
      <point x="236" y="223"/>
      <point x="236" y="106" type="curve" smooth="yes"/>
      <point x="236" y="41"/>
      <point x="248" y="-14"/>
    </contour>
  </outline>
</glyph>
<glyph name="afii10051" format="2">
  <advance width="431"/>
  <unicode hex="0402"/>
  <anchor x="216" y="0" name="bottom"/>
  <anchor x="216" y="714" name="top"/>
  <outline>
    <contour>
      <point x="78" y="0" type="line"/>
      <point x="226" y="0" type="line"/>
      <point x="226" y="10" type="line"/>
      <point x="241" y="10" type="line" smooth="yes"/>
      <point x="179" y="10"/>
      <point x="175" y="21"/>
      <point x="175" y="98" type="curve" smooth="yes"/>
      <point x="175" y="391" type="line"/>
      <point x="185" y="404"/>
      <point x="234" y="428"/>
      <point x="278" y="428" type="curve" smooth="yes"/>
      <point x="334" y="428"/>
      <point x="369" y="384"/>
      <point x="369" y="228" type="curve" smooth="yes"/>
      <point x="369" y="50"/>
      <point x="341" y="10"/>
      <point x="297" y="10" type="curve" smooth="yes"/>
      <point x="283" y="10" type="line"/>
      <point x="283" y="0" type="line"/>
      <point x="295" y="0" type="line" smooth="yes"/>
      <point x="360" y="0"/>
      <point x="397" y="48"/>
      <point x="397" y="222" type="curve" smooth="yes"/>
      <point x="397" y="391"/>
      <point x="344" y="438"/>
      <point x="278" y="438" type="curve" smooth="yes"/>
      <point x="230" y="438"/>
      <point x="192" y="414"/>
      <point x="175" y="403" type="curve"/>
      <point x="175" y="707" type="line"/>
      <point x="230" y="707" type="line" smooth="yes"/>
      <point x="289" y="707"/>
      <point x="296" y="689"/>
      <point x="297" y="637" type="curve" smooth="yes"/>
      <point x="298" y="563" type="line"/>
      <point x="308" y="563" type="line"/>
      <point x="305" y="714" type="line"/>
      <point x="20" y="714" type="line"/>
      <point x="17" y="563" type="line"/>
      <point x="27" y="563" type="line"/>
      <point x="28" y="634" type="line" smooth="yes"/>
      <point x="30" y="693"/>
      <point x="37" y="707"/>
      <point x="99" y="707" type="curve" smooth="yes"/>
      <point x="147" y="707" type="line"/>
      <point x="147" y="98" type="line" smooth="yes"/>
      <point x="147" y="21"/>
      <point x="142" y="10"/>
      <point x="88" y="10" type="curve" smooth="yes"/>
      <point x="78" y="10" type="line"/>
    </contour>
  </outline>
</glyph>
<glyph name="afii10059" format="2">
  <advance width="555"/>
  <unicode hex="040A"/>
  <anchor x="278" y="0" name="bottom"/>
  <anchor x="278" y="714" name="top"/>
  <outline>
    <contour>
      <point x="28" y="0" type="line"/>
      <point x="180" y="0" type="line"/>
      <point x="180" y="10" type="line"/>
      <point x="169" y="10" type="line" smooth="yes"/>
      <point x="118" y="10"/>
      <point x="112" y="21"/>
      <point x="112" y="98" type="curve" smooth="yes"/>
      <point x="112" y="366" type="line"/>
      <point x="320" y="366" type="line"/>
      <point x="320" y="98" type="line" smooth="yes"/>
      <point x="320" y="21"/>
      <point x="315" y="10"/>
      <point x="263" y="10" type="curve" smooth="yes"/>
      <point x="254" y="10" type="line"/>
      <point x="254" y="0" type="line"/>
      <point x="378" y="0" type="line" smooth="yes"/>
      <point x="489" y="0"/>
      <point x="528" y="66"/>
      <point x="528" y="194" type="curve" smooth="yes"/>
      <point x="528" y="323"/>
      <point x="480" y="376"/>
      <point x="347" y="376" type="curve" smooth="yes"/>
      <point x="348" y="376" type="line"/>
      <point x="348" y="617" type="line" smooth="yes"/>
      <point x="348" y="693"/>
      <point x="355" y="704"/>
      <point x="403" y="704" type="curve" smooth="yes"/>
      <point x="409" y="704" type="line"/>
      <point x="409" y="714" type="line"/>
      <point x="254" y="714" type="line"/>
      <point x="254" y="704" type="line"/>
      <point x="267" y="704" type="line" smooth="yes"/>
      <point x="313" y="704"/>
      <point x="320" y="693"/>
      <point x="320" y="617" type="curve" smooth="yes"/>
      <point x="320" y="376" type="line"/>
      <point x="112" y="376" type="line"/>
      <point x="112" y="617" type="line" smooth="yes"/>
      <point x="112" y="693"/>
      <point x="117" y="704"/>
      <point x="169" y="704" type="curve" smooth="yes"/>
      <point x="180" y="704" type="line"/>
      <point x="180" y="714" type="line"/>
      <point x="28" y="714" type="line"/>
      <point x="28" y="704" type="line"/>
      <point x="28" y="704" type="line" smooth="yes"/>
      <point x="77" y="704"/>
      <point x="84" y="693"/>
      <point x="84" y="617" type="curve" smooth="yes"/>
      <point x="84" y="98" type="line" smooth="yes"/>
      <point x="84" y="21"/>
      <point x="79" y="10"/>
      <point x="27" y="10" type="curve" smooth="yes"/>
      <point x="28" y="10" type="line"/>
    </contour>
    <contour>
      <point x="348" y="10" type="line"/>
      <point x="348" y="366" type="line"/>
      <point x="350" y="366" type="line" smooth="yes"/>
      <point x="466" y="366"/>
      <point x="500" y="323"/>
      <point x="500" y="194" type="curve" smooth="yes"/>
      <point x="500" y="85"/>
      <point x="481" y="10"/>
      <point x="382" y="10" type="curve" smooth="yes"/>
    </contour>
  </outline>
</glyph>
<glyph name="afii10145" format="2">
  <advance width="437"/>
  <unicode hex="040F"/>
  <anchor x="218" y="-210" name="bottom"/>
  <anchor x="218" y="714" name="top"/>
  <outline>
    <contour>
      <point x="213" y="-210" type="curve"/>
      <point x="223" y="-210" type="line"/>
      <point x="223" y="6"/>
      <point x="217" y="0"/>
      <point x="345" y="0" type="curve" smooth="yes"/>
      <point x="410" y="0" type="line"/>
      <point x="410" y="10" type="line"/>
      <point x="408" y="10" type="line" smooth="yes"/>
      <point x="361" y="10"/>
      <point x="354" y="21"/>
      <point x="354" y="98" type="curve" smooth="yes"/>
      <point x="354" y="617" type="line" smooth="yes"/>
      <point x="354" y="693"/>
      <point x="362" y="704"/>
      <point x="408" y="704" type="curve" smooth="yes"/>
      <point x="412" y="704" type="line"/>
      <point x="412" y="714" type="line"/>
      <point x="257" y="714" type="line"/>
      <point x="257" y="704" type="line"/>
      <point x="268" y="704" type="line" smooth="yes"/>
      <point x="321" y="704"/>
      <point x="326" y="693"/>
      <point x="326" y="617" type="curve" smooth="yes"/>
      <point x="326" y="15" type="line"/>
      <point x="115" y="15" type="line"/>
      <point x="115" y="617" type="line" smooth="yes"/>
      <point x="115" y="693"/>
      <point x="122" y="704"/>
      <point x="171" y="704" type="curve" smooth="yes"/>
      <point x="186" y="704" type="line"/>
      <point x="186" y="714" type="line"/>
      <point x="28" y="714" type="line"/>
      <point x="28" y="704" type="line"/>
      <point x="31" y="704" type="line" smooth="yes"/>
      <point x="82" y="704"/>
      <point x="87" y="693"/>
      <point x="87" y="617" type="curve" smooth="yes"/>
      <point x="87" y="98" type="line" smooth="yes"/>
      <point x="87" y="21"/>
      <point x="82" y="10"/>
      <point x="30" y="10" type="curve" smooth="yes"/>
      <point x="27" y="10" type="line"/>
      <point x="27" y="0" type="line"/>
      <point x="93" y="0" type="line" smooth="yes"/>
      <point x="220" y="0"/>
      <point x="213" y="6"/>
    </contour>
  </outline>
</glyph>
<glyph name="afii10024" format="2">
  <advance width="558"/>
  <unicode hex="0416"/>
  <anchor x="279" y="0" name="bottom"/>
  <anchor x="279" y="714" name="top"/>
  <outline>
    <contour>
      <point x="0" y="0" type="line"/>
      <point x="0" y="0" type="line" smooth="yes"/>
      <point x="66" y="0"/>
      <point x="78" y="13"/>
      <point x="108" y="102" type="curve" smooth="yes"/>
      <point x="166" y="268" type="line" smooth="yes"/>
      <point x="195" y="353"/>
      <point x="191" y="357"/>
      <point x="264" y="357" type="curve"/>
      <point x="264" y="98" type="line" smooth="yes"/>
      <point x="264" y="21"/>
      <point x="258" y="10"/>
      <point x="210" y="10" type="curve" smooth="yes"/>
      <point x="207" y="10" type="line"/>
      <point x="207" y="0" type="line"/>
      <point x="352" y="0" type="line"/>
      <point x="352" y="10" type="line"/>
      <point x="350" y="10" type="line" smooth="yes"/>
      <point x="296" y="10"/>
      <point x="292" y="21"/>
      <point x="292" y="105" type="curve" smooth="yes"/>
      <point x="292" y="357" type="line"/>
      <point x="377" y="357"/>
      <point x="372" y="356"/>
      <point x="404" y="268" type="curve" smooth="yes"/>
      <point x="461" y="102" type="line" smooth="yes"/>
      <point x="491" y="13"/>
      <point x="503" y="0"/>
      <point x="569" y="0" type="curve" smooth="yes"/>
      <point x="569" y="0" type="line"/>
      <point x="569" y="10" type="line"/>
      <point x="560" y="10" type="line" smooth="yes"/>
      <point x="533" y="10"/>
      <point x="511" y="39"/>
      <point x="482" y="120" type="curve" smooth="yes"/>
      <point x="425" y="290" type="line" smooth="yes"/>
      <point x="400" y="358"/>
      <point x="377" y="366"/>
      <point x="328" y="367" type="curve"/>
      <point x="369" y="382"/>
      <point x="396" y="472"/>
      <point x="420" y="542" type="curve" smooth="yes"/>
      <point x="458" y="650"/>
      <point x="474" y="693"/>
      <point x="508" y="693" type="curve" smooth="yes"/>
      <point x="522" y="693"/>
      <point x="531" y="686"/>
      <point x="531" y="641" type="curve"/>
      <point x="541" y="640"/>
      <point x="555" y="647"/>
      <point x="555" y="671" type="curve" smooth="yes"/>
      <point x="555" y="700"/>
      <point x="539" y="720"/>
      <point x="517" y="720" type="curve" smooth="yes"/>
      <point x="469" y="720"/>
      <point x="444" y="662"/>
      <point x="405" y="547" type="curve" smooth="yes"/>
      <point x="384" y="484"/>
      <point x="366" y="431"/>
      <point x="363" y="425" type="curve"/>
      <point x="350" y="393"/>
      <point x="335" y="368"/>
      <point x="292" y="367" type="curve"/>
      <point x="292" y="618" type="line" smooth="yes"/>
      <point x="292" y="693"/>
      <point x="300" y="704"/>
      <point x="345" y="704" type="curve" smooth="yes"/>
      <point x="352" y="704" type="line"/>
      <point x="352" y="714" type="line"/>
      <point x="207" y="714" type="line"/>
      <point x="207" y="704" type="line"/>
      <point x="209" y="704" type="line" smooth="yes"/>
      <point x="258" y="704"/>
      <point x="264" y="693"/>
      <point x="264" y="618" type="curve" smooth="yes"/>
      <point x="264" y="367" type="line"/>
      <point x="233" y="372"/>
      <point x="220" y="397"/>
      <point x="206" y="425" type="curve"/>
      <point x="203" y="431"/>
      <point x="185" y="484"/>
      <point x="164" y="547" type="curve" smooth="yes"/>
      <point x="125" y="662"/>
      <point x="100" y="720"/>
      <point x="52" y="720" type="curve" smooth="yes"/>
      <point x="30" y="720"/>
      <point x="15" y="700"/>
      <point x="15" y="671" type="curve" smooth="yes"/>
      <point x="15" y="647"/>
      <point x="29" y="640"/>
      <point x="38" y="641" type="curve"/>
      <point x="38" y="686"/>
      <point x="47" y="693"/>
      <point x="61" y="693" type="curve" smooth="yes"/>
      <point x="95" y="693"/>
      <point x="111" y="650"/>
      <point x="149" y="542" type="curve" smooth="yes"/>
      <point x="174" y="472"/>
      <point x="200" y="382"/>
      <point x="241" y="367" type="curve"/>
      <point x="192" y="366"/>
      <point x="169" y="358"/>
      <point x="144" y="290" type="curve" smooth="yes"/>
      <point x="88" y="120" type="line" smooth="yes"/>
      <point x="59" y="39"/>
      <point x="37" y="10"/>
      <point x="9" y="10" type="curve" smooth="yes"/>
      <point x="0" y="10" type="line"/>
    </contour>
  </outline>
</glyph>
<glyph name="afii10026" format="2">
  <advance width="471"/>
  <unicode hex="0418"/>
  <anchor x="235" y="0" name="bottom"/>
  <anchor x="235" y="714" name="top"/>
  <outline>
    <contour>
      <point x="28" y="0" type="line"/>
      <point x="180" y="0" type="line"/>
      <point x="180" y="10" type="line"/>
      <point x="168" y="10" type="line" smooth="yes"/>
      <point x="118" y="10"/>
      <point x="112" y="21"/>
      <point x="112" y="98" type="curve" smooth="yes"/>
      <point x="112" y="134" type="line"/>
      <point x="356" y="531" type="line"/>
      <point x="356" y="98" type="line" smooth="yes"/>
      <point x="356" y="21"/>
      <point x="351" y="10"/>
      <point x="299" y="10" type="curve" smooth="yes"/>
      <point x="290" y="10" type="line"/>
      <point x="290" y="0" type="line"/>
      <point x="444" y="0" type="line"/>
      <point x="444" y="10" type="line"/>
      <point x="442" y="10" type="line" smooth="yes"/>
      <point x="389" y="10"/>
      <point x="384" y="21"/>
      <point x="384" y="98" type="curve" smooth="yes"/>
      <point x="384" y="609" type="line" smooth="yes"/>
      <point x="384" y="693"/>
      <point x="387" y="704"/>
      <point x="443" y="704" type="curve" smooth="yes"/>
      <point x="444" y="704" type="line"/>
      <point x="444" y="714" type="line"/>
      <point x="290" y="714" type="line"/>
      <point x="290" y="704" type="line"/>
      <point x="296" y="704" type="line" smooth="yes"/>
      <point x="354" y="704"/>
      <point x="356" y="693"/>
      <point x="356" y="609" type="curve" smooth="yes"/>
      <point x="356" y="545" type="line"/>
      <point x="112" y="147" type="line"/>
      <point x="112" y="615" type="line" smooth="yes"/>
      <point x="112" y="693"/>
      <point x="117" y="704"/>
      <point x="169" y="704" type="curve" smooth="yes"/>
      <point x="180" y="704" type="line"/>
      <point x="180" y="714" type="line"/>
      <point x="28" y="714" type="line"/>
      <point x="28" y="704" type="line"/>
      <point x="27" y="704" type="line" smooth="yes"/>
      <point x="79" y="704"/>
      <point x="84" y="693"/>
      <point x="84" y="617" type="curve" smooth="yes"/>
      <point x="84" y="98" type="line" smooth="yes"/>
      <point x="84" y="21"/>
      <point x="79" y="10"/>
      <point x="26" y="10" type="curve" smooth="yes"/>
      <point x="28" y="10" type="line"/>
    </contour>
  </outline>
</glyph>
<glyph name="afii10028" format="2">
  <advance width="398"/>
  <unicode hex="041A"/>
  <anchor x="199" y="0" name="bottom"/>
  <anchor x="199" y="714" name="top"/>
  <outline>
    <contour>
      <point x="27" y="0" type="line"/>
      <point x="183" y="0" type="line"/>
      <point x="183" y="10" type="line"/>
      <point x="169" y="10" type="line" smooth="yes"/>
      <point x="116" y="10"/>
      <point x="112" y="21"/>
      <point x="112" y="105" type="curve" smooth="yes"/>
      <point x="112" y="357" type="line"/>
      <point x="196" y="357"/>
      <point x="190" y="357"/>
      <point x="222" y="268" type="curve" smooth="yes"/>
      <point x="280" y="102" type="line" smooth="yes"/>
      <point x="310" y="13"/>
      <point x="322" y="0"/>
      <point x="388" y="0" type="curve" smooth="yes"/>
      <point x="388" y="0" type="line"/>
      <point x="388" y="10" type="line"/>
      <point x="379" y="10" type="line" smooth="yes"/>
      <point x="351" y="10"/>
      <point x="329" y="39"/>
      <point x="300" y="120" type="curve" smooth="yes"/>
      <point x="244" y="290" type="line" smooth="yes"/>
      <point x="219" y="358"/>
      <point x="196" y="366"/>
      <point x="147" y="367" type="curve"/>
      <point x="188" y="382"/>
      <point x="214" y="472"/>
      <point x="239" y="542" type="curve" smooth="yes"/>
      <point x="277" y="650"/>
      <point x="293" y="693"/>
      <point x="327" y="693" type="curve" smooth="yes"/>
      <point x="341" y="693"/>
      <point x="350" y="686"/>
      <point x="350" y="641" type="curve"/>
      <point x="359" y="640"/>
      <point x="373" y="647"/>
      <point x="373" y="671" type="curve" smooth="yes"/>
      <point x="373" y="700"/>
      <point x="358" y="720"/>
      <point x="336" y="720" type="curve" smooth="yes"/>
      <point x="288" y="720"/>
      <point x="263" y="662"/>
      <point x="224" y="547" type="curve" smooth="yes"/>
      <point x="203" y="484"/>
      <point x="185" y="431"/>
      <point x="182" y="425" type="curve" smooth="yes"/>
      <point x="166" y="395"/>
      <point x="154" y="367"/>
      <point x="112" y="367" type="curve"/>
      <point x="112" y="618" type="line" smooth="yes"/>
      <point x="112" y="693"/>
      <point x="119" y="704"/>
      <point x="165" y="704" type="curve" smooth="yes"/>
      <point x="183" y="704" type="line"/>
      <point x="183" y="714" type="line"/>
      <point x="27" y="714" type="line"/>
      <point x="27" y="704" type="line"/>
      <point x="29" y="704" type="line" smooth="yes"/>
      <point x="77" y="704"/>
      <point x="84" y="693"/>
      <point x="84" y="618" type="curve" smooth="yes"/>
      <point x="84" y="98" type="line" smooth="yes"/>
      <point x="84" y="21"/>
      <point x="77" y="10"/>
      <point x="29" y="10" type="curve" smooth="yes"/>
      <point x="27" y="10" type="line"/>
    </contour>
  </outline>
</glyph>
<glyph name="afii10029" format="2">
  <advance width="410"/>
  <unicode hex="041B"/>
  <anchor x="208" y="0" name="bottom"/>
  <anchor x="208" y="714" name="top"/>
  <outline>
    <contour>
      <point x="41" y="-7" type="curve" smooth="yes"/>
      <point x="61" y="-7"/>
      <point x="93" y="-5"/>
      <point x="115" y="71" type="curve" smooth="yes"/>
      <point x="127" y="105"/>
      <point x="181" y="328"/>
      <point x="181" y="707" type="curve"/>
      <point x="297" y="707" type="line"/>
      <point x="297" y="98" type="line" smooth="yes"/>
      <point x="297" y="21"/>
      <point x="290" y="10"/>
      <point x="243" y="10" type="curve" smooth="yes"/>
      <point x="233" y="10" type="line"/>
      <point x="233" y="0" type="line"/>
      <point x="386" y="0" type="line"/>
      <point x="386" y="10" type="line"/>
      <point x="380" y="10" type="line" smooth="yes"/>
      <point x="331" y="10"/>
      <point x="325" y="21"/>
      <point x="325" y="98" type="curve" smooth="yes"/>
      <point x="325" y="614" type="line" smooth="yes"/>
      <point x="325" y="695"/>
      <point x="329" y="704"/>
      <point x="384" y="704" type="curve" smooth="yes"/>
      <point x="384" y="704" type="line"/>
      <point x="384" y="714" type="line"/>
      <point x="86" y="714" type="line"/>
      <point x="86" y="704" type="line"/>
      <point x="103" y="704" type="line" smooth="yes"/>
      <point x="155" y="704"/>
      <point x="170" y="691"/>
      <point x="170" y="646" type="curve" smooth="yes"/>
      <point x="170" y="569"/>
      <point x="154" y="323"/>
      <point x="122" y="165" type="curve" smooth="yes"/>
      <point x="90" y="8"/>
      <point x="46" y="23"/>
      <point x="43" y="23" type="curve" smooth="yes"/>
      <point x="27" y="23"/>
      <point x="13" y="35"/>
      <point x="15" y="61" type="curve"/>
      <point x="6" y="60"/>
      <point x="0" y="48"/>
      <point x="0" y="33" type="curve" smooth="yes"/>
      <point x="0" y="6"/>
      <point x="18" y="-7"/>
    </contour>
  </outline>
</glyph>
<glyph name="afii10040" format="2">
  <advance width="435"/>
  <unicode hex="0426"/>
  <anchor x="218" y="0" name="bottom"/>
  <anchor x="218" y="714" name="top"/>
  <outline>
    <contour>
      <point x="403" y="-210" type="curve"/>
      <point x="413" y="-210" type="line"/>
      <point x="413" y="7" type="line"/>
      <point x="413" y="7" type="line" smooth="yes"/>
      <point x="354" y="7"/>
      <point x="349" y="21"/>
      <point x="349" y="95" type="curve" smooth="yes"/>
      <point x="349" y="617" type="line" smooth="yes"/>
      <point x="349" y="693"/>
      <point x="357" y="704"/>
      <point x="403" y="704" type="curve" smooth="yes"/>
      <point x="407" y="704" type="line"/>
      <point x="407" y="714" type="line"/>
      <point x="252" y="714" type="line"/>
      <point x="252" y="704" type="line"/>
      <point x="265" y="704" type="line" smooth="yes"/>
      <point x="316" y="704"/>
      <point x="321" y="693"/>
      <point x="321" y="617" type="curve" smooth="yes"/>
      <point x="321" y="15" type="line"/>
      <point x="110" y="15" type="line"/>
      <point x="110" y="617" type="line" smooth="yes"/>
      <point x="110" y="693"/>
      <point x="118" y="704"/>
      <point x="165" y="704" type="curve" smooth="yes"/>
      <point x="181" y="704" type="line"/>
      <point x="181" y="714" type="line"/>
      <point x="23" y="714" type="line"/>
      <point x="23" y="704" type="line"/>
      <point x="25" y="704" type="line" smooth="yes"/>
      <point x="77" y="704"/>
      <point x="82" y="693"/>
      <point x="82" y="617" type="curve" smooth="yes"/>
      <point x="82" y="98" type="line" smooth="yes"/>
      <point x="82" y="21"/>
      <point x="77" y="10"/>
      <point x="25" y="10" type="curve" smooth="yes"/>
      <point x="23" y="10" type="line"/>
      <point x="23" y="0" type="line"/>
      <point x="220" y="0" type="line" smooth="yes"/>
      <point x="390" y="0"/>
      <point x="403" y="16"/>
    </contour>
  </outline>
</glyph>
<glyph name="afii10042" format="2">
  <advance width="619"/>
  <unicode hex="0428"/>
  <anchor x="310" y="0" name="bottom"/>
  <anchor x="310" y="714" name="top"/>
  <outline>
    <contour>
      <point x="27" y="0" type="line"/>
      <point x="587" y="0" type="line"/>
      <point x="587" y="10" type="line"/>
      <point x="590" y="10" type="line" smooth="yes"/>
      <point x="537" y="10"/>
      <point x="533" y="22"/>
      <point x="533" y="98" type="curve" smooth="yes"/>
      <point x="533" y="617" type="line" smooth="yes"/>
      <point x="533" y="693"/>
      <point x="539" y="704"/>
      <point x="591" y="704" type="curve" smooth="yes"/>
      <point x="589" y="704" type="line"/>
      <point x="589" y="714" type="line"/>
      <point x="434" y="714" type="line"/>
      <point x="434" y="704" type="line"/>
      <point x="447" y="704" type="line" smooth="yes"/>
      <point x="498" y="704"/>
      <point x="505" y="693"/>
      <point x="505" y="617" type="curve" smooth="yes"/>
      <point x="506" y="15" type="line"/>
      <point x="325" y="15" type="line"/>
      <point x="325" y="617" type="line" smooth="yes"/>
      <point x="325" y="693"/>
      <point x="332" y="704"/>
      <point x="384" y="704" type="curve" smooth="yes"/>
      <point x="389" y="704" type="line"/>
      <point x="389" y="714" type="line"/>
      <point x="220" y="714" type="line"/>
      <point x="220" y="704" type="line"/>
      <point x="241" y="704" type="line" smooth="yes"/>
      <point x="291" y="704"/>
      <point x="297" y="693"/>
      <point x="297" y="617" type="curve" smooth="yes"/>
      <point x="297" y="15" type="line"/>
      <point x="115" y="15" type="line"/>
      <point x="115" y="617" type="line" smooth="yes"/>
      <point x="115" y="693"/>
      <point x="123" y="704"/>
      <point x="169" y="704" type="curve" smooth="yes"/>
      <point x="186" y="704" type="line"/>
      <point x="186" y="714" type="line"/>
      <point x="28" y="714" type="line"/>
      <point x="28" y="704" type="line"/>
      <point x="31" y="704" type="line" smooth="yes"/>
      <point x="82" y="704"/>
      <point x="87" y="693"/>
      <point x="87" y="617" type="curve" smooth="yes"/>
      <point x="87" y="98" type="line" smooth="yes"/>
      <point x="87" y="21"/>
      <point x="81" y="10"/>
      <point x="33" y="10" type="curve" smooth="yes"/>
      <point x="27" y="10" type="line"/>
    </contour>
  </outline>
</glyph>
<glyph name="afii10046" format="2">
  <advance width="349"/>
  <unicode hex="042C"/>
  <anchor x="174" y="0" name="bottom"/>
  <anchor x="174" y="714" name="top"/>
  <outline>
    <contour>
      <point x="27" y="0" type="line"/>
      <point x="176" y="0" type="line" smooth="yes"/>
      <point x="291" y="0"/>
      <point x="318" y="80"/>
      <point x="318" y="194" type="curve" smooth="yes"/>
      <point x="318" y="328"/>
      <point x="270" y="385"/>
      <point x="138" y="385" type="curve" smooth="yes"/>
      <point x="112" y="385" type="line"/>
      <point x="112" y="617" type="line" smooth="yes"/>
      <point x="112" y="693"/>
      <point x="119" y="704"/>
      <point x="166" y="704" type="curve" smooth="yes"/>
      <point x="203" y="704" type="line"/>
      <point x="203" y="714" type="line"/>
      <point x="27" y="714" type="line"/>
      <point x="27" y="704" type="line"/>
      <point x="27" y="704" type="line" smooth="yes"/>
      <point x="79" y="704"/>
      <point x="84" y="693"/>
      <point x="84" y="617" type="curve" smooth="yes"/>
      <point x="84" y="98" type="line" smooth="yes"/>
      <point x="84" y="21"/>
      <point x="77" y="10"/>
      <point x="29" y="10" type="curve" smooth="yes"/>
      <point x="27" y="10" type="line"/>
    </contour>
    <contour>
      <point x="112" y="10" type="line"/>
      <point x="112" y="375" type="line"/>
      <point x="142" y="375" type="line" smooth="yes"/>
      <point x="254" y="375"/>
      <point x="290" y="326"/>
      <point x="290" y="194" type="curve" smooth="yes"/>
      <point x="290" y="85"/>
      <point x="273" y="10"/>
      <point x="173" y="10" type="curve" smooth="yes"/>
    </contour>
  </outline>
</glyph>
<glyph name="afii10047" format="2">
  <advance width="342"/>
  <unicode hex="042D"/>
  <anchor x="171" y="0" name="bottom"/>
  <anchor x="171" y="714" name="top"/>
  <outline>
    <contour>
      <point x="146" y="-10" type="curve" smooth="yes"/>
      <point x="261" y="-10"/>
      <point x="308" y="156"/>
      <point x="308" y="361" type="curve" smooth="yes"/>
      <point x="308" y="591"/>
      <point x="235" y="723"/>
      <point x="124" y="723" type="curve" smooth="yes"/>
      <point x="53" y="723"/>
      <point x="19" y="675"/>
      <point x="19" y="625" type="curve" smooth="yes"/>
      <point x="19" y="593"/>
      <point x="32" y="576"/>
      <point x="44" y="576" type="curve"/>
      <point x="44" y="662"/>
      <point x="61" y="713"/>
      <point x="118" y="713" type="curve" smooth="yes"/>
      <point x="246" y="713"/>
      <point x="277" y="544"/>
      <point x="280" y="371" type="curve"/>
      <point x="82" y="371" type="line"/>
      <point x="82" y="361" type="line"/>
      <point x="280" y="361" type="line"/>
      <point x="276" y="174"/>
      <point x="251" y="0"/>
      <point x="139" y="0" type="curve" smooth="yes"/>
      <point x="99" y="0"/>
      <point x="67" y="35"/>
      <point x="42" y="79" type="curve"/>
      <point x="32" y="71"/>
      <point x="30" y="66"/>
      <point x="30" y="62" type="curve" smooth="yes"/>
      <point x="30" y="24"/>
      <point x="106" y="-10"/>
    </contour>
  </outline>
</glyph>
<glyph name="afii10049" format="2">
  <advance width="370"/>
  <unicode hex="042F"/>
  <anchor x="187" y="0" name="bottom"/>
  <anchor x="187" y="714" name="top"/>
  <outline>
    <contour>
      <point x="-8" y="0" type="line"/>
      <point x="-7" y="0" type="line" smooth="yes"/>
      <point x="50" y="0"/>
      <point x="75" y="25"/>
      <point x="114" y="114" type="curve" smooth="yes"/>
      <point x="186" y="320" type="line"/>
      <point x="258" y="320" type="line"/>
      <point x="258" y="98" type="line" smooth="yes"/>
      <point x="258" y="21"/>
      <point x="253" y="10"/>
      <point x="200" y="10" type="curve" smooth="yes"/>
      <point x="187" y="10" type="line"/>
      <point x="187" y="0" type="line"/>
      <point x="343" y="0" type="line"/>
      <point x="343" y="10" type="line"/>
      <point x="343" y="10" type="line" smooth="yes"/>
      <point x="291" y="10"/>
      <point x="286" y="21"/>
      <point x="286" y="98" type="curve" smooth="yes"/>
      <point x="286" y="617" type="line" smooth="yes"/>
      <point x="286" y="693"/>
      <point x="295" y="704"/>
      <point x="351" y="704" type="curve" smooth="yes"/>
      <point x="343" y="704" type="line"/>
      <point x="343" y="714" type="line"/>
      <point x="218" y="714" type="line" smooth="yes"/>
      <point x="95" y="714"/>
      <point x="63" y="616"/>
      <point x="63" y="507" type="curve" smooth="yes"/>
      <point x="63" y="364"/>
      <point x="132" y="340"/>
      <point x="160" y="325" type="curve"/>
      <point x="75" y="106" type="line" smooth="yes"/>
      <point x="58" y="56"/>
      <point x="46" y="10"/>
      <point x="2" y="10" type="curve" smooth="yes"/>
      <point x="-8" y="10" type="line"/>
    </contour>
    <contour>
      <point x="191" y="330" type="line" smooth="yes"/>
      <point x="119" y="330"/>
      <point x="91" y="404"/>
      <point x="91" y="507" type="curve" smooth="yes"/>
      <point x="91" y="617"/>
      <point x="122" y="704"/>
      <point x="222" y="704" type="curve" smooth="yes"/>
      <point x="258" y="704" type="line"/>
      <point x="258" y="330" type="line"/>
    </contour>
  </outline>
</glyph>
<glyph name="afii10068" format="2">
  <advance width="258"/>
  <unicode hex="0433"/>
  <anchor x="130" y="0" name="bottom"/>
  <anchor x="130" y="536" name="top"/>
  <outline>
    <contour>
      <point x="14" y="0" type="line"/>
      <point x="179" y="0" type="line"/>
      <point x="179" y="10" type="line"/>
      <point x="177" y="10" type="line" smooth="yes"/>
      <point x="114" y="10"/>
      <point x="108" y="14"/>
      <point x="108" y="87" type="curve" smooth="yes"/>
      <point x="108" y="526" type="line"/>
      <point x="194" y="526" type="line" smooth="yes"/>
      <point x="239" y="526"/>
      <point x="241" y="521"/>
      <point x="239" y="415" type="curve" smooth="yes"/>
      <point x="237" y="398" type="line"/>
      <point x="247" y="398" type="line"/>
      <point x="250" y="536" type="line"/>
      <point x="14" y="536" type="line"/>
      <point x="14" y="526" type="line"/>
      <point x="16" y="526" type="line" smooth="yes"/>
      <point x="75" y="526"/>
      <point x="80" y="522"/>
      <point x="80" y="449" type="curve" smooth="yes"/>
      <point x="80" y="87" type="line" smooth="yes"/>
      <point x="80" y="17"/>
      <point x="73" y="10"/>
      <point x="19" y="10" type="curve" smooth="yes"/>
      <point x="14" y="10" type="line"/>
    </contour>
  </outline>
</glyph>
<glyph name="afii10073" format="2">
  <advance width="264"/>
  <unicode hex="0437"/>
  <anchor x="139" y="0" name="bottom"/>
  <anchor x="106" y="536" name="top"/>
  <outline>
    <contour>
      <point x="112" y="-10" type="curve" smooth="yes"/>
      <point x="205" y="-10"/>
      <point x="229" y="66"/>
      <point x="229" y="142" type="curve" smooth="yes"/>
      <point x="229" y="226"/>
      <point x="196" y="263"/>
      <point x="146" y="281" type="curve"/>
      <point x="146" y="283" type="line"/>
      <point x="197" y="303"/>
      <point x="219" y="348"/>
      <point x="219" y="406" type="curve" smooth="yes"/>
      <point x="219" y="486"/>
      <point x="185" y="543"/>
      <point x="114" y="543" type="curve" smooth="yes"/>
      <point x="30" y="543"/>
      <point x="20" y="474"/>
      <point x="20" y="444" type="curve" smooth="yes"/>
      <point x="20" y="417"/>
      <point x="35" y="405"/>
      <point x="51" y="405" type="curve"/>
      <point x="51" y="498"/>
      <point x="51" y="533"/>
      <point x="109" y="533" type="curve" smooth="yes"/>
      <point x="176" y="533"/>
      <point x="191" y="485"/>
      <point x="191" y="413" type="curve" smooth="yes"/>
      <point x="191" y="340"/>
      <point x="173" y="287"/>
      <point x="115" y="287" type="curve" smooth="yes"/>
      <point x="62" y="287" type="line"/>
      <point x="62" y="277" type="line"/>
      <point x="117" y="277" type="line" smooth="yes"/>
      <point x="170" y="277"/>
      <point x="201" y="225"/>
      <point x="201" y="127" type="curve" smooth="yes"/>
      <point x="201" y="48"/>
      <point x="173" y="0"/>
      <point x="112" y="0" type="curve" smooth="yes"/>
      <point x="49" y="0"/>
      <point x="54" y="48"/>
      <point x="43" y="105" type="curve"/>
      <point x="31" y="102"/>
      <point x="23" y="93"/>
      <point x="23" y="76" type="curve" smooth="yes"/>
      <point x="23" y="35"/>
      <point x="45" y="-10"/>
    </contour>
  </outline>
</glyph>
<glyph name="afii10079" format="2">
  <advance width="405"/>
  <unicode hex="043D"/>
  <anchor x="202" y="0" name="bottom"/>
  <anchor x="202" y="536" name="top"/>
  <outline>
    <contour>
      <point x="14" y="0" type="line"/>
      <point x="168" y="0" type="line"/>
      <point x="168" y="10" type="line"/>
      <point x="177" y="10" type="line" smooth="yes"/>
      <point x="112" y="10"/>
      <point x="108" y="16"/>
      <point x="108" y="87" type="curve" smooth="yes"/>
      <point x="108" y="270" type="line"/>
      <point x="299" y="270" type="line"/>
      <point x="299" y="87" type="line" smooth="yes"/>
      <point x="299" y="17"/>
      <point x="292" y="10"/>
      <point x="238" y="10" type="curve" smooth="yes"/>
      <point x="237" y="10" type="line"/>
      <point x="237" y="0" type="line"/>
      <point x="390" y="0" type="line"/>
      <point x="390" y="10" type="line"/>
      <point x="395" y="10" type="line" smooth="yes"/>
      <point x="332" y="10"/>
      <point x="327" y="17"/>
      <point x="327" y="87" type="curve" smooth="yes"/>
      <point x="327" y="449" type="line" smooth="yes"/>
      <point x="327" y="519"/>
      <point x="334" y="526"/>
      <point x="388" y="526" type="curve" smooth="yes"/>
      <point x="390" y="526" type="line"/>
      <point x="390" y="536" type="line"/>
      <point x="237" y="536" type="line"/>
      <point x="237" y="526" type="line"/>
      <point x="235" y="526" type="line" smooth="yes"/>
      <point x="293" y="526"/>
      <point x="299" y="519"/>
      <point x="299" y="449" type="curve" smooth="yes"/>
      <point x="299" y="280" type="line"/>
      <point x="108" y="280" type="line"/>
      <point x="108" y="449" type="line" smooth="yes"/>
      <point x="108" y="519"/>
      <point x="114" y="526"/>
      <point x="169" y="526" type="curve" smooth="yes"/>
      <point x="168" y="526" type="line"/>
      <point x="168" y="536" type="line"/>
      <point x="14" y="536" type="line"/>
      <point x="14" y="526" type="line"/>
      <point x="13" y="526" type="line" smooth="yes"/>
      <point x="74" y="526"/>
      <point x="80" y="519"/>
      <point x="80" y="449" type="curve" smooth="yes"/>
      <point x="80" y="87" type="line" smooth="yes"/>
      <point x="80" y="16"/>
      <point x="72" y="10"/>
      <point x="19" y="10" type="curve" smooth="yes"/>
      <point x="14" y="10" type="line"/>
    </contour>
  </outline>
</glyph>
<glyph name="afii10193" format="2">
  <advance width="378"/>
  <unicode hex="045F"/>
  <anchor x="189" y="-210" name="bottom"/>
  <anchor x="189" y="536" name="top"/>
  <outline>
    <contour>
      <point x="186" y="-210" type="curve"/>
      <point x="196" y="-210" type="line"/>
      <point x="196" y="3"/>
      <point x="190" y="0"/>
      <point x="326" y="0" type="curve" smooth="yes"/>
      <point x="362" y="0" type="line"/>
      <point x="362" y="7" type="line"/>
      <point x="347" y="7" type="line" smooth="yes"/>
      <point x="299" y="7"/>
      <point x="298" y="14"/>
      <point x="298" y="83" type="curve" smooth="yes"/>
      <point x="298" y="449" type="line" smooth="yes"/>
      <point x="298" y="519"/>
      <point x="303" y="526"/>
      <point x="367" y="526" type="curve" smooth="yes"/>
      <point x="362" y="526" type="line"/>
      <point x="362" y="536" type="line"/>
      <point x="208" y="536" type="line"/>
      <point x="208" y="526" type="line"/>
      <point x="208" y="526" type="line" smooth="yes"/>
      <point x="264" y="526"/>
      <point x="270" y="519"/>
      <point x="270" y="449" type="curve" smooth="yes"/>
      <point x="270" y="15" type="line"/>
      <point x="108" y="15" type="line"/>
      <point x="108" y="449" type="line" smooth="yes"/>
      <point x="108" y="521"/>
      <point x="111" y="526"/>
      <point x="179" y="526" type="curve" smooth="yes"/>
      <point x="168" y="526" type="line"/>
      <point x="168" y="536" type="line"/>
      <point x="14" y="536" type="line"/>
      <point x="14" y="526" type="line"/>
      <point x="17" y="526" type="line" smooth="yes"/>
      <point x="72" y="526"/>
      <point x="80" y="521"/>
      <point x="80" y="449" type="curve" smooth="yes"/>
      <point x="80" y="87" type="line" smooth="yes"/>
      <point x="80" y="17"/>
      <point x="73" y="10"/>
      <point x="17" y="10" type="curve" smooth="yes"/>
      <point x="14" y="10" type="line"/>
      <point x="14" y="0" type="line"/>
      <point x="59" y="0" type="line" smooth="yes"/>
      <point x="189" y="0"/>
      <point x="186" y="3"/>
    </contour>
  </outline>
</glyph>
<glyph name="uni0460" format="2">
  <advance width="572"/>
  <unicode hex="0460"/>
  <anchor x="286" y="0" name="bottom"/>
  <anchor x="286" y="714" name="top"/>
  <outline>
    <contour>
      <point x="196" y="0" type="curve"/>
      <point x="216" y="0" type="line"/>
      <point x="332" y="429" type="line"/>
      <point x="367" y="244"/>
      <point x="378" y="114"/>
      <point x="390" y="0" type="curve"/>
      <point x="419" y="0" type="line"/>
      <point x="509" y="261"/>
      <point x="545" y="436"/>
      <point x="545" y="566" type="curve" smooth="yes"/>
      <point x="545" y="692"/>
      <point x="512" y="727"/>
      <point x="484" y="727" type="curve" smooth="yes"/>
      <point x="471" y="727"/>
      <point x="460" y="719"/>
      <point x="461" y="701" type="curve"/>
      <point x="497" y="701"/>
      <point x="525" y="705"/>
      <point x="525" y="554" type="curve" smooth="yes"/>
      <point x="525" y="454"/>
      <point x="515" y="316"/>
      <point x="418" y="29" type="curve"/>
      <point x="393" y="234"/>
      <point x="346" y="541"/>
      <point x="306" y="714" type="curve"/>
      <point x="279" y="714" type="line"/>
      <point x="290" y="647"/>
      <point x="312" y="541"/>
      <point x="327" y="454" type="curve"/>
      <point x="219" y="47" type="line"/>
      <point x="146" y="587"/>
      <point x="130" y="726"/>
      <point x="70" y="726" type="curve" smooth="yes"/>
      <point x="46" y="726"/>
      <point x="17" y="692"/>
      <point x="10" y="660" type="curve"/>
      <point x="18" y="654" type="line"/>
      <point x="20" y="664"/>
      <point x="40" y="693"/>
      <point x="62" y="693" type="curve" smooth="yes"/>
      <point x="129" y="693"/>
      <point x="175" y="270"/>
    </contour>
  </outline>
</glyph>
<glyph name="uni046E" format="2">
  <advance width="362"/>
  <unicode hex="046E"/>
  <anchor x="181" y="-193" name="bottom"/>
  <anchor x="181" y="849" name="top"/>
  <outline>
    <contour>
      <point x="315" y="-188" type="curve"/>
      <point x="329" y="-188"/>
      <point x="336" y="-179"/>
      <point x="336" y="-152" type="curve" smooth="yes"/>
      <point x="336" y="-112"/>
      <point x="313" y="-101"/>
      <point x="282" y="-101" type="curve" smooth="yes"/>
      <point x="248" y="-101"/>
      <point x="224" y="-170"/>
      <point x="130" y="-170" type="curve" smooth="yes"/>
      <point x="103" y="-170"/>
      <point x="49" y="-166"/>
      <point x="49" y="-82" type="curve" smooth="yes"/>
      <point x="49" y="-12"/>
      <point x="93" y="-10"/>
      <point x="166" y="-2" type="curve" smooth="yes"/>
      <point x="279" y="12"/>
      <point x="317" y="91"/>
      <point x="317" y="195" type="curve" smooth="yes"/>
      <point x="317" y="318"/>
      <point x="250" y="359"/>
      <point x="189" y="374" type="curve"/>
      <point x="256" y="394"/>
      <point x="298" y="456"/>
      <point x="298" y="562" type="curve" smooth="yes"/>
      <point x="298" y="664"/>
      <point x="256" y="708"/>
      <point x="199" y="723" type="curve"/>
      <point x="225" y="805"/>
      <point x="243" y="820"/>
      <point x="257" y="820" type="curve" smooth="yes"/>
      <point x="262" y="820"/>
      <point x="264" y="821"/>
      <point x="270" y="819" type="curve"/>
      <point x="271" y="822"/>
      <point x="273" y="826"/>
      <point x="273" y="832" type="curve" smooth="yes"/>
      <point x="273" y="844"/>
      <point x="268" y="850"/>
      <point x="258" y="850" type="curve" smooth="yes"/>
      <point x="230" y="850"/>
      <point x="203" y="791"/>
      <point x="186" y="726" type="curve"/>
      <point x="159" y="787"/>
      <point x="140" y="813"/>
      <point x="110" y="847" type="curve"/>
      <point x="107" y="847" type="line"/>
      <point x="107" y="834" type="line"/>
      <point x="130" y="799"/>
      <point x="146" y="778"/>
      <point x="171" y="725" type="curve"/>
      <point x="36" y="725"/>
      <point x="36" y="619"/>
      <point x="36" y="590" type="curve" smooth="yes"/>
      <point x="36" y="560"/>
      <point x="45" y="549"/>
      <point x="60" y="549" type="curve"/>
      <point x="60" y="627"/>
      <point x="57" y="715"/>
      <point x="165" y="715" type="curve" smooth="yes"/>
      <point x="241" y="715"/>
      <point x="270" y="670"/>
      <point x="270" y="555" type="curve" smooth="yes"/>
      <point x="270" y="456"/>
      <point x="219" y="377"/>
      <point x="160" y="377" type="curve" smooth="yes"/>
      <point x="113" y="377" type="line"/>
      <point x="113" y="367" type="line"/>
      <point x="156" y="367" type="line" smooth="yes"/>
      <point x="232" y="367"/>
      <point x="289" y="311"/>
      <point x="289" y="202" type="curve" smooth="yes"/>
      <point x="289" y="55"/>
      <point x="228" y="14"/>
      <point x="163" y="9" type="curve" smooth="yes"/>
      <point x="60" y="-1"/>
      <point x="26" y="-31"/>
      <point x="26" y="-83" type="curve" smooth="yes"/>
      <point x="26" y="-145"/>
      <point x="68" y="-180"/>
      <point x="130" y="-180" type="curve" smooth="yes"/>
      <point x="226" y="-180"/>
      <point x="245" y="-126"/>
      <point x="278" y="-126" type="curve" smooth="yes"/>
      <point x="300" y="-126"/>
      <point x="313" y="-143"/>
    </contour>
  </outline>
</glyph>
<glyph name="uni0472" format="2">
  <advance width="426"/>
  <unicode hex="0472"/>
  <anchor x="213" y="0" name="bottom"/>
  <anchor x="213" y="714" name="top"/>
  <outline>
    <contour>
      <point x="211" y="-10" type="curve" smooth="yes"/>
      <point x="310" y="-10"/>
      <point x="390" y="118"/>
      <point x="390" y="358" type="curve" smooth="yes"/>
      <point x="390" y="623"/>
      <point x="325" y="725"/>
      <point x="212" y="725" type="curve" smooth="yes"/>
      <point x="92" y="725"/>
      <point x="35" y="599"/>
      <point x="35" y="359" type="curve" smooth="yes"/>
      <point x="35" y="145"/>
      <point x="91" y="-10"/>
    </contour>
    <contour>
      <point x="211" y="0" type="curve" smooth="yes"/>
      <point x="119" y="0"/>
      <point x="68" y="136"/>
      <point x="63" y="322" type="curve"/>
      <point x="78" y="358"/>
      <point x="109" y="389"/>
      <point x="141" y="389" type="curve" smooth="yes"/>
      <point x="202" y="389"/>
      <point x="207" y="318"/>
      <point x="284" y="318" type="curve" smooth="yes"/>
      <point x="322" y="318"/>
      <point x="344" y="338"/>
      <point x="362" y="379" type="curve"/>
      <point x="362" y="126"/>
      <point x="301" y="0"/>
    </contour>
    <contour>
      <point x="289" y="348" type="curve" smooth="yes"/>
      <point x="221" y="348"/>
      <point x="215" y="419"/>
      <point x="148" y="419" type="curve" smooth="yes"/>
      <point x="99" y="419"/>
      <point x="72" y="387"/>
      <point x="63" y="349" type="curve"/>
      <point x="63" y="594"/>
      <point x="104" y="715"/>
      <point x="212" y="715" type="curve" smooth="yes"/>
      <point x="317" y="715"/>
      <point x="357" y="606"/>
      <point x="361" y="403" type="curve"/>
      <point x="342" y="371"/>
      <point x="319" y="348"/>
    </contour>
  </outline>
</glyph>
<glyph name="uni0473" format="2">
  <advance width="329"/>
  <unicode hex="0473"/>
  <anchor x="164" y="0" name="bottom"/>
  <anchor x="164" y="536" name="top"/>
  <outline>
    <contour>
      <point x="165" y="-10" type="curve" smooth="yes"/>
      <point x="249" y="-10"/>
      <point x="293" y="69"/>
      <point x="293" y="267" type="curve" smooth="yes"/>
      <point x="293" y="442"/>
      <point x="259" y="542"/>
      <point x="165" y="542" type="curve" smooth="yes"/>
      <point x="72" y="542"/>
      <point x="37" y="449"/>
      <point x="37" y="267" type="curve" smooth="yes"/>
      <point x="37" y="74"/>
      <point x="81" y="-10"/>
    </contour>
    <contour>
      <point x="167" y="0" type="curve" smooth="yes"/>
      <point x="98" y="0"/>
      <point x="64" y="78"/>
      <point x="65" y="285" type="curve"/>
      <point x="78" y="295"/>
      <point x="93" y="304"/>
      <point x="102" y="304" type="curve" smooth="yes"/>
      <point x="140" y="304"/>
      <point x="177" y="242"/>
      <point x="214" y="242" type="curve" smooth="yes"/>
      <point x="240" y="242"/>
      <point x="251" y="254"/>
      <point x="265" y="267" type="curve"/>
      <point x="264" y="76"/>
      <point x="238" y="0"/>
    </contour>
    <contour>
      <point x="65" y="297" type="curve"/>
      <point x="70" y="463"/>
      <point x="94" y="532"/>
      <point x="162" y="532" type="curve" smooth="yes"/>
      <point x="240" y="532"/>
      <point x="262" y="455"/>
      <point x="265" y="280" type="curve"/>
      <point x="255" y="268"/>
      <point x="243" y="260"/>
      <point x="232" y="260" type="curve" smooth="yes"/>
      <point x="196" y="260"/>
      <point x="153" y="322"/>
      <point x="119" y="322" type="curve" smooth="yes"/>
      <point x="92" y="322"/>
      <point x="79" y="308"/>
    </contour>
  </outline>
</glyph>
<glyph name="uni047B" format="2">
  <advance width="316"/>
  <unicode hex="047B"/>
  <outline>
    <contour>
      <point x="165" y="-26" type="curve" smooth="yes"/>
      <point x="175" y="-26"/>
      <point x="178" y="-17"/>
      <point x="180" y="-9" type="curve"/>
      <point x="245" y="5"/>
      <point x="279" y="86"/>
      <point x="279" y="267" type="curve" smooth="yes"/>
      <point x="279" y="430"/>
      <point x="253" y="529"/>
      <point x="177" y="541" type="curve"/>
      <point x="175" y="549"/>
      <point x="171" y="558"/>
      <point x="162" y="558" type="curve" smooth="yes"/>
      <point x="150" y="558"/>
      <point x="146" y="549"/>
      <point x="144" y="541" type="curve"/>
      <point x="67" y="530"/>
      <point x="37" y="439"/>
      <point x="37" y="267" type="curve" smooth="yes"/>
      <point x="37" y="85"/>
      <point x="74" y="-1"/>
      <point x="147" y="-9" type="curve"/>
      <point x="149" y="-17"/>
      <point x="153" y="-26"/>
    </contour>
    <contour>
      <point x="147" y="1" type="curve"/>
      <point x="92" y="11"/>
      <point x="65" y="83"/>
      <point x="65" y="267" type="curve" smooth="yes"/>
      <point x="65" y="424"/>
      <point x="83" y="524"/>
      <point x="142" y="531" type="curve"/>
      <point x="141" y="500"/>
      <point x="145" y="482"/>
      <point x="162" y="482" type="curve" smooth="yes"/>
      <point x="175" y="482"/>
      <point x="178" y="500"/>
      <point x="177" y="531" type="curve"/>
      <point x="237" y="518"/>
      <point x="251" y="415"/>
      <point x="251" y="267" type="curve" smooth="yes"/>
      <point x="251" y="84"/>
      <point x="233" y="14"/>
      <point x="180" y="1" type="curve"/>
      <point x="182" y="32"/>
      <point x="178" y="49"/>
      <point x="165" y="49" type="curve" smooth="yes"/>
      <point x="150" y="49"/>
      <point x="146" y="32"/>
    </contour>
  </outline>
</glyph>
<glyph name="uni047D" format="2">
  <advance width="430"/>
  <unicode hex="047D"/>
  <outline>
    <contour>
      <point x="107" y="763" type="curve"/>
      <point x="117" y="763" type="line"/>
      <point x="118" y="771" type="line" smooth="yes"/>
      <point x="122" y="807"/>
      <point x="138" y="828"/>
      <point x="162" y="828" type="curve" smooth="yes"/>
      <point x="219" y="828"/>
      <point x="222" y="776"/>
      <point x="300" y="776" type="curve" smooth="yes"/>
      <point x="318" y="776" type="line"/>
      <point x="318" y="793" type="line"/>
      <point x="320" y="793" type="line"/>
      <point x="226" y="793"/>
      <point x="229" y="849"/>
      <point x="161" y="849" type="curve" smooth="yes"/>
      <point x="127" y="849"/>
      <point x="111" y="829"/>
    </contour>
    <contour>
      <point x="161" y="607" type="line"/>
      <point x="221" y="632"/>
      <point x="242" y="692"/>
      <point x="242" y="732" type="curve" smooth="yes"/>
      <point x="242" y="778"/>
      <point x="223" y="787"/>
      <point x="202" y="787" type="curve" smooth="yes"/>
      <point x="187" y="787"/>
      <point x="166" y="779"/>
      <point x="166" y="757" type="curve" smooth="yes"/>
      <point x="166" y="720"/>
      <point x="213" y="740"/>
      <point x="213" y="702" type="curve" smooth="yes"/>
      <point x="213" y="657"/>
      <point x="189" y="632"/>
      <point x="161" y="618" type="curve"/>
    </contour>
    <component base="uniA64D"/>
  </outline>
</glyph>
<glyph name="dasiapneumatacomb.cy" format="2">
  <unicode hex="0485"/>
  <anchor x="2" y="536" name="_top"/>
  <anchor x="2" y="757" name="top"/>
  <outline>
    <contour>
      <point x="31" y="620" type="curve"/>
      <point x="31" y="630" type="line"/>
      <point x="14" y="642"/>
      <point x="-8" y="651"/>
      <point x="-8" y="685" type="curve" smooth="yes"/>
      <point x="-8" y="730"/>
      <point x="32" y="712"/>
      <point x="32" y="740" type="curve" smooth="yes"/>
      <point x="32" y="749"/>
      <point x="25" y="757"/>
      <point x="13" y="757" type="curve" smooth="yes"/>
      <point x="-14" y="757"/>
      <point x="-27" y="733"/>
      <point x="-27" y="708" type="curve" smooth="yes"/>
      <point x="-27" y="658"/>
      <point x="0" y="633"/>
    </contour>
  </outline>
</glyph>
<glyph name="uni048D" format="2">
  <advance width="348"/>
  <unicode hex="048D"/>
  <anchor x="174" y="0" name="bottom"/>
  <anchor x="174" y="644" name="top"/>
  <outline>
    <contour>
      <point x="16" y="0" type="line"/>
      <point x="175" y="0" type="line" smooth="yes"/>
      <point x="246" y="0"/>
      <point x="308" y="48"/>
      <point x="308" y="141" type="curve" smooth="yes"/>
      <point x="308" y="271"/>
      <point x="223" y="290"/>
      <point x="169" y="290" type="curve" smooth="yes"/>
      <point x="105" y="290" type="line"/>
      <point x="105" y="476" type="line"/>
      <point x="193" y="476" type="line"/>
      <point x="193" y="486" type="line"/>
      <point x="105" y="486" type="line"/>
      <point x="105" y="644" type="line"/>
      <point x="77" y="644" type="line"/>
      <point x="77" y="486" type="line"/>
      <point x="19" y="486" type="line"/>
      <point x="19" y="476" type="line"/>
      <point x="77" y="476" type="line"/>
      <point x="77" y="87" type="line" smooth="yes"/>
      <point x="77" y="17"/>
      <point x="69" y="10"/>
      <point x="17" y="10" type="curve" smooth="yes"/>
      <point x="16" y="10" type="line"/>
    </contour>
    <contour>
      <point x="105" y="10" type="line"/>
      <point x="105" y="280" type="line"/>
      <point x="171" y="280" type="line" smooth="yes"/>
      <point x="235" y="280"/>
      <point x="280" y="252"/>
      <point x="280" y="141" type="curve" smooth="yes"/>
      <point x="280" y="54"/>
      <point x="238" y="10"/>
      <point x="193" y="10" type="curve" smooth="yes"/>
    </contour>
  </outline>
</glyph>
<glyph name="uni0494" format="2">
  <advance width="372"/>
  <unicode hex="0494"/>
  <anchor x="187" y="-247" name="bottom"/>
  <anchor x="187" y="714" name="top"/>
  <outline>
    <contour>
      <point x="196" y="-247" type="curve" smooth="yes"/>
      <point x="235" y="-247"/>
      <point x="349" y="-216"/>
      <point x="349" y="56" type="curve" smooth="yes"/>
      <point x="349" y="351"/>
      <point x="222" y="391"/>
      <point x="190" y="391" type="curve" smooth="yes"/>
      <point x="153" y="391"/>
      <point x="134" y="386"/>
      <point x="110" y="377" type="curve"/>
      <point x="110" y="704" type="line"/>
      <point x="238" y="704" type="line" smooth="yes"/>
      <point x="286" y="704"/>
      <point x="293" y="691"/>
      <point x="295" y="630" type="curve" smooth="yes"/>
      <point x="296" y="573" type="line"/>
      <point x="306" y="573" type="line"/>
      <point x="303" y="714" type="line"/>
      <point x="27" y="714" type="line"/>
      <point x="27" y="704" type="line"/>
      <point x="24" y="704" type="line" smooth="yes"/>
      <point x="77" y="704"/>
      <point x="82" y="693"/>
      <point x="82" y="616" type="curve" smooth="yes"/>
      <point x="82" y="91" type="line" smooth="yes"/>
      <point x="82" y="21"/>
      <point x="77" y="10"/>
      <point x="25" y="10" type="curve" smooth="yes"/>
      <point x="27" y="10" type="line"/>
      <point x="27" y="0" type="line"/>
      <point x="181" y="0" type="line"/>
      <point x="181" y="10" type="line"/>
      <point x="166" y="10" type="line" smooth="yes"/>
      <point x="116" y="10"/>
      <point x="110" y="21"/>
      <point x="110" y="91" type="curve" smooth="yes"/>
      <point x="110" y="366" type="line"/>
      <point x="131" y="375"/>
      <point x="149" y="381"/>
      <point x="190" y="381" type="curve" smooth="yes"/>
      <point x="213" y="381"/>
      <point x="321" y="349"/>
      <point x="321" y="53" type="curve" smooth="yes"/>
      <point x="321" y="-219"/>
      <point x="226" y="-237"/>
      <point x="193" y="-237" type="curve" smooth="yes"/>
      <point x="103" y="-237"/>
      <point x="82" y="-184"/>
      <point x="82" y="-91" type="curve"/>
      <point x="63" y="-91"/>
      <point x="58" y="-108"/>
      <point x="58" y="-132" type="curve" smooth="yes"/>
      <point x="58" y="-183"/>
      <point x="100" y="-247"/>
    </contour>
  </outline>
</glyph>
<glyph name="uni049C" format="2">
  <advance width="425"/>
  <unicode hex="049C"/>
  <anchor x="212" y="0" name="bottom"/>
  <anchor x="212" y="714" name="top"/>
  <outline>
    <contour>
      <point x="27" y="0" type="line"/>
      <point x="183" y="0" type="line"/>
      <point x="183" y="10" type="line"/>
      <point x="169" y="10" type="line" smooth="yes"/>
      <point x="116" y="10"/>
      <point x="112" y="21"/>
      <point x="112" y="105" type="curve" smooth="yes"/>
      <point x="112" y="364" type="line"/>
      <point x="177" y="362" type="line"/>
      <point x="177" y="174" type="line"/>
      <point x="187" y="174" type="line"/>
      <point x="187" y="357" type="line"/>
      <point x="225" y="350"/>
      <point x="226" y="327"/>
      <point x="248" y="268" type="curve" smooth="yes"/>
      <point x="305" y="102" type="line" smooth="yes"/>
      <point x="336" y="13"/>
      <point x="347" y="0"/>
      <point x="414" y="0" type="curve" smooth="yes"/>
      <point x="414" y="0" type="line"/>
      <point x="414" y="10" type="line"/>
      <point x="404" y="10" type="line" smooth="yes"/>
      <point x="377" y="10"/>
      <point x="355" y="39"/>
      <point x="326" y="120" type="curve" smooth="yes"/>
      <point x="269" y="290" type="line" smooth="yes"/>
      <point x="246" y="355"/>
      <point x="225" y="365"/>
      <point x="182" y="367" type="curve"/>
      <point x="202" y="387"/>
      <point x="215" y="407"/>
      <point x="265" y="542" type="curve" smooth="yes"/>
      <point x="304" y="650"/>
      <point x="318" y="693"/>
      <point x="352" y="693" type="curve" smooth="yes"/>
      <point x="367" y="693"/>
      <point x="375" y="686"/>
      <point x="375" y="641" type="curve"/>
      <point x="385" y="640"/>
      <point x="399" y="647"/>
      <point x="399" y="671" type="curve" smooth="yes"/>
      <point x="399" y="700"/>
      <point x="384" y="720"/>
      <point x="361" y="720" type="curve" smooth="yes"/>
      <point x="313" y="720"/>
      <point x="288" y="662"/>
      <point x="250" y="547" type="curve" smooth="yes"/>
      <point x="223" y="465"/>
      <point x="197" y="397"/>
      <point x="187" y="380" type="curve"/>
      <point x="187" y="544" type="line"/>
      <point x="177" y="544" type="line"/>
      <point x="177" y="374" type="line"/>
      <point x="112" y="374" type="line"/>
      <point x="112" y="618" type="line" smooth="yes"/>
      <point x="112" y="693"/>
      <point x="119" y="704"/>
      <point x="165" y="704" type="curve" smooth="yes"/>
      <point x="183" y="704" type="line"/>
      <point x="183" y="714" type="line"/>
      <point x="27" y="714" type="line"/>
      <point x="27" y="704" type="line"/>
      <point x="29" y="704" type="line" smooth="yes"/>
      <point x="77" y="704"/>
      <point x="84" y="693"/>
      <point x="84" y="618" type="curve" smooth="yes"/>
      <point x="84" y="98" type="line" smooth="yes"/>
      <point x="84" y="21"/>
      <point x="77" y="10"/>
      <point x="29" y="10" type="curve" smooth="yes"/>
      <point x="27" y="10" type="line"/>
    </contour>
  </outline>
</glyph>
